<?xml version="1.0" encoding="UTF-8" standalone="no"?>
<!-- Created with Inkscape (http://www.inkscape.org/) -->

<svg
   width="108"
   height="108"
   viewBox="0 0 108 108"
   version="1.1"
   id="svg1"
   xml:space="preserve"
   xmlns:xlink="http://www.w3.org/1999/xlink"
   xmlns="http://www.w3.org/2000/svg"
   xmlns:svg="http://www.w3.org/2000/svg"><defs
     id="defs1"><linearGradient
       id="linearGradient22"><stop
         style="stop-color:#405447;stop-opacity:0.62486202;"
         offset="0"
         id="stop21" /><stop
         style="stop-color:#4c644f;stop-opacity:0.22236966;"
         offset="1"
         id="stop22" /></linearGradient><linearGradient
       id="linearGradient15"><stop
         style="stop-color:#4ead32;stop-opacity:1;"
         offset="0"
         id="stop14" /><stop
         style="stop-color:#cbd868;stop-opacity:1;"
         offset="1"
         id="stop15" /></linearGradient><linearGradient
       id="linearGradient137"><stop
         style="stop-color:#3b2f21;stop-opacity:1;"
         offset="0"
         id="stop136" /><stop
         style="stop-color:#634e35;stop-opacity:1;"
         offset="1"
         id="stop137" /></linearGradient><linearGradient
       id="linearGradient68"><stop
         style="stop-color:#463725;stop-opacity:1;"
         offset="0"
         id="stop72" /><stop
         style="stop-color:#725a39;stop-opacity:1;"
         offset="1"
         id="stop73" /></linearGradient><linearGradient
       id="linearGradient40"><stop
         style="stop-color:#dad6d2;stop-opacity:1;"
         offset="0"
         id="stop40" /><stop
         style="stop-color:#c5bbb6;stop-opacity:1;"
         offset="1"
         id="stop41" /></linearGradient><linearGradient
       xlink:href="#linearGradient68"
       id="linearGradient147"
       gradientUnits="userSpaceOnUse"
       gradientTransform="translate(239,-3)"
       x1="1385"
       y1="75"
       x2="1397"
       y2="69" /><linearGradient
       xlink:href="#linearGradient22"
       id="linearGradient148"
       gradientUnits="userSpaceOnUse"
       gradientTransform="translate(239,-3)"
       x1="1397"
       y1="75"
       x2="1367"
       y2="75" /><linearGradient
       xlink:href="#linearGradient137"
       id="linearGradient149"
       gradientUnits="userSpaceOnUse"
       gradientTransform="translate(253,-17)"
       x1="1385"
       y1="75"
       x2="1397"
       y2="69" /><linearGradient
       xlink:href="#linearGradient22"
       id="linearGradient152"
       gradientUnits="userSpaceOnUse"
       gradientTransform="translate(253,-17)"
       x1="1397"
       y1="75"
       x2="1367"
       y2="75" /><linearGradient
       xlink:href="#linearGradient137"
       id="linearGradient155"
       gradientUnits="userSpaceOnUse"
       gradientTransform="translate(267,-31)"
       x1="1385"
       y1="75"
       x2="1397"
       y2="69" /><linearGradient
       xlink:href="#linearGradient22"
       id="linearGradient156"
       gradientUnits="userSpaceOnUse"
       gradientTransform="translate(267,-31)"
       x1="1397"
       y1="75"
       x2="1367"
       y2="75" /><linearGradient
       xlink:href="#linearGradient40"
       id="linearGradient157"
       gradientUnits="userSpaceOnUse"
       x1="1221.0331"
       y1="120"
       x2="1221.0331"
       y2="160"
       spreadMethod="pad" /><linearGradient
       xlink:href="#linearGradient40"
       id="linearGradient158"
       gradientUnits="userSpaceOnUse"
       x1="1221.0331"
       y1="120"
       x2="1221.0331"
       y2="160"
       spreadMethod="pad" /><linearGradient
       xlink:href="#linearGradient15"
       id="linearGradient159"
       gradientUnits="userSpaceOnUse"
       gradientTransform="translate(236)"
       x1="1359"
       y1="0"
       x2="1425.5"
       y2="66.5" /></defs><g
     id="layer3"
     style="display:inline;fill:none;stroke:#dee4da;stroke-width:0.5;stroke-dasharray:none;stroke-opacity:1"
     transform="translate(-1595)"><path
       style="fill:url(#linearGradient159);fill-opacity:1;stroke:none;stroke-linecap:butt;paint-order:markers stroke fill"
       d="m 1620,108 47,-40 36,-43 V 0 h -108 v 108 z"
       id="path63" /><path
       style="fill:#3097d2;fill-opacity:1;stroke:none;stroke-linecap:butt;paint-order:markers stroke fill"
       d="m 1620,108 83,-83 v 83 z"
       id="path64" /><path
       style="fill:url(#linearGradient158);stroke:none;stroke-width:6.79135;stroke-linecap:square;paint-order:markers stroke fill"
       d="m 1224.5625,84 c -12,12 -10.8125,24.9948 -6.8125,36 h 20.7139 c -5.9411,-1.14726 -17.9014,-12 -13.9014,-36 z m 0,72 c -12,-12 -10.8125,-24.9948 -6.8125,-36 h 20.7139 c -5.9411,1.14726 -17.9014,12 -13.9014,36 z"
       id="path66"
       transform="matrix(0.29449205,0,0,0.29449205,1317.2822,26.660954)" /><path
       style="fill:url(#linearGradient157);stroke:none;stroke-width:6.79135;stroke-linecap:square;paint-order:markers stroke fill"
       d="m 1224.5625,84 c -12,12 -10.8125,24.9948 -6.8125,36 h 20.7139 c -5.9411,-1.14726 -17.9014,-12 -13.9014,-36 z m 0,72 c -12,-12 -10.8125,-24.9948 -6.8125,-36 h 20.7139 c -5.9411,1.14726 -17.9014,12 -13.9014,36 z"
       id="path68"
       transform="matrix(0.29449205,0,0,0.29449205,1268.3823,0.660954)" /><path
       style="fill:#29533f;fill-opacity:0.173393;stroke:none;stroke-width:6.79135;stroke-linecap:square;paint-order:markers stroke fill"
       d="m 1224.5625,84 c -12,12 -10.8125,24.9948 -6.8125,36 h 20.7139 c -5.9411,-1.14726 -17.9014,-12 -13.9014,-36 z m 0,72 c -12,-12 -10.8125,-24.9948 -6.8125,-36 h 20.7139 c -5.9411,1.14726 -17.9014,12 -13.9014,36 z"
       id="path99"
       transform="matrix(0.29449205,0,0,0.29449205,1242.8424,17.667671)" /><path
       style="fill:url(#linearGradient156);fill-opacity:1;stroke:none;stroke-linecap:butt;paint-order:markers stroke fill"
       d="m 1664,32 -30,12 30,12 z"
       id="path100" /><path
       style="fill:#c6ad89;fill-opacity:1;stroke:none;stroke-linecap:butt;paint-order:markers stroke fill"
       d="m 1664,56 12,-12 -12,-20 -1.9891,13 z"
       id="path101" /><path
       style="fill:url(#linearGradient155);fill-opacity:1;stroke:none;stroke-linecap:butt;paint-order:markers stroke fill"
       d="m 1664,56 -12,-12 12,-20 z"
       id="path105" /><path
       id="path112"
       style="fill:#cec9c5;fill-opacity:1;stroke:none;stroke-linecap:butt;paint-order:markers stroke fill"
       d="m 1664,24 -1,7 1,7 5.25,-5.25 z" /><path
       id="path113"
       style="fill:#7c949c;fill-opacity:1;stroke:none;stroke-linecap:butt;paint-order:markers stroke fill"
       d="m 1664,24 -5.25,8.75 5.25,5.25 z" /><path
       style="fill:url(#linearGradient152);fill-opacity:1;stroke:none;stroke-linecap:butt;paint-order:markers stroke fill"
       d="m 1650,46 -30,12 30,12 z"
       id="path114" /><path
       style="fill:#c6ad89;fill-opacity:1;stroke:none;stroke-linecap:butt;paint-order:markers stroke fill"
       d="m 1650,70 12,-12 -12,-20 -1.9891,13 z"
       id="path115" /><path
       style="fill:url(#linearGradient149);fill-opacity:1;stroke:none;stroke-linecap:butt;paint-order:markers stroke fill"
       d="m 1650,70 -12,-12 12,-20 z"
       id="path116" /><path
       id="path117"
       style="fill:#cec9c5;fill-opacity:1;stroke:none;stroke-linecap:butt;paint-order:markers stroke fill"
       d="m 1650,38 -1,7 1,7 5.25,-5.25 z" /><path
       id="path118"
       style="fill:#7c949c;fill-opacity:1;stroke:none;stroke-linecap:butt;paint-order:markers stroke fill"
       d="m 1650,38 -5.25,8.75 5.25,5.25 z" /><path
       style="fill:url(#linearGradient148);fill-opacity:1;stroke:none;stroke-linecap:butt;paint-order:markers stroke fill"
       d="m 1636,60 -30,12 30,12 z"
       id="path119" /><path
       style="fill:#c6ad89;fill-opacity:1;stroke:none;stroke-linecap:butt;paint-order:markers stroke fill"
       d="m 1636,84 12,-12 -12,-20 -1.9891,13 z"
       id="path120" /><path
       style="fill:url(#linearGradient147);fill-opacity:1;stroke:none;stroke-linecap:butt;paint-order:markers stroke fill"
       d="m 1636,84 -12,-12 12,-20 z"
       id="path121" /><path
       id="path130"
       style="fill:#cec9c5;fill-opacity:1;stroke:none;stroke-linecap:butt;paint-order:markers stroke fill"
       d="m 1636,52 -1,7 1,7 5.25,-5.25 z" /><path
       id="path136"
       style="fill:#7c949c;fill-opacity:1;stroke:none;stroke-linecap:butt;paint-order:markers stroke fill"
       d="m 1636,52 -5.25,8.75 5.25,5.25 z" /><path
       style="fill:#293953;fill-opacity:0.213006;stroke:none;stroke-width:6.79135;stroke-linecap:square;paint-order:markers stroke fill"
       d="m 1224.5625,84 c -12,12 -10.8125,24.9948 -6.8125,36 h 20.7139 c -5.9411,-1.14726 -17.9014,-12 -13.9014,-36 z m 0,72 c -12,-12 -10.8125,-24.9948 -6.8125,-36 h 20.7139 c -5.9411,1.14726 -17.9014,12 -13.9014,36 z"
       id="path138"
       transform="matrix(0.29449205,0,0,0.29449205,1291.7368,43.660954)" /><path
       id="path111"
       style="fill:#f9f9f9;fill-opacity:0.3515;stroke:none;stroke-linecap:butt;stroke-opacity:1;paint-order:markers stroke fill"
       d="m 1699,31 -3,3 h 6 z m 0,8 -3,3 h 6 z m -11,5 -3,3 h 6 z m 8,5 -3,3 h 6 z m -10,5 -3,3 h 6 z m 13,4 -3,3 h 6 z m -29,2 -3,3 h 6 z m 15,5 -3,3 h 6 z m 10,3 -3,3 h 6 z m -31,1 -3,3 h 6 z m 10,5 -3,3 h 6 z m 11,3 -3,3 h 6 z m 13,1 -3,3 h 6 z m -35,1 -3,3 h 6 z m -10.627,5.373047 c -0.1627,0.782859 -0.2537,1.656709 -0.246,2.626953 H 1655 Z M 1676,85.5 l -3,3 h 6 z M 1650.0059,85.994141 1649,87 h 1.4375 c -0.1696,-0.334906 -0.3134,-0.670271 -0.4316,-1.005859 z M 1691,87 l -3,3 h 6 z m -26,2 -3,3 h 6 z m -23,3 -3,3 h 6 z m 12,1 -3,3 h 6 z m 30,2 -3,3 h 6 z m 15,1 -3,3 h 6 z m -56,4 -3,3 h 6 z m 30,-1 -3,3 h 6 z m 17,2 -3,3 h 6 z m -59,2 -3,3 h 6 z m 28,0 -3,3 h 6 z" /></g></svg>
