<svg xmlns="http://www.w3.org/2000/svg" viewBox="0 0 108 108">
  <path style="fill:#000;stroke:none;stroke-width:1px;stroke-linecap:butt;stroke-linejoin:miter;stroke-opacity:1" d="m71 24-8.807 26.418 4.473 13.414L71 66l12-6Zm-16 8-8.807 26.418 4.473 13.414L55 74l12-6-3.467-10.4-1.867-5.6Zm-16 8L27 76l12 6 12-6-3.467-10.4-1.867-5.6Z"/>
  <path style="fill:#1a1a1a;stroke:none;stroke-width:1.375px;stroke-linecap:butt;stroke-linejoin:miter;stroke-opacity:1" d="M33 21s-.077 5.577-2.75 8.25S22 32 22 32s5.577.077 8.25 2.75S33 43 33 43s.077-5.577 2.75-8.25S44 32 44 32s-5.577-.077-8.25-2.75S33 21 33 21Z"/>
  <path style="fill:#000;stroke:none;stroke-width:4;stroke-linecap:round;paint-order:markers fill stroke" d="m108 53.5-108 54v.5h6.01l-.014-.094a1.849 1.849 0 0 1 1.557-2.074l2.144-.305 1.98-.28-.023-.165a1.849 1.849 0 0 1 1.557-2.074l2.144-.305 1.98-.281-.023-.166a1.848 1.848 0 0 1 1.56-2.072l2.142-.307 1.98-.281-.023-.164a1.85 1.85 0 0 1 1.558-2.075l2.145-.304 1.978-.281-.021-.165a1.849 1.849 0 0 1 1.556-2.074l2.145-.304 1.98-.282-.023-.166a1.847 1.847 0 0 1 1.557-2.072l2.144-.307 1.98-.28-.023-.165a1.849 1.849 0 0 1 1.557-2.074l2.144-.305 1.98-.281-.023-.164a1.85 1.85 0 0 1 1.56-2.074l2.144-.305 1.978-.281-.023-.166a1.848 1.848 0 0 1 1.558-2.073l2.145-.306 1.98-.282-.023-.164a1.849 1.849 0 0 1 1.556-2.074l2.145-.304 1.98-.282-.023-.164a1.849 1.849 0 0 1 1.557-2.074l2.144-.305 1.98-.281-.023-.166a1.847 1.847 0 0 1 1.557-2.072l2.144-.307 1.98-.281-.023-.164a1.85 1.85 0 0 1 1.559-2.074l2.145-.305 1.978-.281-.023-.164a1.85 1.85 0 0 1 1.558-2.075l2.145-.304 1.98-.282-.023-.166a1.847 1.847 0 0 1 1.556-2.072l2.145-.306 1.98-.282-.023-.164a1.849 1.849 0 0 1 1.557-2.074l2.144-.305 1.98-.281-.023-.164a1.85 1.85 0 0 1 1.559-2.074l2.144-.305 1.979-.281-.024-.166a1.848 1.848 0 0 1 1.559-2.072l2.145-.307 1.98-.281-.023-.164c-.047-.332.027-.644.148-.936zm0 5.725-1.824.26-1.98.28a2.016 2.016 0 0 1-1.7 2.262l-1.978.284-1.98.28a2.016 2.016 0 0 1-1.7 2.263l-1.98.28-1.98.282a2.016 2.016 0 0 1-1.698 2.262l-1.98.281-1.981.281a2.015 2.015 0 0 1-1.698 2.262l-1.98.283-1.98.281a2.015 2.015 0 0 1-1.698 2.262l-1.98.281-1.98.282a2.016 2.016 0 0 1-1.7 2.261l-1.978.282-1.98.28a2.016 2.016 0 0 1-1.7 2.263l-1.98.283-1.98.281a2.016 2.016 0 0 1-1.698 2.262l-1.98.281-1.981.281a2.015 2.015 0 0 1-1.697 2.262l-1.981.281-1.98.281a2.015 2.015 0 0 1-1.698 2.262l-1.98.283-1.98.282a2.016 2.016 0 0 1-1.7 2.261l-1.978.282-1.98.28a2.016 2.016 0 0 1-1.7 2.263l-1.98.28-1.981.282a2.015 2.015 0 0 1-1.697 2.262l-1.98.283-1.981.281a2.015 2.015 0 0 1-1.697 2.262l-1.98.281-1.981.281a2.016 2.016 0 0 1-1.7 2.262l-1.978.281-1.98.282a2.016 2.016 0 0 1-1.7 2.261l-1.98.284-1.979.28a2.016 2.016 0 0 1-1.699 2.263l-1.98.28-1.981.282c.01.072-.016.14-.014.211h9.344c.005-.89.64-1.688 1.543-1.816l2.143-.307 1.98-.281-.023-.164a1.85 1.85 0 0 1 1.558-2.075l2.145-.304 1.978-.282-.021-.164a1.849 1.849 0 0 1 1.557-2.074l2.144-.304 1.98-.282-.023-.166a1.847 1.847 0 0 1 1.557-2.072l2.144-.307 1.98-.28-.023-.165a1.849 1.849 0 0 1 1.557-2.074l2.144-.305 1.98-.281-.023-.164a1.85 1.85 0 0 1 1.56-2.074l2.144-.305 1.978-.281-.023-.166a1.848 1.848 0 0 1 1.558-2.073l2.145-.306 1.98-.282-.023-.164a1.849 1.849 0 0 1 1.556-2.074l2.145-.304 1.98-.282-.023-.164a1.849 1.849 0 0 1 1.557-2.074l2.144-.305 1.98-.281-.023-.166a1.847 1.847 0 0 1 1.557-2.072l2.144-.307 1.98-.281-.023-.164a1.85 1.85 0 0 1 1.559-2.074l2.145-.305 1.978-.281-.023-.164a1.85 1.85 0 0 1 1.558-2.075l2.145-.304 1.98-.282-.023-.166a1.847 1.847 0 0 1 1.556-2.072l2.145-.306 1.98-.282-.023-.164a1.849 1.849 0 0 1 1.557-2.074l2.144-.305 1.98-.281-.023-.164a1.85 1.85 0 0 1 1.559-2.074l2.144-.305 1.979-.281-.024-.166a1.848 1.848 0 0 1 1.559-2.072l2.145-.307 1.98-.281-.023-.164c-.047-.332.027-.644.148-.936zm0 6-1.824.26-1.98.28a2.016 2.016 0 0 1-1.7 2.262l-1.978.284-1.98.28a2.016 2.016 0 0 1-1.7 2.263l-1.98.28-1.98.282a2.016 2.016 0 0 1-1.698 2.262l-1.98.281-1.981.281a2.015 2.015 0 0 1-1.698 2.262l-1.98.283-1.98.281a2.015 2.015 0 0 1-1.698 2.262l-1.98.281-1.98.282a2.016 2.016 0 0 1-1.7 2.261l-1.978.282-1.98.28a2.016 2.016 0 0 1-1.7 2.263l-1.98.283-1.98.281a2.016 2.016 0 0 1-1.698 2.262l-1.98.281-1.981.281a2.015 2.015 0 0 1-1.697 2.262l-1.981.281-1.98.281a2.015 2.015 0 0 1-1.698 2.262l-1.98.283-1.98.282a2.016 2.016 0 0 1-1.7 2.261l-1.978.282-1.98.28a2.016 2.016 0 0 1-1.7 2.263l-1.98.28-1.981.282a2.015 2.015 0 0 1-1.697 2.262l-1.98.283-1.981.281a2.015 2.015 0 0 1-1.697 2.262l-1.98.281-1.981.281a2.016 2.016 0 0 1-1.7 2.262l-1.978.281-1.004.143h8.375c.15-.74.737-1.355 1.52-1.467l2.144-.304 1.98-.282-.023-.166a1.847 1.847 0 0 1 1.557-2.072l2.144-.307 1.98-.28-.023-.165a1.849 1.849 0 0 1 1.557-2.074l2.144-.305 1.98-.281-.023-.164a1.85 1.85 0 0 1 1.56-2.074l2.144-.305 1.978-.281-.023-.166a1.848 1.848 0 0 1 1.558-2.073l2.145-.306 1.98-.282-.023-.164a1.849 1.849 0 0 1 1.556-2.074l2.145-.304 1.98-.282-.023-.164a1.849 1.849 0 0 1 1.557-2.074l2.144-.305 1.98-.281-.023-.166a1.847 1.847 0 0 1 1.557-2.072l2.144-.307 1.98-.281-.023-.164a1.85 1.85 0 0 1 1.559-2.074l2.145-.305 1.978-.281-.023-.164a1.85 1.85 0 0 1 1.558-2.075l2.145-.304 1.98-.282-.023-.166a1.847 1.847 0 0 1 1.556-2.072l2.145-.306 1.98-.282-.023-.164a1.849 1.849 0 0 1 1.557-2.074l2.144-.305 1.98-.281-.023-.164a1.85 1.85 0 0 1 1.559-2.074l2.144-.305 1.979-.281-.024-.166a1.848 1.848 0 0 1 1.559-2.072l2.145-.307 1.98-.281-.023-.164c-.047-.332.027-.644.148-.936zm0 6-1.824.26-1.98.28a2.016 2.016 0 0 1-1.7 2.262l-1.978.284-1.98.28a2.016 2.016 0 0 1-1.7 2.263l-1.98.28-1.98.282a2.016 2.016 0 0 1-1.698 2.262l-1.98.281-1.981.281a2.015 2.015 0 0 1-1.698 2.262l-1.98.283-1.98.281a2.015 2.015 0 0 1-1.698 2.262l-1.98.281-1.98.282a2.016 2.016 0 0 1-1.7 2.261l-1.978.282-1.98.28a2.016 2.016 0 0 1-1.7 2.263l-1.98.283-1.98.281a2.016 2.016 0 0 1-1.698 2.262l-1.98.281-1.981.281a2.015 2.015 0 0 1-1.697 2.262l-1.981.281-1.98.281a2.015 2.015 0 0 1-1.698 2.262l-1.98.283-1.98.282a2.016 2.016 0 0 1-1.7 2.261l-1.978.282-1.98.28a2.016 2.016 0 0 1-1.7 2.263l-1.98.28-1.981.282a2.015 2.015 0 0 1-1.697 2.262l-.52.074h6.033c.246-.571.745-1.025 1.397-1.117l2.144-.305 1.98-.281-.023-.164a1.85 1.85 0 0 1 1.56-2.074l2.144-.305 1.978-.281-.023-.166a1.848 1.848 0 0 1 1.558-2.073l2.145-.306 1.98-.282-.023-.164a1.849 1.849 0 0 1 1.556-2.074l2.145-.304 1.98-.282-.023-.164a1.849 1.849 0 0 1 1.557-2.074l2.144-.305 1.98-.281-.023-.166a1.847 1.847 0 0 1 1.557-2.072l2.144-.307 1.98-.281-.023-.164a1.85 1.85 0 0 1 1.559-2.074l2.145-.305 1.978-.281-.023-.164a1.85 1.85 0 0 1 1.558-2.075l2.145-.304 1.98-.282-.023-.166a1.847 1.847 0 0 1 1.556-2.072l2.145-.306 1.98-.282-.023-.164a1.849 1.849 0 0 1 1.557-2.074l2.144-.305 1.98-.281-.023-.164a1.85 1.85 0 0 1 1.559-2.074l2.144-.305 1.979-.281-.024-.166a1.848 1.848 0 0 1 1.559-2.072l2.145-.307 1.98-.281-.023-.164c-.047-.332.027-.644.148-.936zm0 6-1.824.26-1.98.28a2.016 2.016 0 0 1-1.7 2.262l-1.978.284-1.98.28a2.016 2.016 0 0 1-1.7 2.263l-1.98.28-1.98.282a2.016 2.016 0 0 1-1.698 2.262l-1.98.281-1.981.281a2.015 2.015 0 0 1-1.698 2.262l-1.98.283-1.98.281a2.015 2.015 0 0 1-1.698 2.262l-1.98.281-1.98.282a2.016 2.016 0 0 1-1.7 2.261l-1.978.282-1.98.28a2.016 2.016 0 0 1-1.7 2.263l-1.98.283-1.98.281a2.016 2.016 0 0 1-1.698 2.262l-1.98.281-1.981.281a2.015 2.015 0 0 1-1.697 2.262l-1.981.281-1.98.281a2.015 2.015 0 0 1-1.698 2.262l-1.98.283-1.98.282a2.016 2.016 0 0 1-.942 1.984h4.928a1.82 1.82 0 0 1 1.226-.766l2.145-.306 1.98-.282-.023-.164a1.849 1.849 0 0 1 1.556-2.074l2.145-.304 1.98-.282-.023-.164a1.849 1.849 0 0 1 1.557-2.074l2.144-.305 1.98-.281-.023-.166a1.847 1.847 0 0 1 1.557-2.072l2.144-.307 1.98-.281-.023-.164a1.85 1.85 0 0 1 1.559-2.074l2.145-.305 1.978-.281-.023-.164a1.85 1.85 0 0 1 1.558-2.075l2.145-.304 1.98-.282-.023-.166a1.847 1.847 0 0 1 1.556-2.072l2.145-.306 1.98-.282-.023-.164a1.849 1.849 0 0 1 1.557-2.074l2.144-.305 1.98-.281-.023-.164a1.85 1.85 0 0 1 1.559-2.074l2.144-.305 1.979-.281-.024-.166a1.848 1.848 0 0 1 1.559-2.072l2.145-.307 1.98-.281-.023-.164c-.047-.332.027-.644.148-.936zm0 6-1.824.26-1.98.28a2.016 2.016 0 0 1-1.7 2.262l-1.978.284-1.98.28a2.016 2.016 0 0 1-1.7 2.263l-1.98.28-1.98.282a2.016 2.016 0 0 1-1.698 2.262l-1.98.281-1.981.281a2.015 2.015 0 0 1-1.698 2.262l-1.98.283-1.98.281a2.015 2.015 0 0 1-1.698 2.262l-1.98.281-1.98.282a2.016 2.016 0 0 1-1.7 2.261l-1.978.282-1.98.28a2.016 2.016 0 0 1-1.7 2.263l-1.98.283-1.98.281a2.016 2.016 0 0 1-1.698 2.262l-1.98.281-1.981.281c.088.623-.15 1.205-.557 1.635h4.899c.249-.204.533-.368.87-.416l2.145-.305 1.98-.281-.023-.166a1.847 1.847 0 0 1 1.557-2.072l2.144-.307 1.98-.281-.023-.164a1.85 1.85 0 0 1 1.559-2.074l2.145-.305 1.978-.281-.023-.164a1.85 1.85 0 0 1 1.558-2.075l2.145-.304 1.98-.282-.023-.166a1.847 1.847 0 0 1 1.556-2.072l2.145-.306 1.98-.282-.023-.164a1.849 1.849 0 0 1 1.557-2.074l2.144-.305 1.98-.281-.023-.164a1.85 1.85 0 0 1 1.559-2.074l2.144-.305 1.979-.281-.024-.166a1.848 1.848 0 0 1 1.559-2.072l2.145-.307 1.98-.281-.023-.164c-.047-.332.027-.644.148-.936zm0 6-1.824.26-1.98.28a2.016 2.016 0 0 1-1.7 2.262l-1.978.284-1.98.28a2.016 2.016 0 0 1-1.7 2.263l-1.98.28-1.98.282a2.016 2.016 0 0 1-1.698 2.262l-1.98.281-1.981.281a2.015 2.015 0 0 1-1.698 2.262l-1.98.283-1.98.281a2.014 2.014 0 0 1-1.698 2.262l-1.98.281-1.98.282a2.016 2.016 0 0 1-1.7 2.261l-1.978.282-1.98.28c.065.466-.065.906-.292 1.286h5.318c.065-.017.119-.057.186-.066l2.145-.305 1.978-.281-.023-.164a1.85 1.85 0 0 1 1.558-2.075l2.145-.304 1.98-.282-.023-.166a1.847 1.847 0 0 1 1.556-2.072l2.145-.306 1.98-.282-.023-.164a1.849 1.849 0 0 1 1.557-2.074l2.144-.305 1.98-.28-.023-.165a1.85 1.85 0 0 1 1.559-2.074l2.144-.305 1.979-.281-.024-.166a1.848 1.848 0 0 1 1.559-2.072l2.145-.307 1.98-.281-.023-.164c-.047-.332.027-.644.148-.936zm0 6-1.824.26-1.98.28a2.016 2.016 0 0 1-1.7 2.262l-1.978.284-1.98.28a2.016 2.016 0 0 1-1.7 2.263l-1.98.28-1.98.282a2.016 2.016 0 0 1-1.698 2.262l-1.98.281-1.981.281a2.015 2.015 0 0 1-1.698 2.262l-1.98.283-1.98.281c.046.328-.014.64-.12.934h7.327l.15-.022 1.98-.28-.023-.165a1.849 1.849 0 0 1 1.557-2.074l2.144-.305 1.98-.281-.023-.164a1.85 1.85 0 0 1 1.559-2.074l2.144-.305 1.979-.281-.024-.166a1.848 1.848 0 0 1 1.559-2.072l2.145-.307 1.98-.281-.023-.164c-.047-.332.027-.644.148-.936zm0 6-1.824.26-1.98.28a2.016 2.016 0 0 1-1.7 2.262l-1.978.284-1.98.28a2.016 2.016 0 0 1-1.7 2.263l-1.98.28-1.98.282c.03.2-.005.393-.036.584h9.365l-.016-.117a1.848 1.848 0 0 1 1.559-2.072l2.145-.307 1.98-.281-.023-.164c-.047-.332.027-.644.148-.936zm0 6-1.824.26-1.98.28c.01.08-.016.156-.014.235H108Z"/>
  <path style="fill:#1a1a1a;stroke:none;stroke-width:1.375px;stroke-linecap:butt;stroke-linejoin:miter;stroke-opacity:1" d="M13 1s-.077 5.577-2.75 8.25S2 12 2 12s5.577.077 8.25 2.75S13 23 13 23s.077-5.577 2.75-8.25S24 12 24 12s-5.577-.077-8.25-2.75S13 1 13 1Zm80 3s-.077 5.577-2.75 8.25S82 15 82 15s5.577.077 8.25 2.75S93 26 93 26s.077-5.577 2.75-8.25S104 15 104 15s-5.577-.077-8.25-2.75S93 4 93 4Z"/>
</svg>
