<?xml version="1.0" encoding="UTF-8" standalone="no"?>
<!DOCTYPE svg PUBLIC "-//W3C//DTD SVG 1.1//EN" "http://www.w3.org/Graphics/SVG/1.1/DTD/svg11.dtd">
<svg width="100%" height="100%" viewBox="0 0 116 116" version="1.1" xmlns="http://www.w3.org/2000/svg" xmlns:xlink="http://www.w3.org/1999/xlink" xml:space="preserve" xmlns:serif="http://www.serif.com/" style="fill-rule:evenodd;clip-rule:evenodd;stroke-linejoin:round;stroke-miterlimit:2;">
    <rect id="Artboard1" x="0" y="0" width="116" height="116" style="fill:none;"/>
    <clipPath id="_clip1">
        <rect id="Artboard11" serif:id="Artboard1" x="0" y="0" width="116" height="116"/>
    </clipPath>
    <g clip-path="url(#_clip1)">
        <g transform="matrix(0.866025,0.5,-0.5,0.866025,31.9449,-54.4116)">
            <path d="M48,147.028L46.252,144L48,144L48,147.028ZM43.942,140L48,140L48,142L45.097,142L43.942,140ZM41.633,136L48,136L48,138L42.788,138L41.633,136ZM40,133.172L40,132L48,132L48,134L40.478,134L40,133.172ZM36,126.244L36,120L38,120L38,129.708L36,126.244ZM30.086,116L38,116L38,118L31.241,118L30.086,116ZM25.467,108L28,108L28,112.387L25.467,108ZM23.158,104L26,104L26,96L28,96L28,106L24.312,106L23.158,104ZM20,98.531L20,96L22,96L22,101.995L20,98.531ZM16,91.603L16,84L18,84L18,94L17.384,94L16,91.603ZM11.611,84L12,84L12,84.674L11.611,84ZM10,81.21L10,72L18,72L18,82L16,82L16,74L12,74L12,82L10.456,82L10,81.21ZM6.992,76L8,76L8,77.746L6.992,76ZM4.682,72L8,72L8,74L5.837,74L4.682,72ZM2.373,68L6,68L6,60L8,60L8,70L3.528,70L2.373,68ZM2,61.674L2,67.354L0,63.89L0,62.829L2,61.674ZM11.828,56L18,56L18,58L10,58L10,57.056L11.828,56ZM18,52.437L18,54L15.292,54L18,52.437ZM22,50.127L22,56L26,56L26,48L28,48L28,58L20,58L20,51.282L22,50.127ZM32,44.354L32,46L30,46L30,45.509L32,44.354ZM38,40.89L38,46L36,46L36,42.044L38,40.89ZM46.469,36L48,36L48,38L43.005,38L46.469,36ZM52,32.807L52,34L50,34L50,33.962L52,32.807ZM58,29.343L58,34L56,34L56,30.497L58,29.343ZM60.326,28L68,28L68,30L60,30L60,28.188L60.326,28ZM67.254,24L68,24L68,26L63.79,26L67.254,24ZM74.182,20L78,20L78,22L70.718,22L74.182,20ZM78,17.796L78,18L77.646,18L78,17.796ZM82,15.486L82,22L80,22L80,16.641L82,15.486ZM84.574,14L86,14L86,22L84,22L84,14.332L84.574,14ZM90,10.868L90,12L88.038,12L90,10.868ZM102,8.559L102,12L92,12L92,10L100,10L100,6L98.431,6L100,5.094L102,8.559ZM106.296,16L104,16L104,14L105.141,14L106.296,16ZM109.76,22L104,22L104,20L108.605,20L109.76,22ZM114,29.344L114,32L112,32L112,25.879L114,29.344ZM117.843,36L116,36L116,34L116.688,34L117.843,36ZM121.307,42L116,42L116,40L120.153,40L121.307,42ZM126,50.128L126,52L124,52L124,46.664L126,50.128ZM130,57.056L130,62L128,62L128,54L128.235,54L130,57.056ZM132.854,62L132,62L132,60.52L132.854,62ZM135.164,66L128,66L128,64L134.009,64L135.164,66ZM138,70.913L138,72L128,72L128,70L136,70L136,67.449L138,70.913ZM142,77.841L142,82L140,82L140,74.377L142,77.841ZM144.401,82L144,82L144,81.305L144.401,82ZM146.711,86L140,86L140,84L145.556,84L146.711,86ZM150,91.697L150,92L140,92L140,90L148,90L148,88.233L150,91.697ZM152.484,96L152,96L152,95.161L152.484,96ZM155.948,102L152,102L152,100L154.794,100L155.948,102ZM156,106.708L156,104L157.103,104L158,105.553L156,106.708ZM152,109.017L152,104L154,104L154,107.862L152,109.017ZM146.834,112L140,112L140,104L150,104L150,106L142,106L142,110L150,110L150,110.172L146.834,112ZM140,115.945L140,114L142,114L142,114.791L140,115.945ZM136,118.255L136,114L138,114L138,117.1L136,118.255ZM132,120.564L132,114L134,114L134,119.409L132,120.564ZM129.513,122L128,122L128,114L130,114L130,121.719L129.513,122ZM124,125.183L124,124L126,124L126,124.028L124,125.183ZM120,127.492L120,124L122,124L122,126.338L120,127.492ZM116,129.802L116,124L118,124L118,128.647L116,129.802ZM112.193,132L112,132L112,124L114,124L114,130.956L112.193,132ZM105.264,136L104,136L104,134L108.728,134L105.264,136ZM100,139.039L100,134L102,134L102,137.885L100,139.039ZM96,141.349L96,134L98,134L98,140.194L96,141.349ZM87.944,146L80,146L80,144L90,144L90,144.813L87.944,146ZM80,150.586L80,150L81.016,150L80,150.586ZM74.087,154L70,154L70,152L77.551,152L74.087,154ZM70,156.36L70,156L70.623,156L70,156.36ZM60,162.133L60,156L68,156L68,157.515L66,158.669L66,158L62,158L62,160.979L60,162.133ZM55.489,160L58,160L58,162L56.644,162L55.489,160ZM53.18,156L58,156L58,158L54.335,158L53.18,156ZM50.87,152L58,152L58,154L52.025,154L50.87,152ZM106,76L106,80L114,80L114,82L104,82L104,74L114,74L114,76L106,76ZM106,36L106,40L114,40L114,42L104,42L104,34L114,34L114,36L106,36ZM58,148L58,150L50,150L50,148L58,148ZM98,62L96,62L96,54L98,54L98,62ZM122,92L120,92L120,84L122,84L122,92ZM98,102L96,102L96,94L98,94L98,102ZM98,22L96,22L96,14L98,14L98,22ZM122,52L120,52L120,44L122,44L122,52ZM146,102L144,102L144,94L146,94L146,102ZM58,52L58,54L50,54L50,52L58,52ZM58,100L58,102L50,102L50,100L58,100ZM108,52L108,44L110,44L110,52L108,52ZM68,124L68,126L60,126L60,124L68,124ZM108,92L108,84L110,84L110,92L108,92ZM18,66L10,66L10,64L18,64L18,66ZM28,76L28,78L20,78L20,76L28,76ZM58,114L50,114L50,112L58,112L58,114ZM68,76L68,78L60,78L60,76L68,76ZM58,66L50,66L50,64L58,64L58,66ZM108,132L108,124L110,124L110,132L108,132ZM122,72L120,72L120,64L122,64L122,72ZM122,112L120,112L120,104L122,104L122,112ZM84,62L84,54L86,54L86,62L84,62ZM132,102L132,94L134,94L134,102L132,102ZM84,142L84,134L86,134L86,142L84,142ZM68,42L60,42L60,40L68,40L68,42ZM28,90L20,90L20,88L28,88L28,90ZM84,102L84,94L86,94L86,102L84,102ZM68,90L60,90L60,88L68,88L68,90ZM68,138L60,138L60,136L68,136L68,138ZM72,38L72,46L70,46L70,36L78,36L78,46L76,46L76,38L72,38ZM58,48L58,50L50,50L50,48L58,48ZM136,106L128,106L128,104L138,104L138,112L128,112L128,110L136,110L136,106ZM32,86L32,94L30,94L30,84L38,84L38,94L36,94L36,86L32,86ZM72,134L72,142L70,142L70,132L78,132L78,142L76,142L76,134L72,134ZM88,106L80,106L80,104L90,104L90,112L80,112L80,110L88,110L88,106ZM72,86L72,94L70,94L70,84L78,84L78,94L76,94L76,86L72,86ZM126,92L124,92L124,84L126,84L126,92ZM88,26L80,26L80,24L90,24L90,32L80,32L80,30L88,30L88,26ZM88,66L80,66L80,64L90,64L90,72L80,72L80,70L88,70L88,66ZM104,52L104,44L106,44L106,52L104,52ZM150,102L148,102L148,94L150,94L150,102ZM28,72L28,74L20,74L20,72L28,72ZM104,92L104,84L106,84L106,92L104,92ZM68,72L68,74L60,74L60,72L68,72ZM102,62L100,62L100,54L102,54L102,62ZM104,132L104,124L106,124L106,132L104,132ZM102,102L100,102L100,94L102,94L102,102ZM102,22L100,22L100,14L102,14L102,22ZM58,96L58,98L50,98L50,96L58,96ZM68,120L68,122L60,122L60,120L68,120ZM58,144L58,146L50,146L50,144L58,144ZM128,102L128,94L130,94L130,102L128,102ZM58,70L50,70L50,68L58,68L58,70ZM80,62L80,54L82,54L82,62L80,62ZM80,102L80,94L82,94L82,102L80,102ZM18,70L10,70L10,68L18,68L18,70ZM80,142L80,134L82,134L82,142L80,142ZM58,118L50,118L50,116L58,116L58,118ZM142,102L140,102L140,94L142,94L142,102ZM68,32L68,34L60,34L60,32L68,32ZM28,80L28,82L20,82L20,80L28,80ZM94,102L92,102L92,94L94,94L94,102ZM68,80L68,82L60,82L60,80L68,80ZM58,104L58,106L50,106L50,104L58,104ZM94,22L92,22L92,14L94,14L94,22ZM94,142L92,142L92,134L94,134L94,142ZM68,128L68,130L60,130L60,128L68,128ZM94,62L92,62L92,54L94,54L94,62ZM112,52L112,44L114,44L114,52L112,52ZM112,92L112,84L114,84L114,92L112,92ZM88,62L88,54L90,54L90,62L88,62ZM68,38L60,38L60,36L68,36L68,38ZM88,142L88,134L90,134L90,142L88,142ZM18,62L10,62L10,60L18,60L18,62ZM136,102L136,94L138,94L138,102L136,102ZM58,110L50,110L50,108L58,108L58,110ZM28,86L20,86L20,84L28,84L28,86ZM68,86L60,86L60,84L68,84L68,86ZM88,102L88,94L90,94L90,102L88,102ZM68,134L60,134L60,132L68,132L68,134ZM58,62L50,62L50,60L58,60L58,62ZM88,22L88,14L90,14L90,22L88,22ZM38,104L38,106L30,106L30,104L38,104ZM94,82L92,82L92,74L94,74L94,82ZM38,56L38,58L30,58L30,56L38,56ZM118,72L116,72L116,64L118,64L118,72ZM118,112L116,112L116,104L118,104L118,112ZM78,104L78,106L70,106L70,104L78,104ZM94,42L92,42L92,34L94,34L94,42ZM94,122L92,122L92,114L94,114L94,122ZM78,56L78,58L70,58L70,56L78,56ZM78,62L70,62L70,60L78,60L78,62ZM88,42L88,34L90,34L90,42L88,42ZM112,72L112,64L114,64L114,72L112,72ZM48,128L48,130L40,130L40,128L48,128ZM38,62L30,62L30,60L38,60L38,62ZM48,80L48,82L40,82L40,80L48,80ZM38,110L30,110L30,108L38,108L38,110ZM78,110L70,110L70,108L78,108L78,110ZM112,112L112,104L114,104L114,112L112,112ZM48,86L40,86L40,84L48,84L48,86ZM136,82L136,74L138,74L138,82L136,82ZM88,82L88,74L90,74L90,82L88,82ZM88,122L88,114L90,114L90,122L88,122ZM124,116L116,116L116,114L126,114L126,122L116,122L116,120L124,120L124,116ZM42,98L42,106L40,106L40,96L48,96L48,106L46,106L46,98L42,98ZM100,126L92,126L92,124L102,124L102,132L92,132L92,130L100,130L100,126ZM42,50L42,58L40,58L40,48L48,48L48,58L46,58L46,50L42,50ZM124,76L116,76L116,74L126,74L126,82L116,82L116,80L124,80L124,76ZM100,46L92,46L92,44L102,44L102,52L92,52L92,50L100,50L100,46ZM100,86L92,86L92,84L102,84L102,92L92,92L92,90L100,90L100,86ZM52,122L52,130L50,130L50,120L58,120L58,130L56,130L56,122L52,122ZM106,116L106,120L114,120L114,122L104,122L104,114L114,114L114,116L106,116ZM52,74L52,82L50,82L50,72L58,72L58,82L56,82L56,74L52,74ZM78,144L78,146L70,146L70,144L78,144ZM28,94L20,94L20,92L28,92L28,94ZM78,48L78,50L70,50L70,48L78,48ZM38,96L38,98L30,98L30,96L38,96ZM68,142L60,142L60,140L68,140L68,142ZM126,112L124,112L124,104L126,104L126,112ZM68,94L60,94L60,92L68,92L68,94ZM68,46L60,46L60,44L68,44L68,46ZM126,72L124,72L124,64L126,64L126,72ZM78,96L78,98L70,98L70,96L78,96ZM38,48L38,50L30,50L30,48L38,48ZM104,112L104,104L106,104L106,112L104,112ZM38,70L30,70L30,68L38,68L38,70ZM104,72L104,64L106,64L106,72L104,72ZM78,70L70,70L70,68L78,68L78,70ZM48,120L48,122L40,122L40,120L48,120ZM102,122L100,122L100,114L102,114L102,122ZM104,32L104,24L106,24L106,32L104,32ZM102,42L100,42L100,34L102,34L102,42ZM48,72L48,74L40,74L40,72L48,72ZM102,82L100,82L100,74L102,74L102,82ZM78,118L70,118L70,116L78,116L78,118ZM80,122L80,114L82,114L82,122L80,122ZM80,82L80,74L82,74L82,82L80,82ZM80,42L80,34L82,34L82,42L80,42ZM48,94L40,94L40,92L48,92L48,94ZM48,46L40,46L40,44L48,44L48,46ZM128,82L128,74L130,74L130,82L128,82ZM82,86L82,90L90,90L90,92L80,92L80,84L90,84L90,86L82,86ZM52,44L56,44L56,36L58,36L58,46L50,46L50,36L52,36L52,44ZM82,46L82,50L90,50L90,52L80,52L80,44L90,44L90,46L82,46ZM82,126L82,130L90,130L90,132L80,132L80,124L90,124L90,126L82,126ZM52,140L56,140L56,132L58,132L58,142L50,142L50,132L52,132L52,140ZM52,92L56,92L56,84L58,84L58,94L50,94L50,84L52,84L52,92ZM42,68L46,68L46,60L48,60L48,70L40,70L40,60L42,60L42,68ZM42,116L46,116L46,108L48,108L48,118L40,118L40,108L42,108L42,116ZM130,86L130,90L138,90L138,92L128,92L128,84L138,84L138,86L130,86ZM72,32L76,32L76,24L78,24L78,34L70,34L70,24L72,24L72,32ZM118,96L118,100L126,100L126,102L116,102L116,94L126,94L126,96L118,96ZM94,66L94,70L102,70L102,72L92,72L92,64L102,64L102,66L94,66ZM94,106L94,110L102,110L102,112L92,112L92,104L102,104L102,106L94,106ZM32,80L36,80L36,72L38,72L38,82L30,82L30,72L32,72L32,80ZM62,152L66,152L66,144L68,144L68,154L60,154L60,144L62,144L62,152ZM94,26L94,30L102,30L102,32L92,32L92,24L102,24L102,26L94,26ZM62,56L66,56L66,48L68,48L68,58L60,58L60,48L62,48L62,56ZM62,104L66,104L66,96L68,96L68,106L60,106L60,96L62,96L62,104ZM118,56L118,60L126,60L126,62L116,62L116,54L126,54L126,56L118,56ZM62,110L62,118L60,118L60,108L68,108L68,118L66,118L66,110L62,110ZM72,80L76,80L76,72L78,72L78,82L70,82L70,72L72,72L72,80ZM112,56L104,56L104,54L114,54L114,62L104,62L104,60L112,60L112,56ZM22,62L22,70L20,70L20,60L28,60L28,70L26,70L26,62L22,62ZM62,62L62,70L60,70L60,60L68,60L68,70L66,70L66,62L62,62ZM112,96L104,96L104,94L114,94L114,102L104,102L104,100L112,100L112,96ZM72,128L76,128L76,120L78,120L78,130L70,130L70,120L72,120L72,128ZM78,148L78,150L70,150L70,148L78,148ZM78,100L78,102L70,102L70,100L78,100ZM98,82L96,82L96,74L98,74L98,82ZM98,122L96,122L96,114L98,114L98,122ZM38,52L38,54L30,54L30,52L38,52ZM78,52L78,54L70,54L70,52L78,52ZM38,100L38,102L30,102L30,100L38,100ZM48,76L48,78L40,78L40,76L48,76ZM98,42L96,42L96,34L98,34L98,42ZM48,124L48,126L40,126L40,124L48,124ZM48,42L40,42L40,40L48,40L48,42ZM78,66L70,66L70,64L78,64L78,66ZM38,114L30,114L30,112L38,112L38,114ZM108,72L108,64L110,64L110,72L108,72ZM38,66L30,66L30,64L38,64L38,66ZM78,114L70,114L70,112L78,112L78,114ZM84,42L84,34L86,34L86,42L84,42ZM84,82L84,74L86,74L86,82L84,82ZM84,122L84,114L86,114L86,122L84,122ZM108,32L108,24L110,24L110,32L108,32ZM108,112L108,104L110,104L110,112L108,112ZM132,82L132,74L134,74L134,82L132,82ZM118,52L116,52L116,44L118,44L118,52ZM58,56L58,58L50,58L50,56L58,56ZM118,92L116,92L116,84L118,84L118,92ZM48,90L40,90L40,88L48,88L48,90Z"/>
        </g>
    </g>
</svg>
