<?xml version="1.0" encoding="UTF-8" standalone="no"?>
<!DOCTYPE svg PUBLIC "-//W3C//DTD SVG 1.1//EN" "http://www.w3.org/Graphics/SVG/1.1/DTD/svg11.dtd">
<svg width="100%" height="100%" viewBox="0 0 116 116" version="1.1" xmlns="http://www.w3.org/2000/svg" xmlns:xlink="http://www.w3.org/1999/xlink" xml:space="preserve" xmlns:serif="http://www.serif.com/" style="fill-rule:evenodd;clip-rule:evenodd;stroke-linejoin:round;stroke-miterlimit:2;">
    <g transform="matrix(1,0,0,1,-163,-8)">
        <g id="Artboard2" transform="matrix(1,0,0,1,-3,8)">
            <rect x="166" y="0" width="116" height="116" style="fill:none;"/>
            <clipPath id="_clip1">
                <rect x="166" y="0" width="116" height="116"/>
            </clipPath>
            <g clip-path="url(#_clip1)">
                <g transform="matrix(1,0,0,1,-1.7053e-13,2)">
                    <path d="M200,56C200,48.106 203.819,41.097 209.71,36.722C211.303,38.085 213.093,39.224 215.031,40.092L215.025,40.112L215.052,40.101C215.999,40.524 216.981,40.881 217.992,41.168C212.135,43.546 208,49.294 208,56C208,64.831 215.169,72 224,72C235.038,72 244,80.962 244,92C244,103.038 235.038,112 224,112C212.962,112 204,103.038 204,92C204,86.468 206.251,81.457 209.887,77.835C210.456,78.203 211.04,78.551 211.639,78.875L210.132,80.14L215.001,81.275L214.952,80.38C216.064,80.793 217.211,81.132 218.389,81.392C214.59,83.407 212,87.403 212,92C212,98.623 217.377,104 224,104C230.623,104 236,98.623 236,92C236,85.377 230.623,80 224,80C210.754,80 200,69.246 200,56ZM204.947,67L209.912,67.598L206.912,62.402L204.947,67ZM232.999,102.725L233.272,107.717L237.868,103.86L232.999,102.725ZM236.124,85L241.088,85.598L238.088,80.402L236.124,85ZM232.999,81.275L237.868,80.14L233.272,76.283L232.999,81.275ZM209.859,72.853L214.728,71.717L210.132,67.86L209.859,72.853ZM237.787,94.431L241.206,98.08L242.247,92.171L237.787,94.431ZM216.476,76.673L220.663,73.941L215.025,71.888L216.476,76.673ZM202.334,59.82L206.794,62.08L205.753,56.171L202.334,59.82ZM210.213,89.569L206.794,85.92L205.753,91.829L210.213,89.569ZM215.001,102.725L210.132,103.86L214.728,107.717L215.001,102.725ZM237.787,89.569L242.247,91.829L241.206,85.92L237.787,89.569ZM211.876,85L209.912,80.402L206.912,85.598L211.876,85ZM224,78L227,74L221,74L224,78ZM228.788,105.156L227.337,109.941L232.975,107.888L228.788,105.156ZM210.213,94.431L205.753,92.171L206.794,98.08L210.213,94.431ZM228.788,78.844L232.975,76.112L227.337,74.059L228.788,78.844ZM211.876,99L206.912,98.402L209.912,103.598L211.876,99ZM224,106L221,110L227,110L224,106ZM219.212,105.156L215.025,107.888L220.663,109.941L219.212,105.156ZM236.124,99L238.088,103.598L241.088,98.402L236.124,99ZM202.334,52.18L205.753,55.829L206.794,49.92L202.334,52.18ZM204.947,45L206.912,49.598L209.912,44.402L204.947,45ZM209.859,39.147L210.132,44.14L214.728,40.283L209.859,39.147ZM240,56C240,47.169 232.831,40 224,40C212.962,40 204,31.038 204,20C204,8.962 212.962,0 224,0C235.038,0 244,8.962 244,20C244,25.532 241.749,30.543 238.113,34.165C237.544,33.797 236.96,33.449 236.361,33.125L237.868,31.86L232.999,30.725L233.048,31.62C231.936,31.207 230.789,30.868 229.611,30.608C233.41,28.593 236,24.597 236,20C236,13.377 230.623,8 224,8C217.377,8 212,13.377 212,20C212,26.623 217.377,32 224,32C237.246,32 248,42.754 248,56C248,63.894 244.181,70.903 238.29,75.278C236.697,73.915 234.907,72.776 232.969,71.908L232.975,71.888L232.948,71.899C232.001,71.476 231.019,71.119 230.008,70.832C235.865,68.454 240,62.706 240,56ZM243.053,67L241.088,62.402L238.088,67.598L243.053,67ZM238.141,72.853L237.868,67.86L233.272,71.717L238.141,72.853ZM245.666,59.82L242.247,56.171L241.206,62.08L245.666,59.82ZM236.124,13L241.088,13.598L238.088,8.402L236.124,13ZM224,6L227,2L221,2L224,6ZM219.212,6.844L220.663,2.059L215.025,4.112L219.212,6.844ZM236.124,27L238.088,31.598L241.088,26.402L236.124,27ZM231.524,35.327L227.337,38.059L232.975,40.112L231.524,35.327ZM232.999,9.275L237.868,8.14L233.272,4.283L232.999,9.275ZM245.666,52.18L241.206,49.92L242.247,55.829L245.666,52.18ZM237.787,22.431L241.206,26.08L242.247,20.171L237.787,22.431ZM224,34L221,38L227,38L224,34ZM215.001,9.275L214.728,4.283L210.132,8.14L215.001,9.275ZM210.213,22.431L205.753,20.171L206.794,26.08L210.213,22.431ZM210.213,17.569L206.794,13.92L205.753,19.829L210.213,17.569ZM228.788,6.844L232.975,4.112L227.337,2.059L228.788,6.844ZM211.876,27L206.912,26.402L209.912,31.598L211.876,27ZM237.787,17.569L242.247,19.829L241.206,13.92L237.787,17.569ZM238.141,39.147L233.272,40.283L237.868,44.14L238.141,39.147ZM243.053,45L238.088,44.402L241.088,49.598L243.053,45ZM211.876,13L209.912,8.402L206.912,13.598L211.876,13ZM219.212,33.156L215.025,35.888L220.663,37.941L219.212,33.156ZM215.001,30.725L210.132,31.86L214.728,35.717L215.001,30.725Z"/>
                </g>
                <g transform="matrix(1,0,0,1,0,2)">
                    <path d="M224,44C230.623,44 236,49.377 236,56C236,62.623 230.623,68 224,68C217.377,68 212,62.623 212,56C212,49.377 217.377,44 224,44ZM231.778,48.222C231.388,47.832 230.754,47.832 230.364,48.222C229.974,48.612 229.974,49.246 230.364,49.636C230.754,50.026 231.388,50.026 231.778,49.636C232.168,49.246 232.168,48.612 231.778,48.222ZM215,54C213.896,54 213,54.896 213,56C213,57.104 213.896,58 215,58C216.104,58 217,57.104 217,56C217,54.896 216.104,54 215,54ZM216.222,63.778C216.612,64.168 217.246,64.168 217.636,63.778C218.026,63.388 218.026,62.754 217.636,62.364C217.246,61.974 216.612,61.974 216.222,62.364C215.832,62.754 215.832,63.388 216.222,63.778ZM216.222,48.222C215.832,48.612 215.832,49.246 216.222,49.636C216.612,50.026 217.246,50.026 217.636,49.636C218.026,49.246 218.026,48.612 217.636,48.222C217.246,47.832 216.612,47.832 216.222,48.222ZM231.778,63.778C232.168,63.388 232.168,62.754 231.778,62.364C231.388,61.974 230.754,61.974 230.364,62.364C229.974,62.754 229.974,63.388 230.364,63.778C230.754,64.168 231.388,64.168 231.778,63.778ZM224,56L220.714,45.455L218.867,46.22L224,56ZM224,56L229.133,46.22L227.286,45.455L224,56ZM224,56L214.22,50.867L213.455,52.714L224,56ZM224,56L234.545,52.714L233.78,50.867L224,56ZM224,56L213.455,59.286L214.22,61.133L224,56ZM224,56L233.78,61.133L234.545,59.286L224,56ZM224,56L227.286,66.545L229.133,65.78L224,56ZM224,56L218.867,65.78L220.714,66.545L224,56ZM224,63C222.896,63 222,63.896 222,65C222,66.104 222.896,67 224,67C225.104,67 226,66.104 226,65C226,63.896 225.104,63 224,63ZM233,54C231.896,54 231,54.896 231,56C231,57.104 231.896,58 233,58C234.104,58 235,57.104 235,56C235,54.896 234.104,54 233,54ZM224,45C222.896,45 222,45.896 222,47C222,48.104 222.896,49 224,49C225.104,49 226,48.104 226,47C226,45.896 225.104,45 224,45Z"/>
                </g>
                <g transform="matrix(1,0,0,1,3,-8)">
                    <path d="M163,48L163,8L203,8L203,18L202.998,18C186.431,18 173,31.431 173,47.998L173,48L163,48ZM165,46L171.062,46C171.103,45.328 171.166,44.661 171.248,44C173.138,28.873 185.603,17.013 201,16.062L201,10L169,10C166.792,10 165,11.792 165,14L165,46ZM199,12L199,14.233C183.429,16.061 171.061,28.429 169.233,44L167,44L165.329,15.59C165.439,15.844 165.575,16.085 165.734,16.308L168.301,38.384C168.844,36.424 169.548,34.531 170.399,32.721L166.734,17.296C166.904,17.413 167.085,17.518 167.273,17.608L171.27,30.989C171.772,30.056 172.313,29.148 172.892,28.267L168.439,17.961C168.623,17.987 168.81,18 169,18L169.012,18L173.624,27.196C174.086,26.546 174.568,25.911 175.071,25.294L170.156,17.83C170.335,17.776 170.508,17.71 170.675,17.633L175.761,24.472C176.223,23.937 176.701,23.416 177.194,22.91L171.627,17.016C171.765,16.895 171.895,16.765 172.016,16.627L177.91,22.194C178.416,21.701 178.937,21.223 179.472,20.761L172.633,15.675C172.71,15.508 172.776,15.335 172.83,15.156L180.294,20.071C180.911,19.568 181.546,19.086 182.196,18.624L173,14.012L173,14C173,13.81 172.987,13.623 172.961,13.439L183.267,17.892C184.148,17.313 185.056,16.772 185.989,16.27L172.608,12.273C172.518,12.085 172.413,11.904 172.296,11.734L187.721,15.399C189.531,14.548 191.424,13.844 193.384,13.301L171.308,10.734C171.085,10.575 170.844,10.439 170.59,10.329L199,12ZM169,12C170.104,12 171,12.896 171,14C171,15.104 170.104,16 169,16C167.896,16 167,15.104 167,14C167,12.896 167.896,12 169,12Z"/>
                </g>
                <g transform="matrix(-1,0,0,1,445,-8)">
                    <path d="M163,48L163,8L203,8L203,18L202.998,18C186.431,18 173,31.431 173,47.998L173,48L163,48ZM165,46L171.062,46C171.103,45.328 171.166,44.661 171.248,44C173.138,28.873 185.603,17.013 201,16.062L201,10L169,10C166.792,10 165,11.792 165,14L165,46ZM199,12L199,14.233C183.429,16.061 171.061,28.429 169.233,44L167,44L165.329,15.59C165.439,15.844 165.575,16.085 165.734,16.308L168.301,38.384C168.844,36.424 169.548,34.531 170.399,32.721L166.734,17.296C166.904,17.413 167.085,17.518 167.273,17.608L171.27,30.989C171.772,30.056 172.313,29.148 172.892,28.267L168.439,17.961C168.623,17.987 168.81,18 169,18L169.012,18L173.624,27.196C174.086,26.546 174.568,25.911 175.071,25.294L170.156,17.83C170.335,17.776 170.508,17.71 170.675,17.633L175.761,24.472C176.223,23.937 176.701,23.416 177.194,22.91L171.627,17.016C171.765,16.895 171.895,16.765 172.016,16.627L177.91,22.194C178.416,21.701 178.937,21.223 179.472,20.761L172.633,15.675C172.71,15.508 172.776,15.335 172.83,15.156L180.294,20.071C180.911,19.568 181.546,19.086 182.196,18.624L173,14.012L173,14C173,13.81 172.987,13.623 172.961,13.439L183.267,17.892C184.148,17.313 185.056,16.772 185.989,16.27L172.608,12.273C172.518,12.085 172.413,11.904 172.296,11.734L187.721,15.399C189.531,14.548 191.424,13.844 193.384,13.301L171.308,10.734C171.085,10.575 170.844,10.439 170.59,10.329L199,12ZM169,12C170.104,12 171,12.896 171,14C171,15.104 170.104,16 169,16C167.896,16 167,15.104 167,14C167,12.896 167.896,12 169,12Z"/>
                </g>
                <g transform="matrix(1,0,0,-1,3,124)">
                    <path d="M163,48L163,8L203,8L203,18L202.998,18C186.431,18 173,31.431 173,47.998L173,48L163,48ZM165,46L171.062,46C171.103,45.328 171.166,44.661 171.248,44C173.138,28.873 185.603,17.013 201,16.062L201,10L169,10C166.792,10 165,11.792 165,14L165,46ZM199,12L199,14.233C183.429,16.061 171.061,28.429 169.233,44L167,44L165.329,15.59C165.439,15.844 165.575,16.085 165.734,16.308L168.301,38.384C168.844,36.424 169.548,34.531 170.399,32.721L166.734,17.296C166.904,17.413 167.085,17.518 167.273,17.608L171.27,30.989C171.772,30.056 172.313,29.148 172.892,28.267L168.439,17.961C168.623,17.987 168.81,18 169,18L169.012,18L173.624,27.196C174.086,26.546 174.568,25.911 175.071,25.294L170.156,17.83C170.335,17.776 170.508,17.71 170.675,17.633L175.761,24.472C176.223,23.937 176.701,23.416 177.194,22.91L171.627,17.016C171.765,16.895 171.895,16.765 172.016,16.627L177.91,22.194C178.416,21.701 178.937,21.223 179.472,20.761L172.633,15.675C172.71,15.508 172.776,15.335 172.83,15.156L180.294,20.071C180.911,19.568 181.546,19.086 182.196,18.624L173,14.012L173,14C173,13.81 172.987,13.623 172.961,13.439L183.267,17.892C184.148,17.313 185.056,16.772 185.989,16.27L172.608,12.273C172.518,12.085 172.413,11.904 172.296,11.734L187.721,15.399C189.531,14.548 191.424,13.844 193.384,13.301L171.308,10.734C171.085,10.575 170.844,10.439 170.59,10.329L199,12ZM169,12C170.104,12 171,12.896 171,14C171,15.104 170.104,16 169,16C167.896,16 167,15.104 167,14C167,12.896 167.896,12 169,12Z"/>
                </g>
                <g transform="matrix(-1,0,0,-1,445,124)">
                    <path d="M163,48L163,8L203,8L203,18L202.998,18C186.431,18 173,31.431 173,47.998L173,48L163,48ZM165,46L171.062,46C171.103,45.328 171.166,44.661 171.248,44C173.138,28.873 185.603,17.013 201,16.062L201,10L169,10C166.792,10 165,11.792 165,14L165,46ZM199,12L199,14.233C183.429,16.061 171.061,28.429 169.233,44L167,44L165.329,15.59C165.439,15.844 165.575,16.085 165.734,16.308L168.301,38.384C168.844,36.424 169.548,34.531 170.399,32.721L166.734,17.296C166.904,17.413 167.085,17.518 167.273,17.608L171.27,30.989C171.772,30.056 172.313,29.148 172.892,28.267L168.439,17.961C168.623,17.987 168.81,18 169,18L169.012,18L173.624,27.196C174.086,26.546 174.568,25.911 175.071,25.294L170.156,17.83C170.335,17.776 170.508,17.71 170.675,17.633L175.761,24.472C176.223,23.937 176.701,23.416 177.194,22.91L171.627,17.016C171.765,16.895 171.895,16.765 172.016,16.627L177.91,22.194C178.416,21.701 178.937,21.223 179.472,20.761L172.633,15.675C172.71,15.508 172.776,15.335 172.83,15.156L180.294,20.071C180.911,19.568 181.546,19.086 182.196,18.624L173,14.012L173,14C173,13.81 172.987,13.623 172.961,13.439L183.267,17.892C184.148,17.313 185.056,16.772 185.989,16.27L172.608,12.273C172.518,12.085 172.413,11.904 172.296,11.734L187.721,15.399C189.531,14.548 191.424,13.844 193.384,13.301L171.308,10.734C171.085,10.575 170.844,10.439 170.59,10.329L199,12ZM169,12C170.104,12 171,12.896 171,14C171,15.104 170.104,16 169,16C167.896,16 167,15.104 167,14C167,12.896 167.896,12 169,12Z"/>
                </g>
                <g transform="matrix(0.952381,0,0,2.37037,10.7619,-76.5185)">
                    <path d="M163,51.069L163,50L171.87,50L163,51.069ZM173.5,50.618L173.5,51.491L163,52.757L163,51.884L173.5,50.618ZM173.5,52.306L173.5,53.179L163,54.444L163,53.571L173.5,52.306ZM173.5,53.993L173.5,54.866L163,56.132L163,55.259L173.5,53.993ZM173.5,55.681L173.5,56.554L163,57.819L163,56.946L173.5,55.681ZM173.5,57.368L173.5,58.241L163,59.507L163,58.634L173.5,57.368ZM173.5,59.056L173.5,59.929L163,61.194L163,60.321L173.5,59.056ZM173.5,60.743L173.5,61.616L163,62.882L163,62.009L173.5,60.743ZM173.5,62.431L173.5,63.5L164.63,63.5L173.5,62.431Z"/>
                </g>
                <g transform="matrix(0.952381,0,0,2.37037,10.7619,-76.5185)">
                    <path d="M163,51.069L163,50L171.87,50L163,51.069ZM173.5,50.618L173.5,51.491L163,52.757L163,51.884L173.5,50.618ZM173.5,52.306L173.5,53.179L163,54.444L163,53.571L173.5,52.306ZM173.5,53.993L173.5,54.866L163,56.132L163,55.259L173.5,53.993ZM173.5,55.681L173.5,56.554L163,57.819L163,56.946L173.5,55.681ZM173.5,57.368L173.5,58.241L163,59.507L163,58.634L173.5,57.368ZM173.5,59.056L173.5,59.929L163,61.194L163,60.321L173.5,59.056ZM173.5,60.743L173.5,61.616L163,62.882L163,62.009L173.5,60.743ZM173.5,62.431L173.5,63.5L164.63,63.5L173.5,62.431Z"/>
                </g>
                <g transform="matrix(-0.952381,0,0,2.37037,349.238,-76.5185)">
                    <path d="M165.318,38.977C164.566,38.799 163.793,38.634 163,38.482L163,39.257L165.318,38.977ZM169.461,40.165C168.815,39.944 168.144,39.734 167.452,39.535L163,40.071L163,40.944L169.461,40.165ZM172.701,41.462C172.197,41.227 171.67,40.999 171.122,40.78L163,41.759L163,42.632L172.701,41.462ZM173.257,71.77C173.339,71.73 173.42,71.689 173.5,71.648L173.5,70.868L163,72.134L163,73.007L173.257,71.77ZM166.174,74.312C167.786,73.899 169.291,73.424 170.669,72.897L163,73.821L163,74.694L166.174,74.312ZM173.5,60.743L163,62.009L163,62.882L173.5,61.616L173.5,60.743ZM163,61.194L173.5,59.929L173.5,59.056L163,60.321L163,61.194ZM173.5,52.306L163,53.571L163,54.444L173.5,53.179L173.5,52.306ZM163,52.757L173.5,51.491L173.5,50.618L163,51.884L163,52.757ZM173.5,43.868L163,45.134L163,46.007L173.5,44.741L173.5,43.868ZM163,44.319L173.5,43.054L173.5,42.181L163,43.446L163,44.319ZM173.5,69.181L163,70.446L163,71.319L173.5,70.054L173.5,69.181ZM163,69.632L173.5,68.366L173.5,67.493L163,68.759L163,69.632ZM173.5,53.993L163,55.259L163,56.132L173.5,54.866L173.5,53.993ZM173.5,55.681L163,56.946L163,57.819L173.5,56.554L173.5,55.681ZM173.5,57.368L163,58.634L163,59.507L173.5,58.241L173.5,57.368ZM173.5,45.556L163,46.821L163,47.694L173.5,46.429L173.5,45.556ZM173.5,47.243L163,48.509L163,49.382L173.5,48.116L173.5,47.243ZM173.5,48.931L163,50.196L163,51.069L173.5,49.804L173.5,48.931ZM173.5,62.431L163,63.696L163,64.569L173.5,63.304L173.5,62.431ZM173.5,64.118L163,65.384L163,66.257L173.5,64.991L173.5,64.118ZM173.5,65.806L163,67.071L163,67.944L173.5,66.679L173.5,65.806Z"/>
                </g>
                <g transform="matrix(0.952381,0,0,2.37037,98.7619,-76.5185)">
                    <path d="M165.318,38.977C164.566,38.799 163.793,38.634 163,38.482L163,39.257L165.318,38.977ZM169.461,40.165C168.815,39.944 168.144,39.734 167.452,39.535L163,40.071L163,40.944L169.461,40.165ZM172.701,41.462C172.197,41.227 171.67,40.999 171.122,40.78L163,41.759L163,42.632L172.701,41.462ZM173.257,71.77C173.339,71.73 173.42,71.689 173.5,71.648L173.5,70.868L163,72.134L163,73.007L173.257,71.77ZM166.174,74.312C167.786,73.899 169.291,73.424 170.669,72.897L163,73.821L163,74.694L166.174,74.312ZM173.5,60.743L163,62.009L163,62.882L173.5,61.616L173.5,60.743ZM163,61.194L173.5,59.929L173.5,59.056L163,60.321L163,61.194ZM173.5,52.306L163,53.571L163,54.444L173.5,53.179L173.5,52.306ZM163,52.757L173.5,51.491L173.5,50.618L163,51.884L163,52.757ZM173.5,43.868L163,45.134L163,46.007L173.5,44.741L173.5,43.868ZM163,44.319L173.5,43.054L173.5,42.181L163,43.446L163,44.319ZM173.5,69.181L163,70.446L163,71.319L173.5,70.054L173.5,69.181ZM163,69.632L173.5,68.366L173.5,67.493L163,68.759L163,69.632ZM173.5,53.993L163,55.259L163,56.132L173.5,54.866L173.5,53.993ZM173.5,55.681L163,56.946L163,57.819L173.5,56.554L173.5,55.681ZM173.5,57.368L163,58.634L163,59.507L173.5,58.241L173.5,57.368ZM173.5,45.556L163,46.821L163,47.694L173.5,46.429L173.5,45.556ZM173.5,47.243L163,48.509L163,49.382L173.5,48.116L173.5,47.243ZM173.5,48.931L163,50.196L163,51.069L173.5,49.804L173.5,48.931ZM173.5,62.431L163,63.696L163,64.569L173.5,63.304L173.5,62.431ZM173.5,64.118L163,65.384L163,66.257L173.5,64.991L173.5,64.118ZM173.5,65.806L163,67.071L163,67.944L173.5,66.679L173.5,65.806Z"/>
                </g>
                <g transform="matrix(-0.952381,0,0,2.37037,437.238,-76.5185)">
                    <path d="M163,51.069L163,50L171.87,50L163,51.069ZM173.5,50.618L173.5,51.491L163,52.757L163,51.884L173.5,50.618ZM173.5,52.306L173.5,53.179L163,54.444L163,53.571L173.5,52.306ZM173.5,53.993L173.5,54.866L163,56.132L163,55.259L173.5,53.993ZM173.5,55.681L173.5,56.554L163,57.819L163,56.946L173.5,55.681ZM173.5,57.368L173.5,58.241L163,59.507L163,58.634L173.5,57.368ZM173.5,59.056L173.5,59.929L163,61.194L163,60.321L173.5,59.056ZM173.5,60.743L173.5,61.616L163,62.882L163,62.009L173.5,60.743ZM173.5,62.431L173.5,63.5L164.63,63.5L173.5,62.431Z"/>
                </g>
                <g transform="matrix(1,0,0,-1,3,124)">
                    <path d="M219.615,30.574L211.2,32L211.2,28L219.615,29.426L212.656,24.485L215.485,21.656L220.426,28.615L219,20.2L223,20.2L221.574,28.615L226.515,21.656L229.344,24.485L222.385,29.426L230.8,28L230.8,32L222.385,30.574L229.344,35.515L226.515,38.344L221.574,31.385L223,39.8L219,39.8L220.426,31.385L215.485,38.344L212.656,35.515L219.615,30.574Z"/>
                </g>
                <g transform="matrix(1,0,0,-1,3,44.2004)">
                    <path d="M219.821,25.046L214.071,29.13L218.154,23.379L211.2,22.2L218.154,21.022L214.071,15.271L219.821,19.355L221,12.401L222.179,19.355L227.929,15.271L223.846,21.022L230.8,22.2L223.846,23.379L227.929,29.13L222.179,25.046L221,32L219.821,25.046Z"/>
                </g>
            </g>
        </g>
    </g>
</svg>
