<svg xml:space="preserve" xmlns:xlink="http://www.w3.org/1999/xlink" xmlns="http://www.w3.org/2000/svg" viewBox="0 0 256 256">
  <defs>
    <linearGradient id="c">
      <stop style="stop-color:#7c6740;stop-opacity:1" offset="0"/>
      <stop style="stop-color:#a57963;stop-opacity:1" offset="1"/>
    </linearGradient>
    <linearGradient id="b">
      <stop style="stop-color:#2e74df;stop-opacity:1" offset="0"/>
      <stop style="stop-color:#5a9cff;stop-opacity:1" offset="1"/>
    </linearGradient>
    <linearGradient id="a">
      <stop style="stop-color:#3ec13e;stop-opacity:1" offset="0"/>
      <stop style="stop-color:#e0d376;stop-opacity:1" offset="1"/>
    </linearGradient>
    <linearGradient xlink:href="#a" id="e" x1="1959.631" y1="28.631" x2="2080.109" y2="154.182" gradientUnits="userSpaceOnUse"/>
    <linearGradient xlink:href="#b" id="f" x1="2137.912" y1="219.565" x2="2163" y2="219.565" gradientUnits="userSpaceOnUse"/>
    <linearGradient xlink:href="#c" id="d" x1="1955" y1="216.152" x2="1979.886" y2="216.152" gradientUnits="userSpaceOnUse"/>
  </defs>
  <g style="display:inline;fill:none;stroke:#dee4da;stroke-width:.5;stroke-dasharray:none;stroke-opacity:1" transform="translate(-1931)">
    <rect ry="15.848" rx="15.848" y="24" x="1955" height="208" width="208" style="display:inline;opacity:1;fill:url(#d);fill-opacity:1;stroke:none;stroke-width:.989998;stroke-linecap:butt;stroke-linejoin:miter;stroke-miterlimit:4;stroke-dasharray:none;stroke-dashoffset:0;stroke-opacity:1;marker:none;marker-start:none;marker-mid:none;marker-end:none;paint-order:normal;enable-background:new"/>
    <rect ry="15.848" rx="15.848" y="24" x="1955" height="180" width="208" style="display:inline;opacity:1;fill:url(#e);fill-opacity:1;stroke:none;stroke-width:.989998;stroke-linecap:butt;stroke-linejoin:miter;stroke-miterlimit:4;stroke-dasharray:none;stroke-dashoffset:0;stroke-opacity:1;marker:none;marker-start:none;marker-mid:none;marker-end:none;paint-order:normal;enable-background:new"/>
    <path style="display:inline;opacity:1;fill:url(#f);fill-opacity:1;stroke:none;stroke-width:.989998;stroke-linecap:butt;stroke-linejoin:miter;stroke-miterlimit:4;stroke-dasharray:none;stroke-dashoffset:0;stroke-opacity:1;marker:none;marker-start:none;marker-mid:none;marker-end:none;paint-order:normal;enable-background:new" d="M2163 96.895 2011 204v28h136.152c8.78 0 15.848-7.068 15.848-15.848z"/>
    <path style="display:inline;opacity:1;fill:#54a0f5;fill-opacity:1;stroke:none;stroke-width:.989998;stroke-linecap:butt;stroke-linejoin:miter;stroke-miterlimit:4;stroke-dasharray:none;stroke-dashoffset:0;stroke-opacity:1;marker:none;marker-start:none;marker-mid:none;marker-end:none;paint-order:normal;enable-background:new" d="M2163 96.895 2011 204h136.152c8.78 0 15.848-7.068 15.848-15.848z"/>
    <path style="opacity:1;fill:#00f090;fill-opacity:.344834;stroke:none;paint-order:markers stroke fill" d="M2011 204h26.706L2163 115.711V96.895Z" stroke="none"/>
    <path style="opacity:1;fill:#006eb8;fill-opacity:.45625;stroke:none;paint-order:markers stroke fill" d="M2011 204v28l75.556-28z" stroke="none"/>
    <path style="opacity:1;fill:#fff;fill-opacity:.176323;stroke:none;paint-order:markers stroke fill" d="M1970.848 24A15.813 15.813 0 0 0 1955 39.848v156.79a17.447 17.447 0 0 0 15.494 9.362h177.012c6.75 0 12.574-3.79 15.494-9.361V39.848c0-8.78-7.068-15.848-15.848-15.848Zm.558 2h175.188A14.374 14.374 0 0 1 2161 40.406v147.188A14.374 14.374 0 0 1 2146.594 202h-175.188A14.374 14.374 0 0 1 1957 187.594V40.406A14.374 14.374 0 0 1 1971.406 26Z" stroke="none"/>
    <g stroke="none">
      <path style="opacity:1;fill:#162d50;fill-opacity:.389339;stroke:none;paint-order:markers stroke fill" d="m2044.213 134.667 22.798.702a1.136 1.136 108.736 0 0 .697-2.057l-15.993-11.496z" transform="translate(59.81 -39.45)"/>
      <path style="opacity:1;fill:#162d50;fill-opacity:.389339;stroke:none;paint-order:markers stroke fill" d="m2044.213 134.667 22.798.702a1.136 1.136 108.736 0 0 .697-2.057l-15.993-11.496z" transform="translate(84.606 -57.024)"/>
      <path style="opacity:1;fill:#a8f3a0;fill-opacity:1;stroke:none;paint-order:markers stroke fill" d="m2049.224 53.155 19.31 14.047a10.778 10.778 49.8 0 1 3.31 3.918l10.135 20.387a.55.55 139.784 0 1-.817.69l-19.283-14.01a10.767 10.767 49.78 0 1-3.312-3.917l-10.158-20.426a.55.55 139.796 0 1 .815-.689z" transform="translate(71.574 -15.16)"/>
      <path style="opacity:1;fill:#c8422a;fill-opacity:1;stroke:none;paint-order:markers stroke fill" d="m2036.332 90.497 10.108-35.174a2.529 2.529 161.017 0 1 3.916-1.347l17.554 12.754a4.875 4.875 71.017 0 1 1.82 5.29l-10.108 35.174a2.529 2.529 161.017 0 1-3.916 1.348l-17.554-12.754a4.875 4.875 71.017 0 1-1.82-5.291z" transform="translate(71.574 -15.16)"/>
      <path style="opacity:1;fill:#a8f3a0;fill-opacity:1;stroke:none;paint-order:markers stroke fill" d="m2049.224 53.155 19.31 14.047a10.778 10.778 49.8 0 1 3.31 3.918l10.135 20.387a.55.55 139.784 0 1-.817.69l-19.283-14.01a10.767 10.767 49.78 0 1-3.312-3.917l-10.158-20.426a.55.55 139.796 0 1 .815-.689z" transform="translate(46.904 2.417)"/>
      <path style="opacity:1;fill:#dc5337;fill-opacity:1;stroke:none;paint-order:markers stroke fill" d="m2036.332 90.497 10.108-35.174a2.529 2.529 161.017 0 1 3.916-1.347l17.554 12.754a4.875 4.875 71.017 0 1 1.82 5.29l-10.108 35.174a2.529 2.529 161.017 0 1-3.916 1.348l-17.554-12.754a4.875 4.875 71.017 0 1-1.82-5.291z" transform="translate(46.904 2.417)"/>
      <path style="opacity:1;fill:#162d50;fill-opacity:.389339;stroke:none;paint-order:markers stroke fill" d="m2056.263 112.504-31.162 22.374a4.816 4.816 179.545 0 1-5.556.044l-16.938-11.76a2.53 2.53 88.816 0 1-.085-4.094l1.928-1.46-16.097-15.818a1.509 1.509 113.25 0 1 1.11-2.584l39.204 1.371 3.843-2.718z" transform="translate(59.128 -39.791)"/>
      <path style="opacity:1;fill:#d5d5e2;fill-opacity:1;stroke:none;paint-order:markers stroke fill" d="m2032.59 99.009 17.609 12.794a6.673 6.673.441 0 0 7.76.06l29.65-20.852a2.178 2.178 90.441 0 0 .026-3.544l-17.61-12.794a6.673 6.673.441 0 0-7.76-.06l-29.649 20.852a2.178 2.178 90.441 0 0-.027 3.544z" transform="translate(59.163 -39.908)"/>
      <path style="opacity:1;fill:#500;fill-opacity:.6368;stroke:none;paint-order:markers stroke fill" d="m2044.213 134.667 22.798.702a1.136 1.136 108.736 0 0 .697-2.057l-15.993-11.496z" transform="translate(72.275 -81.833)"/>
      <path style="opacity:1;fill:#d2705a;fill-opacity:1;stroke:none;paint-order:markers stroke fill" d="m2049.224 53.155 19.31 14.047a10.778 10.778 49.8 0 1 3.31 3.918l10.135 20.387a.55.55 139.784 0 1-.817.69l-19.283-14.01a10.767 10.767 49.78 0 1-3.312-3.917l-10.158-20.426a.55.55 139.796 0 1 .815-.689z" transform="translate(59.163 -39.908)"/>
      <path style="opacity:1;fill:#a2a2c8;fill-opacity:1;stroke:none;paint-order:markers stroke fill" d="m2036.332 90.497 10.108-35.174a2.529 2.529 161.017 0 1 3.916-1.347l17.554 12.754a4.875 4.875 71.017 0 1 1.82 5.29l-10.108 35.174a2.529 2.529 161.017 0 1-3.916 1.348l-17.554-12.754a4.875 4.875 71.017 0 1-1.82-5.291z" transform="translate(59.163 -39.908)"/>
    </g>
    <g stroke="none">
      <path style="opacity:1;fill:#162d50;fill-opacity:.385482;stroke:none;paint-order:markers stroke fill" d="m2044.213 134.667 22.798.702a1.136 1.136 108.736 0 0 .697-2.057l-15.993-11.496z" transform="translate(.681 2.34)"/>
      <path style="opacity:1;fill:#162d50;fill-opacity:.385482;stroke:none;paint-order:markers stroke fill" d="m2044.213 134.667 22.798.702a1.136 1.136 108.736 0 0 .697-2.057l-15.993-11.496z" transform="translate(25.477 -15.233)"/>
      <path style="opacity:1;fill:#a8f3a0;fill-opacity:1;stroke:none;paint-order:markers stroke fill" d="m2049.224 53.155 19.31 14.047a10.778 10.778 49.8 0 1 3.31 3.918l10.135 20.387a.55.55 139.784 0 1-.817.69l-19.283-14.01a10.767 10.767 49.78 0 1-3.312-3.917l-10.158-20.426a.55.55 139.796 0 1 .815-.689z" transform="translate(12.446 26.631)"/>
      <path style="opacity:1;fill:#c8422a;fill-opacity:1;stroke:none;paint-order:markers stroke fill" d="m2036.332 90.497 10.108-35.174a2.529 2.529 161.017 0 1 3.916-1.347l17.554 12.754a4.875 4.875 71.017 0 1 1.82 5.29l-10.108 35.174a2.529 2.529 161.017 0 1-3.916 1.348l-17.554-12.754a4.875 4.875 71.017 0 1-1.82-5.291z" transform="translate(12.446 26.631)"/>
      <path style="opacity:1;fill:#a8f3a0;fill-opacity:1;stroke:none;paint-order:markers stroke fill" d="m2049.224 53.155 19.31 14.047a10.778 10.778 49.8 0 1 3.31 3.918l10.135 20.387a.55.55 139.784 0 1-.817.69l-19.283-14.01a10.767 10.767 49.78 0 1-3.312-3.917l-10.158-20.426a.55.55 139.796 0 1 .815-.689z" transform="translate(-12.224 44.208)"/>
      <path style="opacity:1;fill:#dc5337;fill-opacity:1;stroke:none;paint-order:markers stroke fill" d="m2036.332 90.497 10.108-35.174a2.529 2.529 161.017 0 1 3.916-1.347l17.554 12.754a4.875 4.875 71.017 0 1 1.82 5.29l-10.108 35.174a2.529 2.529 161.017 0 1-3.916 1.348l-17.554-12.754a4.875 4.875 71.017 0 1-1.82-5.291z" transform="translate(-12.224 44.208)"/>
      <path style="opacity:1;fill:#162d50;fill-opacity:.385482;stroke:none;paint-order:markers stroke fill" d="m2056.263 112.504-31.162 22.374a4.816 4.816 179.545 0 1-5.556.044l-16.938-11.76a2.53 2.53 88.816 0 1-.085-4.094l1.928-1.46-16.097-15.818a1.509 1.509 113.25 0 1 1.11-2.584l39.204 1.371 3.843-2.718z" transform="translate(0 2)"/>
      <path style="opacity:1;fill:#d5d5e2;fill-opacity:1;stroke:none;paint-order:markers stroke fill" d="m2032.59 99.009 17.609 12.794a6.673 6.673.441 0 0 7.76.06l29.65-20.852a2.178 2.178 90.441 0 0 .026-3.544l-17.61-12.794a6.673 6.673.441 0 0-7.76-.06l-29.649 20.852a2.178 2.178 90.441 0 0-.027 3.544z" transform="translate(.035 1.883)"/>
      <path style="opacity:1;fill:#500;fill-opacity:.6368;stroke:none;paint-order:markers stroke fill" d="m2044.213 134.667 22.798.702a1.136 1.136 108.736 0 0 .697-2.057l-15.993-11.496z" transform="translate(13.147 -40.042)"/>
      <path style="opacity:1;fill:#d2705a;fill-opacity:1;stroke:none;paint-order:markers stroke fill" d="m2049.224 53.155 19.31 14.047a10.778 10.778 49.8 0 1 3.31 3.918l10.135 20.387a.55.55 139.784 0 1-.817.69l-19.283-14.01a10.767 10.767 49.78 0 1-3.312-3.917l-10.158-20.426a.55.55 139.796 0 1 .815-.689z" transform="translate(.035 1.883)"/>
      <path style="opacity:1;fill:#a2a2c8;fill-opacity:1;stroke:none;paint-order:markers stroke fill" d="m2036.332 90.497 10.108-35.174a2.529 2.529 161.017 0 1 3.916-1.347l17.554 12.754a4.875 4.875 71.017 0 1 1.82 5.29l-10.108 35.174a2.529 2.529 161.017 0 1-3.916 1.348l-17.554-12.754a4.875 4.875 71.017 0 1-1.82-5.291z" transform="translate(.035 1.883)"/>
    </g>
    <g stroke="none">
      <path style="fill:#162d50;fill-opacity:.387648;stroke:none;paint-order:markers stroke fill" d="m2044.213 134.667 22.798.702a1.136 1.136 108.736 0 0 .697-2.057l-15.993-11.496z" transform="translate(-58.513 44.103)"/>
      <path style="fill:#162d50;fill-opacity:.387648;stroke:none;paint-order:markers stroke fill" d="m2044.213 134.667 22.798.702a1.136 1.136 108.736 0 0 .697-2.057l-15.993-11.496z" transform="translate(-33.717 26.53)"/>
      <path style="fill:#a8f3a0;fill-opacity:1;stroke:none;paint-order:markers stroke fill" d="m2049.224 53.155 19.31 14.047a10.778 10.778 49.8 0 1 3.31 3.918l10.135 20.387a.55.55 139.784 0 1-.817.69l-19.283-14.01a10.767 10.767 49.78 0 1-3.312-3.917l-10.158-20.426a.55.55 139.796 0 1 .815-.689z" transform="translate(-46.749 68.393)"/>
      <path style="fill:#c8422a;fill-opacity:1;stroke:none;paint-order:markers stroke fill" d="m2036.332 90.497 10.108-35.174a2.529 2.529 161.017 0 1 3.916-1.347l17.554 12.754a4.875 4.875 71.017 0 1 1.82 5.29l-10.108 35.174a2.529 2.529 161.017 0 1-3.916 1.348l-17.554-12.754a4.875 4.875 71.017 0 1-1.82-5.291z" transform="translate(-46.749 68.393)"/>
      <path style="fill:#a8f3a0;fill-opacity:1;stroke:none;paint-order:markers stroke fill" d="m2049.224 53.155 19.31 14.047a10.778 10.778 49.8 0 1 3.31 3.918l10.135 20.387a.55.55 139.784 0 1-.817.69l-19.283-14.01a10.767 10.767 49.78 0 1-3.312-3.917l-10.158-20.426a.55.55 139.796 0 1 .815-.689z" transform="translate(-71.419 85.97)"/>
      <path style="fill:#dc5337;fill-opacity:1;stroke:none;paint-order:markers stroke fill" d="m2036.332 90.497 10.108-35.174a2.529 2.529 161.017 0 1 3.916-1.347l17.554 12.754a4.875 4.875 71.017 0 1 1.82 5.29l-10.108 35.174a2.529 2.529 161.017 0 1-3.916 1.348l-17.554-12.754a4.875 4.875 71.017 0 1-1.82-5.291z" transform="translate(-71.419 85.97)"/>
      <path style="fill:#162d50;fill-opacity:.387648;stroke:none;paint-order:markers stroke fill" d="m2032.51 97.859-3.843 2.718-14.472-.505v31.134l5.351 3.715a4.816 4.816 0 0 0 5.555-.043l31.162-22.375z" transform="translate(-59.195 43.762)"/>
      <path style="fill:#d5d5e2;fill-opacity:1;stroke:none;paint-order:markers stroke fill" d="m2032.59 99.009 17.609 12.794a6.673 6.673.441 0 0 7.76.06l29.65-20.852a2.178 2.178 90.441 0 0 .026-3.544l-17.61-12.794a6.673 6.673.441 0 0-7.76-.06l-29.649 20.852a2.178 2.178 90.441 0 0-.027 3.544z" transform="translate(-59.16 43.646)"/>
      <path style="fill:#500;fill-opacity:.6368;stroke:none;paint-order:markers stroke fill" d="m2044.213 134.667 22.798.702a1.136 1.136 108.736 0 0 .697-2.057l-15.993-11.496z" transform="translate(-46.047 1.72)"/>
      <path style="fill:#d2705a;fill-opacity:1;stroke:none;paint-order:markers stroke fill" d="m2049.224 53.155 19.31 14.047a10.778 10.778 49.8 0 1 3.31 3.918l10.135 20.387a.55.55 139.784 0 1-.817.69l-19.283-14.01a10.767 10.767 49.78 0 1-3.312-3.917l-10.158-20.426a.55.55 139.796 0 1 .815-.689z" transform="translate(-59.16 43.646)"/>
      <path style="fill:#a2a2c8;fill-opacity:1;stroke:none;paint-order:markers stroke fill" d="m2036.332 90.497 10.108-35.174a2.529 2.529 161.017 0 1 3.916-1.347l17.554 12.754a4.875 4.875 71.017 0 1 1.82 5.29l-10.108 35.174a2.529 2.529 161.017 0 1-3.916 1.348l-17.554-12.754a4.875 4.875 71.017 0 1-1.82-5.291z" transform="translate(-59.16 43.646)"/>
    </g>
  </g>
</svg>
