<?xml version="1.0" encoding="UTF-8" standalone="no"?>
<!-- Created with Inkscape (http://www.inkscape.org/) -->

<svg
   width="108"
   height="108"
   viewBox="0 0 108 108"
   version="1.1"
   id="svg1"
   xmlns="http://www.w3.org/2000/svg"
   xmlns:svg="http://www.w3.org/2000/svg">
  <defs
     id="defs1">
    <filter
       style="color-interpolation-filters:sRGB"
       id="filter14"
       x="-0.047454241"
       y="-0.048558455"
       width="1.0949085"
       height="1.0971169">
      <feGaussianBlur
         stdDeviation="1.739043"
         id="feGaussianBlur14" />
    </filter>
  </defs>
  <rect
     style="mix-blend-mode:normal;fill:#000000;fill-opacity:0.800634;stroke-width:0.999993;stroke-linecap:square;paint-order:markers stroke fill;filter:url(#filter14)"
     id="rect14"
     width="87.952164"
     height="85.952141"
     x="10"
     y="12.673703"
     ry="7" />
  <rect
     style="fill:#446925;fill-opacity:1;stroke-width:0.999993;stroke-linecap:square;paint-order:markers stroke fill"
     id="rect1"
     width="87.952164"
     height="87.952141"
     x="10"
     y="10"
     ry="7" />
  <rect
     style="fill:#8ec038;fill-opacity:1;stroke-width:0.999993;stroke-linecap:square;paint-order:markers stroke fill"
     id="rect2"
     width="88"
     height="84"
     x="10"
     y="10"
     ry="7" />
  <path
     id="path55"
     style="fill:#1a2228;fill-opacity:1;stroke:none;stroke-width:2;stroke-linecap:square;paint-order:markers stroke fill"
     d="m 54,31 -8.876953,24.148438 c 1.448321,3.862071 2.89743,7.723847 4.345703,11.585937 L 54,69 66,63 Z" />
  <path
     id="path56"
     style="fill:#1a2228;fill-opacity:1;stroke:none;stroke-width:2;stroke-linecap:square;paint-order:markers stroke fill"
     d="m 70,23 -8.876953,24.148438 c 1.448321,3.862071 2.89743,7.723847 4.345703,11.585937 L 70,61 82,55 Z" />
  <path
     id="path57"
     style="fill:#1a2228;fill-opacity:1;stroke:none;stroke-width:2;stroke-linecap:square;paint-order:markers stroke fill"
     d="M 38,39 26,71 38,77 50,71 Z" />
  <path
     id="path59"
     style="fill:#1a2228;fill-opacity:1;stroke:none;stroke-width:1.375px;stroke-linecap:butt;stroke-linejoin:miter;stroke-opacity:1"
     d="m 44,13 c 0,0 -0.06276,4.562761 -2.25,6.749997 -2.187236,2.187237 -6.750001,2.250004 -6.750001,2.250004 0,0 4.562765,0.06276 6.750001,2.249998 C 43.937237,26.437237 44,31 44,31 c 0,0 0.06276,-4.562763 2.250001,-6.750001 2.187236,-2.187238 6.75,-2.249998 6.75,-2.249998 0,0 -4.562764,-0.06276 -6.75,-2.250004 C 44.062764,17.562761 44,13 44,13 Z" />
  <path
     id="path60"
     style="fill:#1a2228;fill-opacity:1;stroke:none;stroke-width:1.375px;stroke-linecap:butt;stroke-linejoin:miter;stroke-opacity:1"
     d="m 23.000001,32.999999 c 0,0 -0.06276,4.562761 -2.25,6.749997 C 18.562765,41.937233 14,42 14,42 c 0,0 4.562765,0.06276 6.750001,2.249998 2.187237,2.187238 2.25,6.750001 2.25,6.750001 0,0 0.06276,-4.562763 2.250001,-6.750001 2.187236,-2.187238 6.75,-2.249998 6.75,-2.249998 0,0 -4.562764,-0.06276 -6.75,-2.250004 -2.187237,-2.187236 -2.250001,-6.749997 -2.250001,-6.749997 z" />
  <path
     id="rect247"
     style="fill:#1a2228;fill-opacity:1;stroke-width:0.999993;stroke-linecap:square;paint-order:markers stroke fill"
     d="M 98,53.976562 97.953125,54 98,54.046875 Z M 97.953125,54 l -20,10 5,5 5,-5 5,-5 z m -5,5 5,5 L 98,63.953125 V 59 Z m 5,5 L 98,64.046875 V 64 Z m 0,0 h -10 l 5,5 z m -5,5 5,5 L 98,73.953125 V 69 Z m 0,0 h -10 l 5,5 z m -5,5 5,5 5,-5 z m 0,0 h -10 l 5,5 z m -5,5 5,5 5,-5 z m 0,0 h -10 l 5,5 z m -5,5 5,5 5,-5 z m 0,0 h -10 l 5,5 z m -5,5 5,5 5,-5 z m 0,0 h -10 l 5,5 z m -10,0 h -10 l 5,5 z m 0,0 5,-5 h -10 z m -5,-5 h -10 l 5,5 z m 0,0 5,-5 h -10 z m -5,-5 5,-5 -20,10 5,5 5,-5 z m -10,10 5,5 5,-5 z m 0,0 h -10 l 5,5 z m -10,0 5,-5 -20,10 h 10 z m 25,-15 5,5 5,-5 5,-5 5,-5 z m 15,-5 5,5 5,-5 z m 5,5 h -10 l 5,5 z m -5,5 h -10 l 5,5 z m 10,10 5,5 5,-5 z m 10,0 5,-5 h -10 z m 0,0 2.976563,2.976562 C 96.752365,91.161644 97.369007,90.142323 97.707031,89 Z m 5,-5 L 98,83.953125 V 79 h -5.046875 z m 0,0 L 98,84.046875 V 84 Z m 0,-10 L 98,74.046875 V 74 Z" />
  <path
     id="rect13"
     style="fill:#d7e9b5;fill-opacity:0.416101;stroke-width:0.999993;stroke-linecap:square;paint-order:markers stroke fill"
     d="m 17,10 c -3.878,0 -7,3.122 -7,7 v 70 c 0,3.878 3.122,7 7,7 h 74 c 3.878,0 7,-3.122 7,-7 V 17 c 0,-3.878 -3.122,-7 -7,-7 z m -0.291016,1.007812 c 24.860381,-0.01302 49.721619,-0.01302 74.582032,0 2.991206,0.06984 5.623088,2.691738 5.699218,5.683594 0.01763,23.532742 0.01367,47.066687 0.002,70.59961 -0.06984,2.991206 -2.691738,5.623088 -5.683594,5.699218 -24.866076,0.01763 -49.733354,0.01367 -74.59961,0.002 -2.991206,-0.06984 -5.623088,-2.691738 -5.699218,-5.683594 -0.01763,-23.532742 -0.01367,-47.066687 -0.002,-70.59961 0.06963,-2.998279 2.702902,-5.631511 5.701172,-5.701172 z" />
</svg>
