<?xml version="1.0" encoding="UTF-8" standalone="no"?>
<!-- Created with Inkscape (http://www.inkscape.org/) -->

<svg
   width="108"
   height="108"
   viewBox="0 0 108 108"
   version="1.1"
   id="svg1"
   xmlns="http://www.w3.org/2000/svg"
   xmlns:svg="http://www.w3.org/2000/svg">
  <defs
     id="defs1" />
  <g
     id="layer2"
     transform="translate(-236)">
    <rect
       style="fill:#abc837;stroke-width:1.42;paint-order:markers fill stroke"
       id="rect4"
       width="100"
       height="100"
       x="239.99023"
       y="4"
       ry="24" />
    <path
       id="path4"
       style="fill:#353b2e;fill-opacity:1;stroke:none;stroke-width:1px;stroke-linecap:butt;stroke-linejoin:miter;stroke-opacity:1"
       d="m 328.51562,7.5351562 c -0.37529,1.6372613 -1.04134,3.4808068 -2.27539,4.7148438 -2.67329,2.673289 -8.25,2.75 -8.25,2.75 0,0 5.57671,0.07671 8.25,2.75 2.67329,2.673289 2.75,8.25 2.75,8.25 0,0 0.0767,-5.576711 2.75,-8.25 1.23404,-1.234037 3.07759,-1.900097 4.71485,-2.275391 -0.23205,-0.379453 -0.46071,-0.759953 -0.71289,-1.125 -1.44006,-0.400931 -2.94542,-1.043074 -4.00196,-2.099609 -1.05653,-1.056535 -1.69867,-2.5618997 -2.09961,-4.0019531 -0.36504,-0.2521808 -0.74554,-0.4808395 -1.125,-0.7128907 z m -77.74804,0.4238282 c -2.33062,1.5367711 -4.35988,3.4763116 -6.02344,5.7109376 0.54642,0.306577 1.06508,0.649068 1.49609,1.080078 2.67329,2.673289 2.75,8.25 2.75,8.25 0,0 0.0767,-5.576711 2.75,-8.25 2.67329,-2.673289 8.25,-2.75 8.25,-2.75 0,0 -5.57671,-0.07671 -8.25,-2.75 -0.37798,-0.3779814 -0.69137,-0.8209161 -0.97265,-1.2910156 z M 268.99023,21 c 0,0 -0.0767,5.576711 -2.75,8.25 -2.67329,2.673289 -8.25,2.75 -8.25,2.75 0,0 5.57671,0.07671 8.25,2.75 2.67329,2.673289 2.75,8.25 2.75,8.25 0,0 0.0767,-5.576711 2.75,-8.25 2.67329,-2.673289 8.25,-2.75 8.25,-2.75 0,0 -5.57671,-0.07671 -8.25,-2.75 -2.67329,-2.673289 -2.75,-8.25 -2.75,-8.25 z m 38,3 -8.80664,26.417969 4.47266,13.414062 4.33398,2.167969 12,-6 z m -16,8 -8.80664,26.417969 4.47266,13.414062 4.33398,2.167969 12,-6 L 299.52344,57.599609 297.65625,52 Z m -16,8 -12,36 12,6 12,-6 L 283.52344,65.599609 281.65625,60 Z m 65,15.5 -89.16015,44.58008 c 0.80828,0.52941 1.65653,0.99926 2.5293,1.42969 0.1936,-0.67732 0.76771,-1.22176 1.50195,-1.32618 l 2.14258,-0.306637 1.98047,-0.28125 -0.0234,-0.164062 c -0.14097,-0.991266 0.56732,-1.933244 1.55859,-2.074219 l 2.14453,-0.304688 1.97852,-0.28125 -0.0215,-0.164062 c -0.14096,-0.991266 0.56536,-1.933244 1.55664,-2.074219 l 2.14454,-0.304687 1.98046,-0.28125 -0.0234,-0.166016 c -0.14097,-0.991266 0.56536,-1.93129 1.55664,-2.072266 l 2.14453,-0.30664 1.98047,-0.28125 -0.0234,-0.164063 c -0.14096,-0.991267 0.56537,-1.933242 1.55664,-2.074219 l 2.14453,-0.304687 1.98047,-0.28125 -0.0234,-0.164063 c -0.14096,-0.991264 0.56732,-1.933242 1.5586,-2.074218 l 2.14453,-0.304688 1.97851,-0.28125 -0.0234,-0.166015 c -0.14097,-0.991266 0.56732,-1.93129 1.55859,-2.072266 l 2.14453,-0.306641 1.98047,-0.28125 -0.0234,-0.164062 c -0.14096,-0.991267 0.56537,-1.933244 1.55664,-2.074219 l 2.14453,-0.304687 1.98047,-0.28125 -0.0234,-0.164063 c -0.14097,-0.991267 0.56536,-1.933244 1.55664,-2.074219 l 2.14453,-0.304687 1.98047,-0.28125 -0.0234,-0.166016 c -0.14097,-0.991267 0.56537,-1.93129 1.55664,-2.072265 l 2.14453,-0.306641 1.98047,-0.28125 -0.0234,-0.164063 c -0.14096,-0.991265 0.56733,-1.933245 1.5586,-2.074218 l 2.14453,-0.304688 1.97851,-0.28125 -0.0234,-0.164062 c -0.14097,-0.991267 0.56732,-1.933245 1.55859,-2.074219 l 2.14453,-0.304687 1.98047,-0.28125 -0.0234,-0.166016 c -0.14096,-0.991267 0.56538,-1.931292 1.55664,-2.072266 l 2.14453,-0.30664 1.98047,-0.28125 -0.0234,-0.164063 c -0.14097,-0.991267 0.56538,-1.933244 1.55665,-2.074219 l 2.14453,-0.304687 1.98047,-0.28125 -0.0234,-0.164063 c -0.14097,-0.991267 0.56733,-1.933244 1.55859,-2.074218 l 2.14453,-0.304688 1.97852,-0.28125 -0.0234,-0.166016 c -0.14096,-0.991264 0.56732,-1.931291 1.55859,-2.072265 l 0.25,-0.03516 z m 0,5.353516 c -0.27607,0.601213 -0.80975,1.075109 -1.5039,1.173828 l -1.97852,0.283203 -1.98047,0.28125 c 0.15386,1.081835 -0.61737,2.107864 -1.69922,2.261719 l -1.98046,0.28125 -1.97852,0.28125 c 0.15386,1.081835 -0.61737,2.107862 -1.69922,2.261718 l -1.98047,0.28125 -1.98047,0.28125 c 0.15385,1.081835 -0.61541,2.107863 -1.69726,2.261719 l -1.98047,0.283203 -1.98047,0.28125 c 0.15386,1.081834 -0.61542,2.107863 -1.69726,2.261719 l -1.98047,0.28125 -1.98047,0.28125 c 0.15385,1.081834 -0.61738,2.107864 -1.69922,2.261719 l -1.97852,0.28125 -1.98046,0.28125 c 0.15384,1.081834 -0.61738,2.107866 -1.69922,2.261718 l -1.98047,0.283204 -1.97852,0.28125 c 0.15386,1.081834 -0.61738,2.107863 -1.69922,2.261718 l -1.98047,0.28125 -1.98046,0.28125 c 0.15385,1.081834 -0.61543,2.107863 -1.69727,2.261719 l -1.98047,0.28125 -1.98047,0.28125 c 0.15386,1.081834 -0.61542,2.107864 -1.69726,2.261719 l -1.98047,0.283203 -1.98047,0.28125 c 0.15386,1.081835 -0.61738,2.107864 -1.69922,2.261719 l -1.97851,0.28125 -1.98047,0.28125 c 0.15385,1.081835 -0.61738,2.107868 -1.69922,2.261718 l -1.98047,0.28125 -1.98047,0.28125 c 0.15386,1.081836 -0.61543,2.107864 -1.69727,2.261719 l -1.98046,0.283203 -1.98047,0.28125 c 0.15385,1.081835 -0.61543,2.107864 -1.69727,2.261719 l -1.98047,0.28125 -1.98047,0.28125 c 0.15386,1.081837 -0.61738,2.107867 -1.69922,2.261717 l -1.97851,0.28125 -1.98047,0.28125 c 0.011,0.0775 0.008,0.15387 0.01,0.23047 1.43965,0.55579 2.94364,0.97638 4.5039,1.24805 0.20855,-0.13038 0.44314,-0.22335 0.69922,-0.25977 l 2.14453,-0.30469 1.97852,-0.28125 -0.0215,-0.16406 c -0.14096,-0.99127 0.56536,-1.93324 1.55664,-2.07422 l 2.14454,-0.30468 1.98046,-0.281254 -0.0234,-0.166016 c -0.14097,-0.991266 0.56536,-1.93129 1.55664,-2.072266 l 2.14453,-0.30664 1.98047,-0.28125 -0.0234,-0.164063 c -0.14096,-0.991267 0.56537,-1.933243 1.55664,-2.074219 l 2.14453,-0.304687 1.98047,-0.28125 -0.0234,-0.164063 c -0.14096,-0.991264 0.56732,-1.933242 1.5586,-2.074218 l 2.14453,-0.304688 1.97851,-0.28125 -0.0234,-0.166015 c -0.14097,-0.991266 0.56732,-1.93129 1.55859,-2.072266 l 2.14453,-0.306641 1.98047,-0.28125 -0.0234,-0.164062 c -0.14096,-0.991267 0.56537,-1.933244 1.55664,-2.074219 l 2.14453,-0.304687 1.98047,-0.28125 -0.0234,-0.164063 c -0.14097,-0.991267 0.56536,-1.933244 1.55664,-2.074219 l 2.14453,-0.304687 1.98047,-0.28125 -0.0234,-0.166016 c -0.14097,-0.991267 0.56537,-1.93129 1.55664,-2.072265 l 2.14453,-0.306641 1.98047,-0.28125 -0.0234,-0.164063 c -0.14096,-0.991265 0.56733,-1.933245 1.5586,-2.074218 l 2.14453,-0.304688 1.97851,-0.28125 -0.0234,-0.164062 c -0.14097,-0.991267 0.56732,-1.933245 1.55859,-2.074219 l 2.14453,-0.304687 1.98047,-0.28125 -0.0234,-0.166016 c -0.14096,-0.991267 0.56538,-1.931292 1.55664,-2.072266 l 2.14453,-0.30664 1.98047,-0.28125 -0.0234,-0.164063 c -0.14097,-0.991267 0.56538,-1.933244 1.55665,-2.074219 l 2.14453,-0.304687 1.98047,-0.28125 -0.0234,-0.164063 c -0.14097,-0.991267 0.56733,-1.933244 1.55859,-2.074218 l 2.14453,-0.304688 1.97852,-0.28125 -0.0234,-0.166016 c -0.14096,-0.991264 0.56732,-1.931291 1.55859,-2.072265 l 0.25,-0.03516 z m 0,6 c -0.27607,0.601213 -0.80975,1.075109 -1.5039,1.173828 l -1.97852,0.283203 -1.98047,0.28125 c 0.15386,1.081835 -0.61737,2.107864 -1.69922,2.261719 l -1.98046,0.28125 -1.97852,0.28125 c 0.15386,1.081835 -0.61737,2.107862 -1.69922,2.261718 l -1.98047,0.28125 -1.98047,0.28125 c 0.15385,1.081835 -0.61541,2.107863 -1.69726,2.261719 l -1.98047,0.283203 -1.98047,0.28125 c 0.15386,1.081834 -0.61542,2.107863 -1.69726,2.261719 l -1.98047,0.28125 -1.98047,0.28125 c 0.15385,1.081834 -0.61738,2.107864 -1.69922,2.261719 l -1.97852,0.28125 -1.98046,0.28125 c 0.15384,1.081834 -0.61738,2.107866 -1.69922,2.261718 l -1.98047,0.283204 -1.97852,0.28125 c 0.15386,1.081834 -0.61738,2.107863 -1.69922,2.261718 l -1.98047,0.28125 -1.98046,0.28125 c 0.15385,1.081834 -0.61543,2.107863 -1.69727,2.261719 l -1.98047,0.28125 -1.98047,0.28125 c 0.15386,1.081834 -0.61542,2.107864 -1.69726,2.261719 l -1.98047,0.283203 -1.98047,0.28125 c 0.15386,1.081835 -0.61738,2.107864 -1.69922,2.261719 l -1.97851,0.28125 -1.98047,0.28125 c 0.15385,1.081835 -0.61738,2.107868 -1.69922,2.261718 l -1.98047,0.28125 -1.98047,0.28125 c 0.15386,1.081828 -0.61543,2.107858 -1.69727,2.261718 l -1.98046,0.2832 -1.98047,0.28125 c 0.0793,0.55747 -0.0925,1.09364 -0.41993,1.50977 h 4.9004 c 0.21755,-0.14369 0.46026,-0.25231 0.73242,-0.29102 l 2.14453,-0.30664 1.98047,-0.28125 -0.0234,-0.16406 c -0.14096,-0.99126 0.56537,-1.93324 1.55664,-2.07422 l 2.14453,-0.30469 1.98047,-0.28124 -0.0234,-0.16407 c -0.14096,-0.991253 0.56732,-1.93324 1.5586,-2.074216 l 2.14453,-0.304688 1.97851,-0.28125 -0.0234,-0.166015 c -0.14097,-0.991266 0.56732,-1.93129 1.55859,-2.072266 l 2.14453,-0.306641 1.98047,-0.28125 -0.0234,-0.164062 c -0.14096,-0.991267 0.56537,-1.933244 1.55664,-2.074219 l 2.14453,-0.304687 1.98047,-0.28125 -0.0234,-0.164063 c -0.14097,-0.991267 0.56536,-1.933244 1.55664,-2.074219 l 2.14453,-0.304687 1.98047,-0.28125 -0.0234,-0.166016 c -0.14097,-0.991267 0.56537,-1.93129 1.55664,-2.072265 l 2.14453,-0.306641 1.98047,-0.28125 -0.0234,-0.164063 c -0.14096,-0.991265 0.56733,-1.933245 1.5586,-2.074218 l 2.14453,-0.304688 1.97851,-0.28125 -0.0234,-0.164062 c -0.14097,-0.991267 0.56732,-1.933245 1.55859,-2.074219 l 2.14453,-0.304687 1.98047,-0.28125 -0.0234,-0.166016 c -0.14096,-0.991267 0.56538,-1.931292 1.55664,-2.072266 l 2.14453,-0.30664 1.98047,-0.28125 -0.0234,-0.164063 c -0.14097,-0.991267 0.56538,-1.933244 1.55665,-2.074219 l 2.14453,-0.304687 1.98047,-0.28125 -0.0234,-0.164063 c -0.14097,-0.991267 0.56733,-1.933244 1.55859,-2.074218 l 2.14453,-0.304688 1.97852,-0.28125 -0.0234,-0.166016 c -0.14096,-0.991264 0.56732,-1.931291 1.55859,-2.072265 l 0.25,-0.03516 z m 0,6 c -0.27607,0.601213 -0.80975,1.075109 -1.5039,1.173828 l -1.97852,0.283203 -1.98047,0.28125 c 0.15386,1.081835 -0.61737,2.107864 -1.69922,2.261719 l -1.98046,0.28125 -1.97852,0.28125 c 0.15386,1.081835 -0.61737,2.107862 -1.69922,2.261718 l -1.98047,0.28125 -1.98047,0.28125 c 0.15385,1.081835 -0.61541,2.107863 -1.69726,2.261719 l -1.98047,0.283203 -1.98047,0.28125 c 0.15386,1.081834 -0.61542,2.107863 -1.69726,2.261719 l -1.98047,0.28125 -1.98047,0.28125 c 0.15385,1.081834 -0.61738,2.107864 -1.69922,2.261719 l -1.97852,0.28125 -1.98046,0.28125 c 0.15384,1.081834 -0.61738,2.107868 -1.69922,2.261718 l -1.98047,0.283204 -1.97852,0.28125 c 0.15386,1.081834 -0.61738,2.107863 -1.69922,2.261718 l -1.98047,0.28125 -1.98046,0.28125 c 0.15385,1.081834 -0.61543,2.107863 -1.69727,2.261719 l -1.98047,0.28125 -1.98047,0.28125 c 0.15386,1.081834 -0.61542,2.107864 -1.69726,2.261719 l -1.98047,0.283203 -1.98047,0.281245 c 0.15386,1.08187 -0.61738,2.10786 -1.69922,2.26172 l -1.97851,0.28125 -1.98047,0.28125 c 0.0592,0.416 -0.051,0.80708 -0.23047,1.16016 h 5.85547 l 1.73242,-0.24609 1.97851,-0.28125 -0.0234,-0.16602 c -0.14097,-0.99127 0.56732,-1.93132 1.55859,-2.07226 l 2.14453,-0.30665 1.98047,-0.28125 -0.0234,-0.16406 c -0.14096,-0.991253 0.56537,-1.933242 1.55664,-2.074217 l 2.14453,-0.304687 1.98047,-0.28125 -0.0234,-0.164063 c -0.14097,-0.991267 0.56536,-1.933244 1.55664,-2.074219 l 2.14453,-0.304687 1.98047,-0.28125 -0.0234,-0.166016 c -0.14097,-0.991267 0.56537,-1.93129 1.55664,-2.072265 l 2.14453,-0.306641 1.98047,-0.28125 -0.0234,-0.164063 c -0.14096,-0.991264 0.56733,-1.933245 1.5586,-2.074218 l 2.14453,-0.304688 1.97851,-0.28125 -0.0234,-0.164062 c -0.14097,-0.991267 0.56732,-1.933245 1.55859,-2.074219 l 2.14453,-0.304687 1.98047,-0.28125 -0.0234,-0.166016 c -0.14096,-0.991267 0.56538,-1.931292 1.55664,-2.072266 l 2.14453,-0.30664 1.98047,-0.28125 -0.0234,-0.164063 c -0.14097,-0.991267 0.56538,-1.933244 1.55665,-2.074219 l 2.14453,-0.304687 1.98047,-0.28125 -0.0234,-0.164063 c -0.14097,-0.991267 0.56733,-1.933244 1.55859,-2.074218 l 2.14453,-0.304688 1.97852,-0.28125 -0.0234,-0.166016 c -0.14096,-0.991264 0.56732,-1.931291 1.55859,-2.072265 l 0.25,-0.03516 z m 0,6 c -0.27607,0.601213 -0.80975,1.075109 -1.5039,1.173828 l -1.97852,0.283203 -1.98047,0.28125 c 0.15386,1.081835 -0.61737,2.107864 -1.69922,2.261719 l -1.98046,0.28125 -1.97852,0.28125 c 0.15386,1.081835 -0.61737,2.107862 -1.69922,2.261718 l -1.98047,0.28125 -1.98047,0.28125 c 0.15385,1.081835 -0.61541,2.107863 -1.69726,2.261719 l -1.98047,0.283203 -1.98047,0.28125 c 0.15386,1.081834 -0.61542,2.107863 -1.69726,2.261719 l -1.98047,0.28125 -1.98047,0.28125 c 0.15385,1.081834 -0.61738,2.107864 -1.69922,2.261719 l -1.97852,0.28125 -1.98046,0.28125 c 0.15384,1.081834 -0.61738,2.107868 -1.69922,2.261718 l -1.98047,0.283204 -1.97852,0.28125 c 0.15386,1.081834 -0.61738,2.107863 -1.69922,2.261718 l -1.98047,0.281246 -1.98046,0.28125 c 0.15385,1.08183 -0.61543,2.10787 -1.69727,2.26172 l -1.98047,0.28125 -1.98047,0.28125 c 0.0396,0.27878 0.0139,0.55315 -0.0586,0.81055 h 8.14453 l 1.25195,-0.17773 -0.0234,-0.16407 c -0.14097,-0.99127 0.56536,-1.93324 1.55664,-2.07422 l 2.14453,-0.30468 1.98047,-0.28125 -0.0234,-0.16602 c -0.14097,-0.991265 0.56537,-1.931289 1.55664,-2.072264 l 2.14453,-0.306641 1.98047,-0.28125 -0.0234,-0.164063 c -0.14096,-0.991264 0.56733,-1.933245 1.5586,-2.074218 l 2.14453,-0.304688 1.97851,-0.28125 -0.0234,-0.164062 c -0.14097,-0.991267 0.56732,-1.933245 1.55859,-2.074219 l 2.14453,-0.304687 1.98047,-0.28125 -0.0234,-0.166016 c -0.14096,-0.991267 0.56538,-1.931292 1.55664,-2.072266 l 2.14453,-0.30664 1.98047,-0.28125 -0.0234,-0.164063 c -0.14097,-0.991267 0.56538,-1.933244 1.55665,-2.074219 l 2.14453,-0.304687 1.98047,-0.28125 -0.0234,-0.164063 c -0.14097,-0.991267 0.56733,-1.933244 1.55859,-2.074218 l 2.14453,-0.304688 1.97852,-0.28125 -0.0234,-0.166016 c -0.14096,-0.991264 0.56732,-1.931291 1.55859,-2.072265 l 0.16016,-0.02344 c 0.0433,-0.592034 0.0898,-1.183636 0.0898,-1.787109 z m -0.70703,6.861328 c -0.2365,0.155345 -0.50159,0.270506 -0.79687,0.3125 l -1.97852,0.283203 -1.98047,0.28125 c 0.15386,1.081835 -0.61737,2.107864 -1.69922,2.261719 l -1.98046,0.28125 -1.97852,0.28125 c 0.15386,1.081835 -0.61737,2.107862 -1.69922,2.261718 l -1.98047,0.28125 -1.98047,0.28125 c 0.15385,1.081835 -0.61541,2.107863 -1.69726,2.261719 l -1.98047,0.283203 -1.98047,0.28125 c 0.15386,1.081834 -0.61542,2.107863 -1.69726,2.261719 l -1.98047,0.28125 -1.98047,0.28125 c 0.15385,1.081834 -0.61738,2.107882 -1.69922,2.261715 l -1.97852,0.28125 -1.98046,0.28125 c 0.15384,1.08183 -0.61738,2.10787 -1.69922,2.26172 l -1.98047,0.28321 -1.97852,0.28125 c 0.0221,0.15505 0.02,0.30862 0.006,0.45898 h 9.30664 c -0.13602,-0.98832 0.56999,-1.92582 1.5586,-2.06641 l 2.14453,-0.30468 1.97851,-0.28125 -0.0234,-0.16407 c -0.14097,-0.99127 0.56732,-1.933241 1.55859,-2.074215 l 2.14453,-0.304687 1.98047,-0.28125 -0.0234,-0.166016 c -0.14096,-0.991267 0.56538,-1.931292 1.55664,-2.072266 l 2.14453,-0.30664 1.98047,-0.28125 -0.0234,-0.164063 c -0.14097,-0.991267 0.56538,-1.933244 1.55665,-2.074219 l 2.14453,-0.304687 1.98047,-0.28125 -0.0234,-0.164063 c -0.14097,-0.991267 0.56733,-1.933244 1.55859,-2.074218 l 2.14453,-0.304688 1.52149,-0.216797 c 0.64832,-1.398442 1.16331,-2.867875 1.53515,-4.398437 z m -2.68945,6.583984 -0.0859,0.01172 -1.98047,0.28125 c 0.15386,1.081835 -0.61737,2.107864 -1.69922,2.261719 l -1.98046,0.28125 -1.97852,0.28125 c 0.15386,1.081835 -0.61737,2.107862 -1.69922,2.261718 l -1.98047,0.28125 -1.98047,0.28125 c 0.15385,1.081835 -0.61541,2.107855 -1.69726,2.261715 l -1.98047,0.28321 -1.98047,0.28125 c 0.15386,1.08184 -0.61542,2.10788 -1.69726,2.26171 l -1.98047,0.28126 -1.98047,0.28124 c 0.005,0.0368 7.9e-4,0.0728 0.004,0.10938 h 4.09375 c 1.85659,0 3.65525,-0.22967 5.38868,-0.625 0.25034,-0.55808 0.74309,-0.99859 1.38476,-1.08984 l 2.14453,-0.30664 1.04297,-0.14844 c 0.31143,-0.14171 0.61978,-0.28892 0.92383,-0.44336 -0.0537,-0.93444 0.60585,-1.793906 1.54688,-1.927735 l 1.99023,-0.283203 c 2.48255,-1.866814 4.58363,-4.197401 6.18164,-6.876953 z" />
  </g>
</svg>
