<svg xmlns="http://www.w3.org/2000/svg" xmlns:xlink="http://www.w3.org/1999/xlink" xml:space="preserve" width="256" height="256"><defs><linearGradient id="c"><stop offset="0" style="stop-color:#a4755d;stop-opacity:1"/><stop offset=".45" style="stop-color:#ac9274;stop-opacity:1"/><stop offset="1" style="stop-color:#a57963;stop-opacity:1"/></linearGradient><linearGradient id="b"><stop offset="0" style="stop-color:#48c639;stop-opacity:1"/><stop offset="1" style="stop-color:#e0d376;stop-opacity:1"/></linearGradient><linearGradient id="d"><stop offset="0" style="stop-color:#99d1e8;stop-opacity:.53908354"/><stop offset="1" style="stop-color:#2e74df;stop-opacity:0"/></linearGradient><linearGradient id="a"><stop offset="0" style="stop-color:#2e74df;stop-opacity:1"/><stop offset=".663" style="stop-color:#5f94e9;stop-opacity:1"/><stop offset=".857" style="stop-color:#89b7f4;stop-opacity:1"/><stop offset="1" style="stop-color:#719be8;stop-opacity:1"/></linearGradient><linearGradient xlink:href="#a" id="f" x1="2079" x2="2163" y1="219.565" y2="219.565" gradientTransform="translate(532)" gradientUnits="userSpaceOnUse"/><linearGradient xlink:href="#b" id="h" x1="1959.631" x2="2080.109" y1="28.631" y2="154.182" gradientTransform="translate(532)" gradientUnits="userSpaceOnUse"/><linearGradient xlink:href="#c" id="e" x1="1955" x2="1979.886" y1="216.152" y2="216.152" gradientTransform="translate(532)" gradientUnits="userSpaceOnUse"/><linearGradient xlink:href="#d" id="g" x1="2628.272" x2="2628.272" y1="178.54" y2="232" gradientUnits="userSpaceOnUse"/></defs><g style="display:inline;fill:none;stroke:#dee4da;stroke-width:.5;stroke-dasharray:none;stroke-opacity:1" transform="translate(-2463)"><rect width="208" height="208" x="2487" y="24" rx="15.848" ry="15.848" style="display:inline;opacity:1;fill:url(#e);fill-opacity:1;stroke:none;stroke-width:.989998;stroke-linecap:butt;stroke-linejoin:miter;stroke-miterlimit:4;stroke-dasharray:none;stroke-dashoffset:0;stroke-opacity:1;marker:none;marker-start:none;marker-mid:none;marker-end:none;paint-order:normal;enable-background:new"/><path d="M2695 96.895 2543 204v28h136.152c8.78 0 15.848-7.068 15.848-15.848z" style="display:inline;opacity:1;fill:url(#f);fill-opacity:1;stroke:none;stroke-width:.989998;stroke-linecap:butt;stroke-linejoin:miter;stroke-miterlimit:4;stroke-dasharray:none;stroke-dashoffset:0;stroke-opacity:1;marker:none;marker-start:none;marker-mid:none;marker-end:none;paint-order:normal;enable-background:new"/><path stroke="none" d="M2543 204v28l75.556-28z" style="opacity:1;fill:#0063a2;fill-opacity:.294988;stroke:none;paint-order:markers stroke fill"/><path d="M2695 96.895 2543 204v28h136.152c8.78 0 15.848-7.068 15.848-15.848z" style="display:inline;opacity:1;fill:url(#g);fill-opacity:1;stroke:none;stroke-width:.989998;stroke-linecap:butt;stroke-linejoin:miter;stroke-miterlimit:4;stroke-dasharray:none;stroke-dashoffset:0;stroke-opacity:1;marker:none;marker-start:none;marker-mid:none;marker-end:none;paint-order:normal;enable-background:new"/><rect width="208" height="180" x="2487" y="24" rx="15.848" ry="15.848" style="display:inline;opacity:1;fill:url(#h);fill-opacity:1;stroke:none;stroke-width:.989998;stroke-linecap:butt;stroke-linejoin:miter;stroke-miterlimit:4;stroke-dasharray:none;stroke-dashoffset:0;stroke-opacity:1;marker:none;marker-start:none;marker-mid:none;marker-end:none;paint-order:normal;enable-background:new"/><path stroke="none" d="m2056.263 112.504-31.162 22.374a4.816 4.816 179.545 0 1-5.556.044l-16.938-11.76a2.53 2.53 88.816 0 1-.085-4.094l1.928-1.46-16.097-15.818a1.509 1.509 113.25 0 1 1.11-2.584l39.204 1.371 3.843-2.718z" style="fill:#0b5b1b;fill-opacity:.555717;stroke:none;paint-order:markers stroke fill" transform="translate(532 2)"/><path stroke="none" d="m2056.263 112.504-31.162 22.374a4.816 4.816 179.545 0 1-5.556.044l-16.938-11.76a2.53 2.53 88.816 0 1-.085-4.094l1.928-1.46-16.097-15.818a1.509 1.509 113.25 0 1 1.11-2.584l39.204 1.371 3.843-2.718z" style="fill:#0b5b1b;fill-opacity:.555717;stroke:none;paint-order:markers stroke fill" transform="translate(591.128 -39.791)"/><path stroke="none" d="m2044.213 134.667 22.798.702a1.136 1.136 108.736 0 0 .697-2.057l-15.993-11.496z" style="fill:#0c5a1e;fill-opacity:.525293;stroke:none;paint-order:markers stroke fill" transform="translate(591.81 -39.45)"/><path stroke="none" d="m2044.213 134.667 22.798.702a1.136 1.136 108.736 0 0 .697-2.057l-15.993-11.496z" style="fill:#0c5a1e;fill-opacity:.525293;stroke:none;paint-order:markers stroke fill" transform="translate(616.606 -57.024)"/><path stroke="none" d="m2049.224 53.155 19.31 14.047a10.778 10.778 49.8 0 1 3.31 3.918l10.135 20.387a.55.55 139.784 0 1-.817.69l-19.283-14.01a10.767 10.767 49.78 0 1-3.312-3.917l-10.158-20.426a.55.55 139.796 0 1 .815-.689z" style="fill:#84bf7f;fill-opacity:1;stroke:none;paint-order:markers stroke fill" transform="translate(603.574 -15.16)"/><path stroke="none" d="m2036.332 90.497 10.108-35.174a2.529 2.529 161.017 0 1 3.916-1.347l17.554 12.754a4.875 4.875 71.017 0 1 1.82 5.29l-10.108 35.174a2.529 2.529 161.017 0 1-3.916 1.348l-17.554-12.754a4.875 4.875 71.017 0 1-1.82-5.291z" style="fill:#c63f22;fill-opacity:1;stroke:none;paint-order:markers stroke fill" transform="translate(603.574 -15.16)"/><path stroke="none" d="m2049.224 53.155 19.31 14.047a10.778 10.778 49.8 0 1 3.31 3.918l10.135 20.387a.55.55 139.784 0 1-.817.69l-19.283-14.01a10.767 10.767 49.78 0 1-3.312-3.917l-10.158-20.426a.55.55 139.796 0 1 .815-.689z" style="fill:#84bf7f;fill-opacity:1;stroke:none;paint-order:markers stroke fill" transform="translate(578.904 2.417)"/><path stroke="none" d="m2036.332 90.497 10.108-35.174a2.529 2.529 161.017 0 1 3.916-1.347l17.554 12.754a4.875 4.875 71.017 0 1 1.82 5.29l-10.108 35.174a2.529 2.529 161.017 0 1-3.916 1.348l-17.554-12.754a4.875 4.875 71.017 0 1-1.82-5.291z" style="fill:#d84425;fill-opacity:1;stroke:none;paint-order:markers stroke fill" transform="translate(578.904 2.417)"/><path stroke="none" d="m2044.213 134.667 22.798.702a1.136 1.136 108.736 0 0 .697-2.057l-15.993-11.496z" style="fill:#0c5a1e;fill-opacity:.525293;stroke:none;paint-order:markers stroke fill" transform="translate(532.681 2.34)"/><path stroke="none" d="m2044.213 134.667 22.798.702a1.136 1.136 108.736 0 0 .697-2.057l-15.993-11.496z" style="fill:#0c5a1e;fill-opacity:.525293;stroke:none;paint-order:markers stroke fill" transform="translate(557.477 -15.233)"/><path stroke="none" d="m2049.224 53.155 19.31 14.047a10.778 10.778 49.8 0 1 3.31 3.918l10.135 20.387a.55.55 139.784 0 1-.817.69l-19.283-14.01a10.767 10.767 49.78 0 1-3.312-3.917l-10.158-20.426a.55.55 139.796 0 1 .815-.689z" style="fill:#84bf7f;fill-opacity:1;stroke:none;paint-order:markers stroke fill" transform="translate(544.446 26.631)"/><path stroke="none" d="m2036.332 90.497 10.108-35.174a2.529 2.529 161.017 0 1 3.916-1.347l17.554 12.754a4.875 4.875 71.017 0 1 1.82 5.29l-10.108 35.174a2.529 2.529 161.017 0 1-3.916 1.348l-17.554-12.754a4.875 4.875 71.017 0 1-1.82-5.291z" style="fill:#c63f22;fill-opacity:1;stroke:none;paint-order:markers stroke fill" transform="translate(544.446 26.631)"/><path stroke="none" d="m2049.224 53.155 19.31 14.047a10.778 10.778 49.8 0 1 3.31 3.918l10.135 20.387a.55.55 139.784 0 1-.817.69l-19.283-14.01a10.767 10.767 49.78 0 1-3.312-3.917l-10.158-20.426a.55.55 139.796 0 1 .815-.689z" style="fill:#84bf7f;fill-opacity:1;stroke:none;paint-order:markers stroke fill" transform="translate(519.776 44.208)"/><path stroke="none" d="m2036.332 90.497 10.108-35.174a2.529 2.529 161.017 0 1 3.916-1.347l17.554 12.754a4.875 4.875 71.017 0 1 1.82 5.29l-10.108 35.174a2.529 2.529 161.017 0 1-3.916 1.348l-17.554-12.754a4.875 4.875 71.017 0 1-1.82-5.291z" style="fill:#d84425;fill-opacity:1;stroke:none;paint-order:markers stroke fill" transform="translate(519.776 44.208)"/><path stroke="none" d="m2044.213 134.667 22.798.702a1.136 1.136 108.736 0 0 .697-2.057l-15.993-11.496z" style="fill:#0c5a1e;fill-opacity:.525293;stroke:none;paint-order:markers stroke fill" transform="translate(473.487 44.103)"/><path stroke="none" d="m2044.213 134.667 22.798.702a1.136 1.136 108.736 0 0 .697-2.057l-15.993-11.496z" style="fill:#0c5a1e;fill-opacity:.525293;stroke:none;paint-order:markers stroke fill" transform="translate(498.283 26.53)"/><path stroke="none" d="m2049.224 53.155 19.31 14.047a10.778 10.778 49.8 0 1 3.31 3.918l10.135 20.387a.55.55 139.784 0 1-.817.69l-19.283-14.01a10.767 10.767 49.78 0 1-3.312-3.917l-10.158-20.426a.55.55 139.796 0 1 .815-.689z" style="fill:#84bf7f;fill-opacity:1;stroke:none;paint-order:markers stroke fill" transform="translate(485.251 68.393)"/><path stroke="none" d="m2036.332 90.497 10.108-35.174a2.529 2.529 161.017 0 1 3.916-1.347l17.554 12.754a4.875 4.875 71.017 0 1 1.82 5.29l-10.108 35.174a2.529 2.529 161.017 0 1-3.916 1.348l-17.554-12.754a4.875 4.875 71.017 0 1-1.82-5.291z" style="fill:#c63f22;fill-opacity:1;stroke:none;paint-order:markers stroke fill" transform="translate(485.251 68.393)"/><path stroke="none" d="m2049.224 53.155 19.31 14.047a10.778 10.778 49.8 0 1 3.31 3.918l10.135 20.387a.55.55 139.784 0 1-.817.69l-19.283-14.01a10.767 10.767 49.78 0 1-3.312-3.917l-10.158-20.426a.55.55 139.796 0 1 .815-.689z" style="fill:#84bf7f;fill-opacity:1;stroke:none;paint-order:markers stroke fill" transform="translate(460.581 85.97)"/><path stroke="none" d="m2036.332 90.497 10.108-35.174a2.529 2.529 161.017 0 1 3.916-1.347l17.554 12.754a4.875 4.875 71.017 0 1 1.82 5.29l-10.108 35.174a2.529 2.529 161.017 0 1-3.916 1.348l-17.554-12.754a4.875 4.875 71.017 0 1-1.82-5.291z" style="fill:#d84425;fill-opacity:1;stroke:none;paint-order:markers stroke fill" transform="translate(460.581 85.97)"/><path stroke="none" d="m2505.316 141.621-3.843 2.719-14.473-.506v31.135l5.352 3.715a4.816 4.816 0 0 0 5.554-.043l31.162-22.375z" style="fill:#0b5b1b;fill-opacity:.555717;stroke:none;paint-order:markers stroke fill"/><path stroke="none" d="m2046.104 56.494-9.773 34.002a4.875 4.875 0 0 0 .033 2.7 4.816 4.816 0 0 0 .96-.526l31.163-22.375z" style="fill:#a24230;fill-opacity:1;stroke:none;paint-order:markers stroke fill" transform="translate(460.581 85.97)"/><path stroke="none" d="m2565.879 100.703-9.774 34.002a4.875 4.875 0 0 0 .033 2.699 4.816 4.816 0 0 0 .961-.526l31.162-22.374zM2625.007 58.912l-9.773 34.002a4.875 4.875 0 0 0 .033 2.699 4.816 4.816 0 0 0 .96-.526l31.163-22.375z" style="fill:#a24230;fill-opacity:1;stroke:none;paint-order:markers stroke fill"/><path stroke="none" d="m2032.59 99.009 17.609 12.794a6.673 6.673.441 0 0 7.76.06l29.65-20.852a2.178 2.178 90.441 0 0 .026-3.544l-17.61-12.794a6.673 6.673.441 0 0-7.76-.06l-29.649 20.852a2.178 2.178 90.441 0 0-.027 3.544z" style="fill:#df6048;fill-opacity:1;stroke:none;paint-order:markers stroke fill" transform="translate(591.163 -39.908)"/><path stroke="none" d="m2044.213 134.667 22.798.702a1.136 1.136 108.736 0 0 .697-2.057l-15.993-11.496z" style="fill:#652418;fill-opacity:.499982;stroke:none;paint-order:markers stroke fill" transform="translate(604.275 -81.833)"/><path stroke="none" d="m2049.224 53.155 19.31 14.047a10.778 10.778 49.8 0 1 3.31 3.918l10.135 20.387a.55.55 139.784 0 1-.817.69l-19.283-14.01a10.767 10.767 49.78 0 1-3.312-3.917l-10.158-20.426a.55.55 139.796 0 1 .815-.689z" style="fill:#dfa797;fill-opacity:1;stroke:none;paint-order:markers stroke fill" transform="translate(591.163 -39.908)"/><path stroke="none" d="m2036.332 90.497 10.108-35.174a2.529 2.529 161.017 0 1 3.916-1.347l17.554 12.754a4.875 4.875 71.017 0 1 1.82 5.29l-10.108 35.174a2.529 2.529 161.017 0 1-3.916 1.348l-17.554-12.754a4.875 4.875 71.017 0 1-1.82-5.291z" style="fill:#d84425;fill-opacity:1;stroke:none;paint-order:markers stroke fill" transform="translate(591.163 -39.908)"/><path stroke="none" d="m2032.59 99.009 17.609 12.794a6.673 6.673.441 0 0 7.76.06l29.65-20.852a2.178 2.178 90.441 0 0 .026-3.544l-17.61-12.794a6.673 6.673.441 0 0-7.76-.06l-29.649 20.852a2.178 2.178 90.441 0 0-.027 3.544z" style="fill:#df6048;fill-opacity:1;stroke:none;paint-order:markers stroke fill" transform="translate(532.035 1.883)"/><path stroke="none" d="m2044.213 134.667 22.798.702a1.136 1.136 108.736 0 0 .697-2.057l-15.993-11.496z" style="fill:#652418;fill-opacity:.499982;stroke:none;paint-order:markers stroke fill" transform="translate(545.147 -40.042)"/><path stroke="none" d="m2049.224 53.155 19.31 14.047a10.778 10.778 49.8 0 1 3.31 3.918l10.135 20.387a.55.55 139.784 0 1-.817.69l-19.283-14.01a10.767 10.767 49.78 0 1-3.312-3.917l-10.158-20.426a.55.55 139.796 0 1 .815-.689z" style="fill:#dfa797;fill-opacity:1;stroke:none;paint-order:markers stroke fill" transform="translate(532.035 1.883)"/><path stroke="none" d="m2036.332 90.497 10.108-35.174a2.529 2.529 161.017 0 1 3.916-1.347l17.554 12.754a4.875 4.875 71.017 0 1 1.82 5.29l-10.108 35.174a2.529 2.529 161.017 0 1-3.916 1.348l-17.554-12.754a4.875 4.875 71.017 0 1-1.82-5.291z" style="fill:#d84425;fill-opacity:1;stroke:none;paint-order:markers stroke fill" transform="translate(532.035 1.883)"/><path stroke="none" d="m2032.59 99.009 17.609 12.794a6.673 6.673.441 0 0 7.76.06l29.65-20.852a2.178 2.178 90.441 0 0 .026-3.544l-17.61-12.794a6.673 6.673.441 0 0-7.76-.06l-29.649 20.852a2.178 2.178 90.441 0 0-.027 3.544z" style="fill:#df6048;fill-opacity:1;stroke:none;paint-order:markers stroke fill" transform="translate(472.84 43.646)"/><path stroke="none" d="m2044.213 134.667 22.798.702a1.136 1.136 108.736 0 0 .697-2.057l-15.993-11.496z" style="fill:#652418;fill-opacity:.499982;stroke:none;paint-order:markers stroke fill" transform="translate(485.953 1.72)"/><path stroke="none" d="m2049.224 53.155 19.31 14.047a10.778 10.778 49.8 0 1 3.31 3.918l10.135 20.387a.55.55 139.784 0 1-.817.69l-19.283-14.01a10.767 10.767 49.78 0 1-3.312-3.917l-10.158-20.426a.55.55 139.796 0 1 .815-.689z" style="fill:#dfa797;fill-opacity:1;stroke:none;paint-order:markers stroke fill" transform="translate(472.84 43.646)"/><path stroke="none" d="m2036.332 90.497 10.108-35.174a2.529 2.529 161.017 0 1 3.916-1.347l17.554 12.754a4.875 4.875 71.017 0 1 1.82 5.29l-10.108 35.174a2.529 2.529 161.017 0 1-3.916 1.348l-17.554-12.754a4.875 4.875 71.017 0 1-1.82-5.291z" style="fill:#d84425;fill-opacity:1;stroke:none;paint-order:markers stroke fill" transform="translate(472.84 43.646)"/><path d="M2695 96.895 2543 204h136.152c8.78 0 15.848-7.068 15.848-15.848z" style="display:inline;opacity:1;fill:#64a8f6;fill-opacity:1;stroke:none;stroke-width:.989998;stroke-linecap:butt;stroke-linejoin:miter;stroke-miterlimit:4;stroke-dasharray:none;stroke-dashoffset:0;stroke-opacity:1;marker:none;marker-start:none;marker-mid:none;marker-end:none;paint-order:normal;enable-background:new"/><path stroke="none" d="M2543 204h26.706L2695 115.711V96.895Z" style="opacity:1;fill:#00f090;fill-opacity:.344834;stroke:none;paint-order:markers stroke fill"/></g></svg>