<?xml version="1.0" encoding="UTF-8" standalone="no"?>
<!-- Created with Inkscape (http://www.inkscape.org/) -->

<svg
   width="108"
   height="108"
   viewBox="0 0 108 108"
   version="1.1"
   id="svg1"
   xmlns="http://www.w3.org/2000/svg"
   xmlns:svg="http://www.w3.org/2000/svg">
  <defs
     id="defs1">
    <filter
       style="color-interpolation-filters:sRGB"
       id="filter6"
       x="-0.026999907"
       y="-0.027000097"
       width="1.0539998"
       height="1.0540002">
      <feGaussianBlur
         stdDeviation="1.125004"
         id="feGaussianBlur6" />
    </filter>
  </defs>
  <path
     id="path6"
     style="mix-blend-mode:normal;fill:#000000;fill-opacity:0.37789416;paint-order:markers stroke fill;filter:url(#filter6)"
     d="m 11.990291,13 c 8.000056,-8 21.000148,-8 42.000296,-8 21.000148,0 34.00024,0 42.000296,8 8.000057,8 8.000057,21 8.000057,42 0,21 0,34 -8.000057,42 -8.000056,8 -21.000148,8 -42.000296,8 -21.000148,0 -34.00024,0 -42.000296,-8 C 3.9902344,89 3.9902344,76 3.9902344,55 c 0,-21 0,-34 8.0000566,-42 z" />
  <path
     id="path5"
     style="fill:#8ec038;paint-order:markers stroke fill;fill-opacity:1"
     d="m 11.990291,12 c 8.000056,-8 21.000148,-8 42.000296,-8 21.000148,0 34.00024,0 42.000296,8 8.000057,8 8.000057,21 8.000057,42 0,21 0,34 -8.000057,42 -8.000056,8 -21.000148,8 -42.000296,8 -21.000148,0 -34.00024,0 -42.000296,-8 C 3.9902344,88 3.9902344,75 3.9902344,54 c 0,-21 0,-34 8.0000566,-42 z" />
  <path
     id="path9"
     style="fill:#24281a;fill-opacity:1;stroke:none;stroke-width:1px;stroke-linecap:butt;stroke-linejoin:miter;stroke-opacity:1"
     d="m 70.999999,24.000015 -8.806638,26.417967 4.47266,13.414057 4.333978,2.16797 11.999999,-5.999999 z m -15.999997,7.999999 -8.806639,26.417966 4.47266,13.414058 4.333979,2.167969 L 67,68.000008 63.5332,57.599621 61.666021,52.000011 Z m -15.999998,7.999999 -11.999998,35.999994 11.999998,5.999999 11.999999,-5.999999 -3.4668,-10.400387 -1.867179,-5.59961 z" />
  <path
     id="path53"
     style="fill:#24281a;fill-opacity:1;stroke:none;stroke-width:1.375px;stroke-linecap:butt;stroke-linejoin:miter;stroke-opacity:1"
     d="m 17.082493,32.859388 c 0,0 -0.0767,5.576708 -2.75,8.249997 -2.673288,2.673291 -8.2499974,2.750001 -8.2499974,2.750001 0,0 5.5767094,0.0767 8.2499974,2.749998 2.673291,2.673292 2.75,8.25 2.75,8.25 0,0 0.0767,-5.576708 2.749999,-8.25 2.673291,-2.673288 8.25,-2.749998 8.25,-2.749998 0,0 -5.576709,-0.0767 -8.25,-2.750001 -2.673289,-2.673289 -2.749999,-8.249997 -2.749999,-8.249997 z" />
  <path
     id="path1"
     style="fill:#24281a;fill-opacity:1;stroke:none;stroke-width:4.00001;stroke-linecap:round;paint-order:markers fill stroke"
     d="M 103.98633 55.505859 L 16.371094 99.314453 C 17.014315 99.683835 17.680901 100.02662 18.373047 100.33984 C 18.529205 100.2676 18.693518 100.20885 18.871094 100.18359 L 21.013672 99.876953 L 22.994141 99.595703 L 22.970703 99.431641 C 22.829734 98.440369 23.538026 97.498402 24.529297 97.357422 L 26.673828 97.052734 L 28.652344 96.771484 L 28.630859 96.607422 C 28.489889 95.616113 29.196228 94.674183 30.1875 94.533203 L 32.332031 94.228516 L 34.3125 93.947266 L 34.289062 93.78125 C 34.148091 92.789979 34.854434 91.849964 35.845703 91.708984 L 37.990234 91.402344 L 39.970703 91.121094 L 39.947266 90.957031 C 39.806297 89.965762 40.512635 89.023793 41.503906 88.882812 L 43.648438 88.578125 L 45.628906 88.296875 L 45.605469 88.132812 C 45.464497 87.141554 46.172792 86.199574 47.164062 86.058594 L 49.308594 85.753906 L 51.287109 85.472656 L 51.263672 85.306641 C 51.122702 84.315371 51.830997 83.375355 52.822266 83.234375 L 54.966797 82.927734 L 56.947266 82.646484 L 56.923828 82.482422 C 56.782869 81.491163 57.489189 80.549183 58.480469 80.408203 L 60.625 80.103516 L 62.605469 79.822266 L 62.582031 79.658203 C 62.441061 78.666942 63.147393 77.724965 64.138672 77.583984 L 66.283203 77.279297 L 68.263672 76.998047 L 68.240234 76.832031 C 68.099264 75.840762 68.805595 74.900738 69.796875 74.759766 L 71.941406 74.453125 L 73.921875 74.171875 L 73.898438 74.007812 C 73.757469 73.016542 74.465772 72.074574 75.457031 71.933594 L 77.601562 71.628906 L 79.580078 71.347656 L 79.556641 71.183594 C 79.415672 70.192336 80.123973 69.250355 81.115234 69.109375 L 83.259766 68.804688 L 85.240234 68.523438 L 85.216797 68.357422 C 85.075835 67.366162 85.782177 66.426125 86.773438 66.285156 L 88.917969 65.978516 L 90.898438 65.697266 L 90.875 65.533203 C 90.734041 64.541945 91.440381 63.599964 92.431641 63.458984 L 94.576172 63.154297 L 96.556641 62.873047 L 96.533203 62.708984 C 96.392244 61.717726 97.100526 60.775735 98.091797 60.634766 L 100.23633 60.330078 L 102.21484 60.048828 L 102.19141 59.882812 C 102.05045 58.891554 102.75872 57.951516 103.75 57.810547 L 103.98242 57.777344 C 103.98362 57.020571 103.98614 56.28515 103.98633 55.505859 z M 103.97656 60.970703 C 103.68524 61.520416 103.14977 61.934385 102.49609 62.027344 L 100.51758 62.310547 L 98.537109 62.591797 C 98.690961 63.673628 97.919741 64.699656 96.837891 64.853516 L 94.857422 65.134766 L 92.878906 65.416016 C 93.032756 66.497847 92.261526 67.523885 91.179688 67.677734 L 89.199219 67.958984 L 87.21875 68.240234 C 87.372599 69.322073 86.603334 70.348102 85.521484 70.501953 L 83.541016 70.785156 L 81.560547 71.066406 C 81.714396 72.148235 80.94512 73.174276 79.863281 73.328125 L 77.882812 73.609375 L 75.902344 73.890625 C 76.056204 74.972464 75.284975 75.998493 74.203125 76.152344 L 72.224609 76.433594 L 70.244141 76.714844 C 70.398001 77.796685 69.626761 78.822714 68.544922 78.976562 L 66.564453 79.259766 L 64.585938 79.541016 C 64.739786 80.622844 63.968558 81.648883 62.886719 81.802734 L 60.90625 82.083984 L 58.925781 82.365234 C 59.079632 83.447076 58.310357 84.473104 57.228516 84.626953 L 55.248047 84.908203 L 53.267578 85.189453 C 53.421427 86.271292 52.652152 87.297323 51.570312 87.451172 L 49.589844 87.734375 L 47.609375 88.015625 C 47.763235 89.097467 46.991995 90.123494 45.910156 90.277344 L 43.931641 90.558594 L 41.951172 90.839844 C 42.105032 91.921684 41.333793 92.947712 40.251953 93.101562 L 38.271484 93.382812 L 36.291016 93.664062 C 36.444865 94.745902 35.675592 95.771929 34.59375 95.925781 L 32.613281 96.208984 L 30.632812 96.490234 C 30.786673 97.572074 30.017387 98.598103 28.935547 98.751953 L 26.955078 99.033203 L 24.974609 99.314453 C 25.128458 100.39629 24.357231 101.42232 23.275391 101.57617 L 22.179688 101.73242 C 23.870559 102.22488 25.67954 102.61727 27.626953 102.91797 L 28.652344 102.77148 L 28.630859 102.60742 C 28.489889 101.61615 29.196228 100.67418 30.1875 100.5332 L 32.332031 100.22852 L 34.3125 99.947266 L 34.289062 99.78125 C 34.148102 98.789981 34.854434 97.849962 35.845703 97.708984 L 37.990234 97.402344 L 39.970703 97.121094 L 39.947266 96.957031 C 39.806307 95.96576 40.512635 95.023793 41.503906 94.882812 L 43.648438 94.578125 L 45.628906 94.296875 L 45.605469 94.132812 C 45.464507 93.141554 46.172782 92.199574 47.164062 92.058594 L 49.308594 91.753906 L 51.287109 91.472656 L 51.263672 91.306641 C 51.122713 90.315369 51.830986 89.375355 52.822266 89.234375 L 54.966797 88.927734 L 56.947266 88.646484 L 56.923828 88.482422 C 56.782859 87.491152 57.489187 86.549184 58.480469 86.408203 L 60.625 86.103516 L 62.605469 85.822266 L 62.582031 85.658203 C 62.441061 84.666942 63.147403 83.724965 64.138672 83.583984 L 66.283203 83.279297 L 68.263672 82.998047 L 68.240234 82.832031 C 68.099264 81.840762 68.805603 80.900736 69.796875 80.759766 L 71.941406 80.453125 L 73.921875 80.171875 L 73.898438 80.007812 C 73.757476 79.016543 74.46577 78.074574 75.457031 77.933594 L 77.601562 77.628906 L 79.580078 77.347656 L 79.556641 77.183594 C 79.415682 76.192333 80.123973 75.250355 81.115234 75.109375 L 83.259766 74.804688 L 85.240234 74.523438 L 85.216797 74.357422 C 85.075838 73.366151 85.782169 72.426125 86.773438 72.285156 L 88.917969 71.978516 L 90.898438 71.697266 L 90.875 71.533203 C 90.734031 70.541943 91.440372 69.599964 92.431641 69.458984 L 94.576172 69.154297 L 96.556641 68.873047 L 96.533203 68.708984 C 96.392234 67.717726 97.100536 66.775735 98.091797 66.634766 L 100.23633 66.330078 L 102.21484 66.048828 L 102.19141 65.882812 C 102.05045 64.891554 102.75873 63.951516 103.75 63.810547 L 103.9375 63.783203 C 103.94883 62.847261 103.97108 61.945791 103.97656 60.970703 z M 103.88477 67.121094 C 103.57944 67.593564 103.08786 67.943188 102.49609 68.027344 L 100.51758 68.310547 L 98.537109 68.591797 C 98.690961 69.673628 97.919741 70.699656 96.837891 70.853516 L 94.857422 71.134766 L 92.878906 71.416016 C 93.032756 72.497845 92.261526 73.523885 91.179688 73.677734 L 89.199219 73.958984 L 87.21875 74.240234 C 87.372599 75.322073 86.603334 76.348102 85.521484 76.501953 L 83.541016 76.785156 L 81.560547 77.066406 C 81.714396 78.148234 80.94512 79.174276 79.863281 79.328125 L 77.882812 79.609375 L 75.902344 79.890625 C 76.056204 80.972464 75.284975 81.998495 74.203125 82.152344 L 72.224609 82.433594 L 70.244141 82.714844 C 70.398001 83.796685 69.626761 84.822714 68.544922 84.976562 L 66.564453 85.259766 L 64.585938 85.541016 C 64.739786 86.622844 63.968558 87.648885 62.886719 87.802734 L 60.90625 88.083984 L 58.925781 88.365234 C 59.079632 89.447076 58.310357 90.473104 57.228516 90.626953 L 55.248047 90.908203 L 53.267578 91.189453 C 53.421427 92.271293 52.652152 93.297323 51.570312 93.451172 L 49.589844 93.734375 L 47.609375 94.015625 C 47.763235 95.097465 46.991995 96.123494 45.910156 96.277344 L 43.931641 96.558594 L 41.951172 96.839844 C 42.105032 97.921684 41.333793 98.947712 40.251953 99.101562 L 38.271484 99.382812 L 36.291016 99.664062 C 36.444865 100.7459 35.675592 101.77192 34.59375 101.92578 L 32.613281 102.20898 L 30.632812 102.49023 C 30.672725 102.77087 30.64789 103.04776 30.574219 103.30664 C 32.252409 103.48745 34.093775 103.59477 35.955078 103.69336 L 37.990234 103.40234 L 39.970703 103.12109 L 39.947266 102.95703 C 39.806296 101.96577 40.512635 101.02379 41.503906 100.88281 L 43.648438 100.57812 L 45.628906 100.29688 L 45.605469 100.13281 C 45.464497 99.141558 46.172791 98.199572 47.164062 98.058594 L 49.308594 97.753906 L 51.287109 97.472656 L 51.263672 97.306641 C 51.122703 96.31537 51.830997 95.375355 52.822266 95.234375 L 54.966797 94.927734 L 56.947266 94.646484 L 56.923828 94.482422 C 56.782869 93.491153 57.489187 92.549183 58.480469 92.408203 L 60.625 92.103516 L 62.605469 91.822266 L 62.582031 91.658203 C 62.441062 90.666942 63.147392 89.724964 64.138672 89.583984 L 66.283203 89.279297 L 68.263672 88.998047 L 68.240234 88.832031 C 68.099265 87.840761 68.805593 86.900736 69.796875 86.759766 L 71.941406 86.453125 L 73.921875 86.171875 L 73.898438 86.007812 C 73.757465 85.016542 74.465771 84.074574 75.457031 83.933594 L 77.601562 83.628906 L 79.580078 83.347656 L 79.556641 83.183594 C 79.415671 82.192333 80.123974 81.250356 81.115234 81.109375 L 83.259766 80.804688 L 85.240234 80.523438 L 85.216797 80.357422 C 85.075838 79.366153 85.782177 78.426125 86.773438 78.285156 L 88.917969 77.978516 L 90.898438 77.697266 L 90.875 77.533203 C 90.734039 76.541943 91.440382 75.599964 92.431641 75.458984 L 94.576172 75.154297 L 96.556641 74.873047 L 96.533203 74.708984 C 96.392244 73.717726 97.100525 72.775735 98.091797 72.634766 L 100.23633 72.330078 L 102.21484 72.048828 L 102.19141 71.882812 C 102.05045 70.891553 102.75873 69.951516 103.75 69.810547 L 103.79297 69.804688 C 103.82608 68.925973 103.86287 68.039671 103.88477 67.121094 z M 103.61523 73.457031 C 103.31931 73.753331 102.93619 73.964757 102.49609 74.027344 L 100.51758 74.310547 L 98.537109 74.591797 C 98.690961 75.673628 97.919741 76.699656 96.837891 76.853516 L 94.857422 77.134766 L 92.878906 77.416016 C 93.032756 78.497845 92.261526 79.523883 91.179688 79.677734 L 89.199219 79.958984 L 87.21875 80.240234 C 87.372599 81.322073 86.603334 82.348104 85.521484 82.501953 L 83.541016 82.785156 L 81.560547 83.066406 C 81.714396 84.148234 80.94512 85.174274 79.863281 85.328125 L 77.882812 85.609375 L 75.902344 85.890625 C 76.056204 86.972464 75.284975 87.998495 74.203125 88.152344 L 72.224609 88.433594 L 70.244141 88.714844 C 70.398001 89.796685 69.626761 90.822714 68.544922 90.976562 L 66.564453 91.259766 L 64.585938 91.541016 C 64.739786 92.622845 63.968558 93.648884 62.886719 93.802734 L 60.90625 94.083984 L 58.925781 94.365234 C 59.079632 95.447074 58.310357 96.473103 57.228516 96.626953 L 55.248047 96.908203 L 53.267578 97.189453 C 53.421427 98.271293 52.652152 99.29732 51.570312 99.451172 L 49.589844 99.734375 L 47.609375 100.01562 C 47.763235 101.09748 46.991995 102.12348 45.910156 102.27734 L 43.931641 102.55859 L 41.951172 102.83984 C 42.004499 103.2148 41.940226 103.58064 41.796875 103.9082 C 43.679197 103.94607 45.618412 103.97693 47.669922 103.98633 L 49.308594 103.75391 L 51.287109 103.47266 L 51.263672 103.30664 C 51.122702 102.31537 51.830987 101.37531 52.822266 101.23438 L 54.966797 100.92773 L 56.947266 100.64648 L 56.923828 100.48242 C 56.782858 99.491166 57.489197 98.549183 58.480469 98.408203 L 60.625 98.103516 L 62.605469 97.822266 L 62.582031 97.658203 C 62.441059 96.666942 63.147402 95.724964 64.138672 95.583984 L 66.283203 95.279297 L 68.263672 94.998047 L 68.240234 94.832031 C 68.099265 93.840759 68.805604 92.900736 69.796875 92.759766 L 71.941406 92.453125 L 73.921875 92.171875 L 73.898438 92.007812 C 73.757476 91.016554 74.465761 90.074575 75.457031 89.933594 L 77.601562 89.628906 L 79.580078 89.347656 L 79.556641 89.183594 C 79.415682 88.192335 80.123965 87.250355 81.115234 87.109375 L 83.259766 86.804688 L 85.240234 86.523438 L 85.216797 86.357422 C 85.075828 85.366153 85.782169 84.426125 86.773438 84.285156 L 88.917969 83.978516 L 90.898438 83.697266 L 90.875 83.533203 C 90.734031 82.541945 91.440372 81.599964 92.431641 81.458984 L 94.576172 81.154297 L 96.556641 80.873047 L 96.533203 80.708984 C 96.392233 79.717724 97.100537 78.775735 98.091797 78.634766 L 100.23633 78.330078 L 102.21484 78.048828 L 102.19141 77.882812 C 102.06585 76.999835 102.61561 76.159844 103.4375 75.886719 C 103.50712 75.103425 103.56233 74.277843 103.61523 73.457031 z M 102.98828 79.880859 C 102.83278 79.947431 102.67026 80.002575 102.49609 80.027344 L 100.51758 80.310547 L 98.537109 80.591797 C 98.690961 81.673628 97.919741 82.699656 96.837891 82.853516 L 94.857422 83.134766 L 92.878906 83.416016 C 93.032756 84.497844 92.261526 85.523883 91.179688 85.677734 L 89.199219 85.958984 L 87.21875 86.240234 C 87.372599 87.322073 86.603334 88.348104 85.521484 88.501953 L 83.541016 88.785156 L 81.560547 89.066406 C 81.714396 90.148234 80.94512 91.174274 79.863281 91.328125 L 77.882812 91.609375 L 75.902344 91.890625 C 76.056204 92.972464 75.284975 93.998495 74.203125 94.152344 L 72.224609 94.433594 L 70.244141 94.714844 C 70.398001 95.796684 69.626761 96.822713 68.544922 96.976562 L 66.564453 97.259766 L 64.585938 97.541016 C 64.739786 98.622847 63.968558 99.648884 62.886719 99.802734 L 60.90625 100.08398 L 58.925781 100.36523 C 59.079632 101.44705 58.310357 102.4731 57.228516 102.62695 L 55.248047 102.9082 L 53.267578 103.18945 C 53.307089 103.46729 53.282854 103.7414 53.210938 103.99805 C 53.480792 103.99806 53.717691 104 53.990234 104 C 56.603641 104 59.091497 103.99979 61.462891 103.98438 L 62.605469 103.82227 L 62.582031 103.6582 C 62.441062 102.66693 63.147392 101.72496 64.138672 101.58398 L 66.283203 101.2793 L 68.263672 100.99805 L 68.240234 100.83203 C 68.099264 99.840766 68.805606 98.900736 69.796875 98.759766 L 71.941406 98.453125 L 73.921875 98.171875 L 73.898438 98.007812 C 73.757468 97.016552 74.465773 96.074574 75.457031 95.933594 L 77.601562 95.628906 L 79.580078 95.347656 L 79.556641 95.183594 C 79.41568 94.192333 80.123973 93.250355 81.115234 93.109375 L 83.259766 92.804688 L 85.240234 92.523438 L 85.216797 92.357422 C 85.075836 91.366152 85.782178 90.426128 86.773438 90.285156 L 88.917969 89.978516 L 90.898438 89.697266 L 90.875 89.533203 C 90.734041 88.541942 91.44038 87.599964 92.431641 87.458984 L 94.576172 87.154297 L 96.556641 86.873047 L 96.533203 86.708984 C 96.392241 85.717726 97.100526 84.775737 98.091797 84.634766 L 100.23633 84.330078 L 102.18945 84.052734 C 102.19495 84.029624 102.19962 84.005575 102.20508 83.982422 L 102.19141 83.882812 C 102.12307 83.402211 102.25901 82.935739 102.52539 82.564453 C 102.69882 81.69695 102.85356 80.806357 102.98828 79.880859 z M 101.62109 86.152344 L 100.51758 86.310547 L 98.537109 86.591797 C 98.690961 87.673628 97.919741 88.699656 96.837891 88.853516 L 94.857422 89.134766 L 92.878906 89.416016 C 93.032756 90.497844 92.261526 91.523883 91.179688 91.677734 L 89.199219 91.958984 L 87.21875 92.240234 C 87.372599 93.322073 86.603334 94.348104 85.521484 94.501953 L 83.541016 94.785156 L 81.560547 95.066406 C 81.714396 96.148235 80.94512 97.174273 79.863281 97.328125 L 77.882812 97.609375 L 75.902344 97.890625 C 76.056204 98.972467 75.284975 99.998508 74.203125 100.15234 L 72.224609 100.43359 L 70.244141 100.71484 C 70.398001 101.79666 69.626761 102.82271 68.544922 102.97656 L 66.564453 103.25977 L 64.585938 103.54102 C 64.604703 103.67297 64.609207 103.80478 64.601562 103.93359 C 67.919451 103.88516 71.05075 103.79756 73.890625 103.60352 C 73.961913 102.77316 74.602592 102.05511 75.457031 101.93359 L 77.601562 101.62891 L 79.580078 101.34766 L 79.556641 101.18359 C 79.415682 100.19232 80.123963 99.250355 81.115234 99.109375 L 83.259766 98.804688 L 85.240234 98.523438 L 85.216797 98.357422 C 85.075827 97.366152 85.782168 96.426128 86.773438 96.285156 L 88.917969 95.978516 L 90.898438 95.697266 L 90.875 95.533203 C 90.73403 94.541942 91.44037 93.599965 92.431641 93.458984 L 94.576172 93.154297 L 96.556641 92.873047 L 96.533203 92.708984 C 96.392233 91.717725 97.100536 90.775738 98.091797 90.634766 L 99.976562 90.367188 C 100.62374 89.05805 101.16646 87.653265 101.62109 86.152344 z M 98.748047 92.5625 L 98.537109 92.591797 C 98.550554 92.686336 98.549102 92.779905 98.548828 92.873047 C 98.617006 92.771044 98.681568 92.66581 98.748047 92.5625 z M 97.080078 94.792969 C 97.000252 94.81499 96.921734 94.841591 96.837891 94.853516 L 94.857422 95.134766 L 92.878906 95.416016 C 93.032756 96.497844 92.261526 97.523883 91.179688 97.677734 L 89.199219 97.958984 L 87.21875 98.240234 C 87.372599 99.322076 86.603334 100.34809 85.521484 100.50195 L 83.541016 100.78516 L 81.560547 101.06641 C 81.65608 101.73818 81.393996 102.38704 80.923828 102.82031 C 87.273824 101.7704 92.201613 99.788595 95.990234 96 C 96.37734 95.612897 96.729528 95.203826 97.080078 94.792969 z " />
  <path
     id="path35"
     style="fill:#24281a;fill-opacity:1;stroke:none;stroke-width:1.375px;stroke-linecap:butt;stroke-linejoin:miter;stroke-opacity:1"
     d="m 41.527776,6.8975887 c 0,0 -0.0767,5.5767083 -2.75,8.2499973 -2.673289,2.673289 -8.249998,2.750001 -8.249998,2.750001 0,0 5.576709,0.0767 8.249998,2.749998 2.673289,2.673289 2.75,8.25 2.75,8.25 0,0 0.0767,-5.576711 2.749999,-8.25 2.673289,-2.673289 8.250001,-2.749998 8.250001,-2.749998 0,0 -5.576712,-0.0767 -8.250001,-2.750001 -2.673289,-2.673289 -2.749999,-8.2499973 -2.749999,-8.2499973 z" />
  <path
     id="path36"
     style="fill:#24281a;fill-opacity:1;stroke:none;stroke-width:1.375px;stroke-linecap:butt;stroke-linejoin:miter;stroke-opacity:1"
     d="m 82.189979,8.0101856 c 0,0 -0.0767,5.5767084 -2.749999,8.2499974 -2.673288,2.673289 -8.249999,2.75 -8.249999,2.75 0,0 5.576711,0.0767 8.249999,2.749999 2.673289,2.673291 2.749999,8.25 2.749999,8.25 0,0 0.0767,-5.576709 2.750001,-8.25 2.673289,-2.673289 8.250003,-2.749999 8.250003,-2.749999 0,0 -5.576714,-0.0767 -8.250003,-2.75 -2.673289,-2.673289 -2.750001,-8.2499974 -2.750001,-8.2499974 z" />
  <path
     id="path7"
     style="fill:#f9f5b6;paint-order:markers stroke fill;fill-opacity:0.26056466"
     d="M 53.990234 4 C 32.990086 4 19.99029 4 11.990234 12 C 3.9901778 20 3.9902344 33 3.9902344 54 C 3.9902344 75 3.9901778 88 11.990234 96 C 19.99029 104 32.990086 104 53.990234 104 C 74.990382 104 87.990178 104 95.990234 96 C 103.99029 88 103.99023 75 103.99023 54 C 103.99023 33 103.99029 20 95.990234 12 C 87.990178 4 74.990382 4 53.990234 4 z M 50.150391 5.0019531 C 55.089879 5.001384 60.029577 4.9862935 64.96875 5.0527344 C 70.976825 5.1792676 76.883012 5.3291415 82.742188 6.5234375 C 87.637151 7.5003248 92.504128 9.5637159 95.890625 13.345703 C 99.668027 17.4323 101.25414 22.98686 102.01562 28.376953 C 102.49692 31.766534 102.71347 35.247684 102.83203 38.724609 C 103.06628 47.135965 102.99667 55.553287 102.94727 63.966797 C 102.84897 69.988511 102.72454 75.935317 101.6543 81.804688 C 100.73722 86.934871 98.759623 92.113242 94.84375 95.708984 C 90.82642 99.552171 85.286364 101.19597 79.908203 101.98047 C 75.438009 102.63501 70.858225 102.82657 66.267578 102.91797 C 58.221073 103.03824 50.173614 103.03166 42.126953 102.92773 C 36.161057 102.79465 30.313543 102.5989 24.496094 101.31641 C 19.704465 100.26463 14.987311 98.086651 11.765625 94.285156 C 7.9341424 89.939617 6.4954734 83.996574 5.8085938 78.453125 C 5.0075165 71.755764 5.0353686 64.940479 4.9941406 58.144531 C 5.0267994 49.842786 4.8521474 41.499527 5.4433594 33.242188 C 5.7607725 29.238177 6.2885965 25.129232 7.5917969 21.222656 C 9.0241575 16.786136 11.842414 12.749462 15.779297 10.195312 C 20.664171 7.0113832 26.608394 6.0530083 32.251953 5.5332031 C 38.129583 5.0290901 44.180502 5.0290641 50.150391 5.0019531 z " />
</svg>
