<?xml version="1.0" encoding="UTF-8" standalone="no"?>
<!-- Created with Inkscape (http://www.inkscape.org/) -->

<svg
   width="108"
   height="108"
   viewBox="0 0 108 108"
   version="1.1"
   id="svg1"
   xml:space="preserve"
   xmlns="http://www.w3.org/2000/svg"
   xmlns:svg="http://www.w3.org/2000/svg"><defs
     id="defs1" /><path
     id="path6"
     style="fill:#000000;fill-opacity:1;stroke:none;stroke-width:2;stroke-linecap:square;paint-order:markers stroke fill"
     d="m 70,23.023438 -8.87695,24.148437 c 1.44833,3.86207 2.89742,7.723837 4.3457,11.585937 L 70,61.023438 l 12,-6 z m -16,8 -8.87695,24.148437 c 1.44833,3.86207 2.89742,7.723837 4.3457,11.585937 L 54,69.023438 l 12,-6 z m -16,8 -12,32 12,6 12,-6 z" /><path
     id="path11"
     style="fill:#000000;fill-opacity:1;stroke:none;stroke-width:1.375px;stroke-linecap:butt;stroke-linejoin:miter;stroke-opacity:1"
     d="m 31,22 c 0,0 -0.0628,4.56276 -2.25,6.75 C 26.56276,30.93723 22,31 22,31 c 0,0 4.56276,0.0628 6.75,2.25 C 30.93724,35.43724 31,40 31,40 31,40 31.0628,35.43724 33.25,33.25 35.43724,31.06276 40,31 40,31 40,31 35.43724,30.9372 33.25,28.75 31.06276,26.56276 31,22 31,22 Z" /><path
     id="path242"
     style="fill:#000000;fill-opacity:1;stroke-width:0.999993;stroke-linecap:square;paint-order:markers stroke fill"
     d="m 108,49 -10,5 5,5 5,-5 z m -10,5 -20,10 5,5 z M 78,64 58,74 63,79 Z M 58,74 38,84 43,89 Z M 38,84 18,94 23,99 Z M 18,94 0,103 v 3 l 2,2 h 2 z" /><path
     id="path437"
     style="opacity:1;fill:#000000;fill-opacity:1;stroke-width:2;stroke-linecap:square;paint-order:markers stroke fill"
     d="m 93,59 5,5 5,-5 z m 10,0 5,5 v -5 z m 5,5 H 98 l 5,5 z m -5,5 5,5 v -5 z m 0,0 H 93 l 5,5 z m -5,5 5,5 5,-5 z m 0,0 H 88 l 5,5 z m -5,5 5,5 5,-5 z m 0,0 H 83 l 5,5 z m -5,5 5,5 5,-5 z m 0,0 H 78 l 5,5 z m -5,5 5,5 5,-5 z m 0,0 H 73 l 5,5 z m -5,5 5,5 5,-5 z m 0,0 H 68 l 5,5 z m -5,5 5,5 5,-5 z m 0,0 H 63 l 5,5 z m -5,5 4,4 h 2 l 4,-4 z m 0,0 H 58 l 4,4 h 2 z m -10,0 H 48 l 4,4 h 2 z m 0,0 5,-5 H 53 Z M 53,99 H 43 l 5,5 z m 0,0 5,-5 H 48 Z M 48,94 H 38 l 5,5 z m 0,0 5,-5 H 43 Z M 43,89 H 33 l 5,5 z m -5,5 H 28 l 5,5 z m -5,5 5,5 5,-5 z m 0,0 H 23 l 5,5 z m -5,5 4,4 h 2 l 4,-4 z m 0,0 H 18 l 4,4 h 2 z m -10,0 H 8 l 4,4 h 2 z m 0,0 5,-5 H 13 Z m 20,0 4,4 h 2 l 4,-4 z M 53,89 58,84 H 48 Z m 0,0 5,5 5,-5 z m 10,0 5,-5 H 58 Z m 0,0 5,5 5,-5 z m 10,0 5,-5 H 68 Z m -5,-5 5,-5 H 63 Z M 63,79 H 53 l 5,5 z m 10,0 5,-5 H 68 Z m 0,0 5,5 5,-5 z m 10,0 5,-5 H 78 Z m -5,-5 5,-5 H 73 Z m 5,-5 5,5 5,-5 z m 10,0 5,-5 H 88 Z M 68,94 H 58 l 5,5 z m 10,10 4,4 h 2 l 4,-4 z m 10,0 5,-5 H 83 Z m 0,0 4,4 h 2 l 4,-4 z m 10,0 5,-5 H 93 Z m 0,0 4,4 h 2 l 4,-4 z m 10,0 v -5 h -5 z m -5,-5 5,-5 H 98 Z M 98,94 H 88 l 5,5 z m 0,0 5,-5 H 93 Z m 5,-5 5,-5 H 98 Z m 0,0 5,5 v -5 z m 5,-5 v -5 h -5 z" /></svg>
