<?xml version="1.0" encoding="UTF-8" standalone="no"?>
<!-- Created with Inkscape (http://www.inkscape.org/) -->

<svg
   width="256"
   height="256"
   viewBox="0 0 256 256"
   version="1.1"
   id="svg1"
   sodipodi:docname="icon_linux.svg"
   inkscape:version="1.4 (e7c3feb, 2024-10-09)"
   inkscape:export-batch-path="../linux"
   inkscape:export-batch-name=""
   xml:space="preserve"
   xmlns:inkscape="http://www.inkscape.org/namespaces/inkscape"
   xmlns:sodipodi="http://sodipodi.sourceforge.net/DTD/sodipodi-0.dtd"
   xmlns:xlink="http://www.w3.org/1999/xlink"
   xmlns="http://www.w3.org/2000/svg"
   xmlns:svg="http://www.w3.org/2000/svg"><sodipodi:namedview
     id="namedview1"
     pagecolor="#ffffff"
     bordercolor="#000000"
     borderopacity="0.25"
     inkscape:showpageshadow="2"
     inkscape:pageopacity="0.0"
     inkscape:pagecheckerboard="0"
     inkscape:deskcolor="#d1d1d1"
     inkscape:zoom="2.8284271"
     inkscape:cx="109.77833"
     inkscape:cy="144.24978"
     inkscape:window-width="1920"
     inkscape:window-height="1131"
     inkscape:window-x="0"
     inkscape:window-y="0"
     inkscape:window-maximized="1"
     inkscape:current-layer="svg1"
     showgrid="false"><inkscape:grid
       id="grid1"
       units="px"
       originx="0"
       originy="0"
       spacingx="1"
       spacingy="1"
       empcolor="#0099e5"
       empopacity="0.30196078"
       color="#0099e5"
       opacity="0.14901961"
       empspacing="4"
       enabled="true"
       visible="false" /><inkscape:page
       x="0"
       y="0"
       width="256"
       height="256"
       id="page14"
       margin="0"
       bleed="0"
       inkscape:label="linux_icon"
       inkscape:export-filename="../web/icons/Icon-512.png"
       inkscape:export-xdpi="192"
       inkscape:export-ydpi="192" /><inkscape:page
       x="299"
       y="-6.5"
       width="108"
       height="108"
       id="page15"
       margin="0"
       bleed="0"
       inkscape:label="android_icon" /><inkscape:page
       x="417"
       y="0"
       width="16"
       height="16"
       id="page438"
       margin="0"
       bleed="0"
       inkscape:label="favicon" /></sodipodi:namedview><defs
     id="defs1"><linearGradient
       id="linearGradient1"
       inkscape:collect="always"><stop
         style="stop-color:#7bad31;stop-opacity:1;"
         offset="0"
         id="stop1" /><stop
         style="stop-color:#72a838;stop-opacity:1;"
         offset="0.10732212"
         id="stop3" /><stop
         style="stop-color:#62922f;stop-opacity:1;"
         offset="0.28392243"
         id="stop4" /><stop
         style="stop-color:#577f2a;stop-opacity:1;"
         offset="0.5"
         id="stop2" /></linearGradient><inkscape:path-effect
       effect="tiling"
       id="path-effect307"
       is_visible="true"
       lpeversion="1.3.1"
       unit="px"
       seed="1;1"
       lpesatellites=""
       num_rows="12"
       num_cols="11"
       gapx="0"
       gapy="0"
       offset="50"
       offset_type="false"
       scale="0"
       rotate="0"
       mirrorrowsx="false"
       mirrorrowsy="false"
       mirrorcolsx="false"
       mirrorcolsy="false"
       mirrortrans="false"
       shrink_interp="false"
       split_items="false"
       link_styles="false"
       interpolate_scalex="false"
       interpolate_scaley="true"
       interpolate_rotatex="false"
       interpolate_rotatey="true"
       random_scale="false"
       random_rotate="false"
       random_gap_y="false"
       random_gap_x="false"
       transformorigin="" /><inkscape:path-effect
       effect="fillet_chamfer"
       id="path-effect216"
       is_visible="true"
       lpeversion="1"
       nodesatellites_param="F,0,0,1,0,0,0,1 @ F,0,0,1,0,0,0,1 @ F,0,0,1,0,0,0,1 @ F,0,0,1,0,0,0,1 @ F,0,0,1,0,0,0,1 @ F,0,0,1,0,0,0,1 @ F,0,0,1,0,0,0,1 @ F,0,0,1,0,0,0,1"
       radius="0"
       unit="px"
       method="auto"
       mode="F"
       chamfer_steps="1"
       flexible="false"
       use_knot_distance="true"
       apply_no_radius="true"
       apply_with_radius="true"
       only_selected="true"
       hide_knots="false" /><inkscape:path-effect
       effect="fillet_chamfer"
       id="path-effect214"
       is_visible="true"
       lpeversion="1"
       nodesatellites_param="F,0,0,1,0,0,0,1 @ F,0,0,1,0,0,0,1 @ F,0,0,1,0,0,0,1 @ F,0,0,1,0,0,0,1 @ F,0,0,1,0,0,0,1 @ F,0,0,1,0,0,0,1 @ F,0,0,1,0,0,0,1 @ F,0,0,1,0,0,0,1"
       radius="0"
       unit="px"
       method="auto"
       mode="F"
       chamfer_steps="1"
       flexible="false"
       use_knot_distance="true"
       apply_no_radius="true"
       apply_with_radius="true"
       only_selected="true"
       hide_knots="false" /><inkscape:path-effect
       effect="tiling"
       id="path-effect116"
       is_visible="true"
       lpeversion="1.3.1"
       unit="px"
       seed="1;1"
       lpesatellites=""
       num_rows="11"
       num_cols="9"
       gapx="0"
       gapy="0"
       offset="50"
       offset_type="false"
       scale="0"
       rotate="0"
       mirrorrowsx="false"
       mirrorrowsy="false"
       mirrorcolsx="false"
       mirrorcolsy="false"
       mirrortrans="false"
       shrink_interp="false"
       split_items="false"
       link_styles="false"
       interpolate_scalex="false"
       interpolate_scaley="true"
       interpolate_rotatex="false"
       interpolate_rotatey="true"
       random_scale="false"
       random_rotate="false"
       random_gap_y="false"
       random_gap_x="false"
       transformorigin="" /><inkscape:path-effect
       effect="tiling"
       id="path-effect18"
       is_visible="true"
       lpeversion="1.3.1"
       unit="px"
       seed="1;1"
       lpesatellites=""
       num_rows="10"
       num_cols="9"
       gapx="0"
       gapy="0"
       offset="50"
       offset_type="false"
       scale="0"
       rotate="0"
       mirrorrowsx="false"
       mirrorrowsy="false"
       mirrorcolsx="false"
       mirrorcolsy="false"
       mirrortrans="false"
       shrink_interp="false"
       split_items="false"
       link_styles="false"
       interpolate_scalex="false"
       interpolate_scaley="true"
       interpolate_rotatex="false"
       interpolate_rotatey="true"
       random_scale="false"
       random_rotate="false"
       random_gap_y="false"
       random_gap_x="false"
       transformorigin="" /><inkscape:path-effect
       effect="fillet_chamfer"
       id="path-effect255"
       is_visible="true"
       lpeversion="1"
       nodesatellites_param="F,0,0,1,0,0,0,1 @ F,0,1,1,0,0.86163378,0,1 @ F,0,0,1,0,0,0,1 @ F,0,0,1,0,0,0,1 @ F,0,0,1,0,0,0,1 @ F,0,0,1,0,0,0,1 @ F,0,1,1,0,0.86163378,0,1 @ F,0,0,1,0,0,0,1 @ F,0,0,1,0,0,0,1 @ F,0,0,1,0,0,0,1 | F,0,0,1,0,0,0,1 @ F,0,1,1,0,0.86163378,0,1 @ F,0,0,1,0,0,0,1 @ F,0,0,1,0,0,0,1 @ F,0,0,1,0,0,0,1 @ F,0,0,1,0,0,0,1 @ F,0,1,1,0,0.86163378,0,1 @ F,0,0,1,0,0,0,1 @ F,0,0,1,0,0,0,1 @ F,0,0,1,0,0,0,1 | F,0,0,1,0,0,0,1 @ F,0,1,1,0,0.86163378,0,1 @ F,0,0,1,0,0,0,1 @ F,0,0,1,0,0,0,1 @ F,0,0,1,0,0,0,1 @ F,0,0,1,0,0,0,1 @ F,0,1,1,0,0.86163378,0,1 @ F,0,0,1,0,0,0,1 @ F,0,0,1,0,0,0,1 @ F,0,0,1,0,0,0,1"
       radius="0"
       unit="px"
       method="auto"
       mode="F"
       chamfer_steps="1"
       flexible="false"
       use_knot_distance="true"
       apply_no_radius="true"
       apply_with_radius="true"
       only_selected="true"
       hide_knots="false" /><inkscape:path-effect
       effect="fillet_chamfer"
       id="path-effect253"
       is_visible="true"
       lpeversion="1"
       nodesatellites_param="F,0,0,1,0,0,0,1 @ F,0,1,1,0,0.86163378,0,1 @ F,0,0,1,0,0,0,1 @ F,0,0,1,0,0,0,1 @ F,0,0,1,0,0,0,1 @ F,0,0,1,0,0,0,1 @ F,0,1,1,0,0.86163378,0,1 @ F,0,0,1,0,0,0,1 @ F,0,0,1,0,0,0,1 @ F,0,0,1,0,0,0,1 | F,0,0,1,0,0,0,1 @ F,0,1,1,0,0.86163378,0,1 @ F,0,0,1,0,0,0,1 @ F,0,0,1,0,0,0,1 @ F,0,0,1,0,0,0,1 @ F,0,0,1,0,0,0,1 @ F,0,1,1,0,0.86163378,0,1 @ F,0,0,1,0,0,0,1 @ F,0,0,1,0,0,0,1 @ F,0,0,1,0,0,0,1 | F,0,0,1,0,0,0,1 @ F,0,1,1,0,0.86163378,0,1 @ F,0,0,1,0,0,0,1 @ F,0,0,1,0,0,0,1 @ F,0,0,1,0,0,0,1 @ F,0,0,1,0,0,0,1 @ F,0,1,1,0,0.86163378,0,1 @ F,0,0,1,0,0,0,1 @ F,0,0,1,0,0,0,1 @ F,0,0,1,0,0,0,1"
       radius="0"
       unit="px"
       method="auto"
       mode="F"
       chamfer_steps="1"
       flexible="false"
       use_knot_distance="true"
       apply_no_radius="true"
       apply_with_radius="true"
       only_selected="true"
       hide_knots="false" /><inkscape:path-effect
       effect="tiling"
       id="path-effect69"
       is_visible="true"
       lpeversion="1.3.1"
       unit="px"
       seed="1;1"
       lpesatellites=""
       num_rows="15"
       num_cols="12"
       gapx="0"
       gapy="0"
       offset="50"
       offset_type="false"
       scale="0"
       rotate="0"
       mirrorrowsx="false"
       mirrorrowsy="false"
       mirrorcolsx="false"
       mirrorcolsy="false"
       mirrortrans="false"
       shrink_interp="false"
       split_items="false"
       link_styles="false"
       interpolate_scalex="false"
       interpolate_scaley="true"
       interpolate_rotatex="false"
       interpolate_rotatey="true"
       random_scale="false"
       random_rotate="false"
       random_gap_y="false"
       random_gap_x="false"
       transformorigin="" /><filter
       style="color-interpolation-filters:sRGB"
       id="filter6"
       x="-0.026999908"
       y="-0.027000098"
       width="1.0539998"
       height="1.0540003"><feGaussianBlur
         stdDeviation="1.125004"
         id="feGaussianBlur6" /></filter><filter
       inkscape:collect="always"
       style="color-interpolation-filters:sRGB"
       id="filter445"
       x="-0.03072"
       y="-0.03072"
       width="1.06144"
       height="1.06144"><feGaussianBlur
         inkscape:collect="always"
         stdDeviation="2.6624"
         id="feGaussianBlur445" /></filter><linearGradient
       inkscape:collect="always"
       xlink:href="#linearGradient1"
       id="linearGradient2"
       x1="24"
       y1="218"
       x2="128"
       y2="218"
       gradientUnits="userSpaceOnUse"
       spreadMethod="reflect" /></defs><rect
     style="opacity:1;fill:#000000;fill-opacity:0.5;stroke-width:2;stroke-linecap:square;paint-order:markers stroke fill;filter:url(#filter445)"
     id="rect445"
     width="208"
     height="208"
     x="24"
     y="26.389759"
     ry="16.516998" /><rect
     style="opacity:1;fill:#8ec038;fill-opacity:1;stroke-width:2;stroke-linecap:square;paint-order:markers stroke fill"
     id="rect440"
     width="208"
     height="188"
     x="24"
     y="24"
     ry="16.516998" /><path
     id="rect439"
     style="opacity:1;fill:url(#linearGradient2);fill-opacity:1;stroke-width:2;stroke-linecap:square;paint-order:markers stroke fill"
     d="M 24 204 L 24 215.48242 C 24 224.63284 31.367161 232 40.517578 232 L 215.48242 232 C 224.63284 232 232 224.63284 232 215.48242 L 232 204 L 24 204 z " /><rect
     style="opacity:1;fill:#8ec038;fill-opacity:1;stroke-width:2;stroke-linecap:square;paint-order:markers stroke fill"
     id="rect438"
     width="208"
     height="196"
     x="24"
     y="24"
     ry="16.516998" /><path
     id="path6"
     style="fill:#000000;fill-opacity:1;stroke:none;stroke-width:2;stroke-linecap:square;paint-order:markers stroke fill"
     d="M 369 16.523438 L 360.12305 40.671875 C 361.57138 44.533945 363.02047 48.395712 364.46875 52.257812 L 369 54.523438 L 381 48.523438 L 369 16.523438 z M 353 24.523438 L 344.12305 48.671875 C 345.57138 52.533945 347.02047 56.395712 348.46875 60.257812 L 353 62.523438 L 365 56.523438 L 353 24.523438 z M 337 32.523438 L 325 64.523438 L 337 70.523438 L 349 64.523438 L 337 32.523438 z " /><path
     id="path11"
     style="fill:#000000;fill-opacity:1;stroke:none;stroke-width:1.375px;stroke-linecap:butt;stroke-linejoin:miter;stroke-opacity:1"
     d="m 330,15.5 c 0,0 -0.0628,4.56276 -2.25,6.75 -2.18724,2.18723 -6.75,2.25 -6.75,2.25 0,0 4.56276,0.0628 6.75,2.25 2.18724,2.18724 2.25,6.75 2.25,6.75 0,0 0.0628,-4.56276 2.25,-6.75 2.18724,-2.18724 6.75,-2.25 6.75,-2.25 0,0 -4.56276,-0.0628 -6.75,-2.25 C 330.06276,20.06276 330,15.5 330,15.5 Z"
     sodipodi:nodetypes="cscscscsc" /><path
     id="path242"
     style="fill:#000000;fill-opacity:1;stroke-width:0.999993;stroke-linecap:square;paint-order:markers stroke fill"
     d="M 407 42.5 L 397 47.5 L 402 52.5 L 407 47.5 L 407 42.5 z M 397 47.5 L 377 57.5 L 382 62.5 L 397 47.5 z M 377 57.5 L 357 67.5 L 362 72.5 L 377 57.5 z M 357 67.5 L 337 77.5 L 342 82.5 L 357 67.5 z M 337 77.5 L 317 87.5 L 322 92.5 L 337 77.5 z M 317 87.5 L 299 96.5 L 299 99.5 L 301 101.5 L 303 101.5 L 317 87.5 z " /><path
     id="path14"
     style="fill:#1a2228;fill-opacity:1;stroke-width:2;stroke-linecap:square;paint-order:markers stroke fill"
     d="m 168,48 -22.04102,52.3457 c 5.09075,12.09001 10.18272,24.17951 15.27344,36.26953 L 168,140 200,124 Z m -40,20 -22.04102,52.3457 c 5.09075,12.09001 10.18272,24.17951 15.27344,36.26953 L 128,160 160,144 Z m -40,20 -32,76 32,16 32,-16 z" /><path
     id="path214"
     style="fill:#1a2228;fill-opacity:1;stroke-width:2;stroke-linecap:square;paint-order:markers stroke fill"
     d="m 103.92578,28.242188 c 0,0 -0.21072,9.564553 -5.05078,14.390624 -4.987809,4.97339 -14.875,5.125001 -14.875,5.125 0,0 9.894395,0.144396 14.875,5.125 4.9806,4.9806 5.125,14.875 5.125,14.875 0,0 0.1444,-9.8944 5.125,-14.875 4.9806,-4.980604 14.875,-5.125 14.875,-5.125 0,0 -9.86513,-0.173832 -14.875,-5.125 -4.87262,-4.815533 -5.19922,-14.390624 -5.19922,-14.390624 z M 51.925781,72.484375 c 0,0 -0.210718,9.564554 -5.050781,14.390625 C 41.887191,91.84839 32,92 32,92 c 0,0 9.894395,0.144395 14.875,5.125 C 51.855605,102.1056 52,112 52,112 c 0,0 0.144395,-9.8944 5.125,-14.875 C 62.105605,92.144395 72,92 72,92 72,92 62.134868,91.826168 57.125,86.875 52.252375,82.059467 51.925781,72.484375 51.925781,72.484375 Z"
     sodipodi:nodetypes="cscscscsccscscscsc" /><path
     id="path437"
     style="opacity:1;fill:#000000;fill-opacity:1;stroke-width:2;stroke-linecap:square;paint-order:markers stroke fill"
     d="M 462 72.5 L 467 77.5 L 472 72.5 L 462 72.5 z M 472 72.5 L 477 77.5 L 477 72.5 L 472 72.5 z M 477 77.5 L 467 77.5 L 472 82.5 L 477 77.5 z M 472 82.5 L 477 87.5 L 477 82.5 L 472 82.5 z M 472 82.5 L 462 82.5 L 467 87.5 L 472 82.5 z M 467 87.5 L 472 92.5 L 477 87.5 L 467 87.5 z M 467 87.5 L 457 87.5 L 462 92.5 L 467 87.5 z M 462 92.5 L 467 97.5 L 472 92.5 L 462 92.5 z M 462 92.5 L 452 92.5 L 457 97.5 L 462 92.5 z M 457 97.5 L 462 102.5 L 467 97.5 L 457 97.5 z M 457 97.5 L 447 97.5 L 452 102.5 L 457 97.5 z M 452 102.5 L 457 107.5 L 462 102.5 L 452 102.5 z M 452 102.5 L 442 102.5 L 447 107.5 L 452 102.5 z M 447 107.5 L 452 112.5 L 457 107.5 L 447 107.5 z M 447 107.5 L 437 107.5 L 442 112.5 L 447 107.5 z M 442 112.5 L 447 117.5 L 452 112.5 L 442 112.5 z M 442 112.5 L 432 112.5 L 437 117.5 L 442 112.5 z M 437 117.5 L 441 121.5 L 443 121.5 L 447 117.5 L 437 117.5 z M 437 117.5 L 427 117.5 L 431 121.5 L 433 121.5 L 437 117.5 z M 427 117.5 L 417 117.5 L 421 121.5 L 423 121.5 L 427 117.5 z M 427 117.5 L 432 112.5 L 422 112.5 L 427 117.5 z M 422 112.5 L 412 112.5 L 417 117.5 L 422 112.5 z M 422 112.5 L 427 107.5 L 417 107.5 L 422 112.5 z M 417 107.5 L 407 107.5 L 412 112.5 L 417 107.5 z M 417 107.5 L 422 102.5 L 412 102.5 L 417 107.5 z M 412 102.5 L 402 102.5 L 407 107.5 L 412 102.5 z M 407 107.5 L 397 107.5 L 402 112.5 L 407 107.5 z M 402 112.5 L 407 117.5 L 412 112.5 L 402 112.5 z M 402 112.5 L 392 112.5 L 397 117.5 L 402 112.5 z M 397 117.5 L 401 121.5 L 403 121.5 L 407 117.5 L 397 117.5 z M 397 117.5 L 387 117.5 L 391 121.5 L 393 121.5 L 397 117.5 z M 387 117.5 L 377 117.5 L 381 121.5 L 383 121.5 L 387 117.5 z M 387 117.5 L 392 112.5 L 382 112.5 L 387 117.5 z M 407 117.5 L 411 121.5 L 413 121.5 L 417 117.5 L 407 117.5 z M 422 102.5 L 427 97.5 L 417 97.5 L 422 102.5 z M 422 102.5 L 427 107.5 L 432 102.5 L 422 102.5 z M 432 102.5 L 437 97.5 L 427 97.5 L 432 102.5 z M 432 102.5 L 437 107.5 L 442 102.5 L 432 102.5 z M 442 102.5 L 447 97.5 L 437 97.5 L 442 102.5 z M 437 97.5 L 442 92.5 L 432 92.5 L 437 97.5 z M 432 92.5 L 422 92.5 L 427 97.5 L 432 92.5 z M 442 92.5 L 447 87.5 L 437 87.5 L 442 92.5 z M 442 92.5 L 447 97.5 L 452 92.5 L 442 92.5 z M 452 92.5 L 457 87.5 L 447 87.5 L 452 92.5 z M 447 87.5 L 452 82.5 L 442 82.5 L 447 87.5 z M 452 82.5 L 457 87.5 L 462 82.5 L 452 82.5 z M 462 82.5 L 467 77.5 L 457 77.5 L 462 82.5 z M 437 107.5 L 427 107.5 L 432 112.5 L 437 107.5 z M 447 117.5 L 451 121.5 L 453 121.5 L 457 117.5 L 447 117.5 z M 457 117.5 L 462 112.5 L 452 112.5 L 457 117.5 z M 457 117.5 L 461 121.5 L 463 121.5 L 467 117.5 L 457 117.5 z M 467 117.5 L 472 112.5 L 462 112.5 L 467 117.5 z M 467 117.5 L 471 121.5 L 473 121.5 L 477 117.5 L 467 117.5 z M 477 117.5 L 477 112.5 L 472 112.5 L 477 117.5 z M 472 112.5 L 477 107.5 L 467 107.5 L 472 112.5 z M 467 107.5 L 457 107.5 L 462 112.5 L 467 107.5 z M 467 107.5 L 472 102.5 L 462 102.5 L 467 107.5 z M 472 102.5 L 477 97.5 L 467 97.5 L 472 102.5 z M 472 102.5 L 477 107.5 L 477 102.5 L 472 102.5 z M 477 97.5 L 477 92.5 L 472 92.5 L 477 97.5 z "
     transform="translate(-70,-20)" /><rect
     style="fill:#8ec038;fill-opacity:1;paint-order:markers stroke fill"
     id="rect2-6"
     width="15.999999"
     height="16"
     x="417"
     y="0" /><path
     style="fill:#24281a;fill-opacity:1;stroke-width:1;paint-order:markers stroke fill"
     d="m 419.00006,12.000006 3,3 L 422,7.0000057 Z"
     id="path2"
     sodipodi:nodetypes="cccc" /><path
     style="fill:#525a46;fill-opacity:1;stroke-width:1;paint-order:markers stroke fill"
     d="m 425.00006,12.000006 -3,3 L 422,7.0000057 Z"
     id="path3"
     sodipodi:nodetypes="cccc" /><path
     id="path5"
     style="fill:#24281a;fill-opacity:1;stroke-width:1;paint-order:markers stroke fill"
     d="m 425.00003,4.0000057 -1.81641,3.02734 c 0.60535,1.00919 1.21068,2.0183903 1.81641,3.0273503 z" /><path
     id="path6-2"
     style="fill:#525a46;fill-opacity:1;stroke-width:1;paint-order:markers stroke fill"
     d="m 425.00003,4.0000057 v 6.0546903 c 0.24333,0.4053 0.48506,0.81157 0.72852,1.21679 l 2.27148,-2.27148 z" /><path
     id="path11-9"
     style="fill:#24281a;fill-opacity:1;stroke-width:1;paint-order:markers stroke fill"
     d="m 428,1.0000057 -1.81641,3.02734 c 0.60535,1.00919 1.21068,2.01839 1.81641,3.02735 z" /><path
     id="path12"
     style="fill:#525a46;fill-opacity:1;stroke-width:1;paint-order:markers stroke fill"
     d="m 428,1.0000057 v 6.05469 c 0.24333,0.4053 0.48506,0.81157 0.72852,1.21679 L 431,6.0000057 Z" /><path
     style="fill:#525a46;fill-opacity:1;stroke:#525a46;stroke-linecap:square;stroke-opacity:1;paint-order:markers stroke fill"
     d="M 423,16.000006 434,5.0000057"
     id="path13" /><path
     style="fill:#525a46;fill-opacity:1;stroke:#24281a;stroke-linecap:square;stroke-opacity:1;paint-order:markers stroke fill"
     d="M 423,18.707116 434,7.7071157"
     id="path14-1" /><path
     style="fill:#525a46;fill-opacity:1;stroke:#525a46;stroke-linecap:square;stroke-opacity:1;paint-order:markers stroke fill"
     d="m 423,21.707116 11,-11"
     id="path15" /><path
     style="fill:#525a46;fill-opacity:1;stroke:#24281a;stroke-linecap:square;stroke-opacity:1;paint-order:markers stroke fill"
     d="m 423,24.707116 11,-11"
     id="path16" /><path
     id="path17"
     style="fill:#525a46;fill-opacity:1;stroke:none;stroke-linecap:square;stroke-opacity:1;paint-order:markers stroke fill"
     d="m 420,1.0000057 -0.66602,1.33398 -1.33398,0.66602 1.33398,0.66602 0.66602,1.33398 0.66602,-1.33398 1.33398,-0.66602 -1.33398,-0.66602 z" /><path
     id="rect444"
     style="opacity:1;fill:#1a2228;fill-opacity:1;stroke-width:2;stroke-linecap:square;paint-order:markers stroke fill"
     d="M 232 126.06055 L 188.00195 148.05859 L 199.94336 160 L 176.06055 160 L 188.00195 148.05859 L 140.00195 172.05859 L 151.94336 184 L 128.06055 184 L 140.00195 172.05859 L 92.001953 196.05859 L 103.94336 208 L 80.060547 208 L 92.001953 196.05859 L 44.119141 220 L 68.0625 220 L 80.03125 208.03125 L 92 220 L 103.97266 208.02734 L 104.00195 208.05859 L 104.03125 208.03125 L 116 220 L 128 208 L 104.06055 208 L 116.03125 196.03125 L 128 208 L 140 196 L 116.06055 196 L 128.03125 184.03125 L 140 196 L 151.97266 184.02734 L 152.00195 184.05859 L 152.03125 184.03125 L 164 196 L 176 184 L 152.06055 184 L 164.03125 172.03125 L 176 184 L 188 172 L 164.06055 172 L 176.03125 160.03125 L 188 172 L 199.97266 160.02734 L 200.00195 160.05859 L 200.03125 160.03125 L 212 172 L 224 160 L 200.06055 160 L 212.03125 148.03125 L 224 160 L 232 152 L 232 148 L 212.06055 148 L 224.03125 136.03125 L 232 144 L 232 136 L 224.06055 136 L 232 128.06055 L 232 126.06055 z M 224 160 L 232 168 L 232 160 L 224 160 z M 212 172 L 224 184 L 232 176 L 232 172 L 212 172 z M 212 172 L 188 172 L 200 184 L 212 172 z M 200 184 L 212 196 L 224 184 L 200 184 z M 200 184 L 176 184 L 188 196 L 200 184 z M 188 196 L 200 208 L 212 196 L 188 196 z M 188 196 L 164 196 L 176 208 L 188 196 z M 176 208 L 188 220 L 200 208 L 176 208 z M 176 208 L 152 208 L 164 220 L 176 208 z M 152 208 L 128 208 L 140 220 L 152 208 z M 152 208 L 164 196 L 140 196 L 152 208 z M 200 208 L 212 220 L 224 208 L 200 208 z M 224 208 L 232 200 L 232 196 L 212 196 L 224 208 z M 224 208 L 228.99219 212.99219 C 230.04663 211.49383 230.8521 209.81143 231.36328 208 L 224 208 z M 224 184 L 232 192 L 232 184 L 224 184 z " /><path
     id="rect446"
     style="opacity:1;fill:#ffffff;fill-opacity:0.30000001;stroke-width:2;stroke-linecap:square;paint-order:markers stroke fill"
     d="M 40.517578 24 C 31.367161 24 24 31.367161 24 40.517578 L 24 203.48242 C 24 212.63284 31.367161 220 40.517578 220 L 215.48242 220 C 224.63284 220 232 212.63284 232 203.48242 L 232 40.517578 C 232 31.367161 224.63284 24 215.48242 24 L 40.517578 24 z M 41 28 L 215 28 C 222.202 28 228 33.798 228 41 L 228 203 C 228 210.202 222.202 216 215 216 L 41 216 C 33.798 216 28 210.202 28 203 L 28 41 C 28 33.798 33.798 28 41 28 z " /></svg>
