<?xml version="1.0" encoding="UTF-8" standalone="no"?>
<!-- Created with Inkscape (http://www.inkscape.org/) -->

<svg
   width="108"
   height="108"
   viewBox="0 0 108 108"
   version="1.1"
   id="svg1"
   sodipodi:docname="icon_linux.svg"
   inkscape:version="1.4 (e7c3feb, 2024-10-09)"
   inkscape:export-batch-path="../linux/flatpak"
   inkscape:export-batch-name=""
   xmlns:inkscape="http://www.inkscape.org/namespaces/inkscape"
   xmlns:sodipodi="http://sodipodi.sourceforge.net/DTD/sodipodi-0.dtd"
   xmlns="http://www.w3.org/2000/svg"
   xmlns:svg="http://www.w3.org/2000/svg">
  <sodipodi:namedview
     id="namedview1"
     pagecolor="#ffffff"
     bordercolor="#000000"
     borderopacity="0.25"
     inkscape:showpageshadow="2"
     inkscape:pageopacity="0.0"
     inkscape:pagecheckerboard="0"
     inkscape:deskcolor="#d1d1d1"
     inkscape:zoom="4"
     inkscape:cx="18.25"
     inkscape:cy="98.500001"
     inkscape:window-width="1920"
     inkscape:window-height="1131"
     inkscape:window-x="0"
     inkscape:window-y="0"
     inkscape:window-maximized="1"
     inkscape:current-layer="svg1"
     showgrid="false">
    <inkscape:grid
       id="grid1"
       units="px"
       originx="0"
       originy="0"
       spacingx="1"
       spacingy="1"
       empcolor="#0099e5"
       empopacity="0.30196078"
       color="#0099e5"
       opacity="0.14901961"
       empspacing="4"
       enabled="true"
       visible="false" />
    <inkscape:page
       x="0"
       y="0"
       width="108"
       height="108"
       id="page14"
       margin="0"
       bleed="0" />
    <inkscape:page
       x="118"
       y="0"
       width="108"
       height="108"
       id="page15"
       margin="0"
       bleed="0" />
  </sodipodi:namedview>
  <defs
     id="defs1">
    <inkscape:path-effect
       effect="fillet_chamfer"
       id="path-effect255"
       is_visible="true"
       lpeversion="1"
       nodesatellites_param="F,0,0,1,0,0,0,1 @ F,0,1,1,0,0.86163378,0,1 @ F,0,0,1,0,0,0,1 @ F,0,0,1,0,0,0,1 @ F,0,0,1,0,0,0,1 @ F,0,0,1,0,0,0,1 @ F,0,1,1,0,0.86163378,0,1 @ F,0,0,1,0,0,0,1 @ F,0,0,1,0,0,0,1 @ F,0,0,1,0,0,0,1 | F,0,0,1,0,0,0,1 @ F,0,1,1,0,0.86163378,0,1 @ F,0,0,1,0,0,0,1 @ F,0,0,1,0,0,0,1 @ F,0,0,1,0,0,0,1 @ F,0,0,1,0,0,0,1 @ F,0,1,1,0,0.86163378,0,1 @ F,0,0,1,0,0,0,1 @ F,0,0,1,0,0,0,1 @ F,0,0,1,0,0,0,1 | F,0,0,1,0,0,0,1 @ F,0,1,1,0,0.86163378,0,1 @ F,0,0,1,0,0,0,1 @ F,0,0,1,0,0,0,1 @ F,0,0,1,0,0,0,1 @ F,0,0,1,0,0,0,1 @ F,0,1,1,0,0.86163378,0,1 @ F,0,0,1,0,0,0,1 @ F,0,0,1,0,0,0,1 @ F,0,0,1,0,0,0,1"
       radius="0"
       unit="px"
       method="auto"
       mode="F"
       chamfer_steps="1"
       flexible="false"
       use_knot_distance="true"
       apply_no_radius="true"
       apply_with_radius="true"
       only_selected="true"
       hide_knots="false" />
    <inkscape:path-effect
       effect="fillet_chamfer"
       id="path-effect253"
       is_visible="true"
       lpeversion="1"
       nodesatellites_param="F,0,0,1,0,0,0,1 @ F,0,1,1,0,0.86163378,0,1 @ F,0,0,1,0,0,0,1 @ F,0,0,1,0,0,0,1 @ F,0,0,1,0,0,0,1 @ F,0,0,1,0,0,0,1 @ F,0,1,1,0,0.86163378,0,1 @ F,0,0,1,0,0,0,1 @ F,0,0,1,0,0,0,1 @ F,0,0,1,0,0,0,1 | F,0,0,1,0,0,0,1 @ F,0,1,1,0,0.86163378,0,1 @ F,0,0,1,0,0,0,1 @ F,0,0,1,0,0,0,1 @ F,0,0,1,0,0,0,1 @ F,0,0,1,0,0,0,1 @ F,0,1,1,0,0.86163378,0,1 @ F,0,0,1,0,0,0,1 @ F,0,0,1,0,0,0,1 @ F,0,0,1,0,0,0,1 | F,0,0,1,0,0,0,1 @ F,0,1,1,0,0.86163378,0,1 @ F,0,0,1,0,0,0,1 @ F,0,0,1,0,0,0,1 @ F,0,0,1,0,0,0,1 @ F,0,0,1,0,0,0,1 @ F,0,1,1,0,0.86163378,0,1 @ F,0,0,1,0,0,0,1 @ F,0,0,1,0,0,0,1 @ F,0,0,1,0,0,0,1"
       radius="0"
       unit="px"
       method="auto"
       mode="F"
       chamfer_steps="1"
       flexible="false"
       use_knot_distance="true"
       apply_no_radius="true"
       apply_with_radius="true"
       only_selected="true"
       hide_knots="false" />
    <inkscape:path-effect
       effect="tiling"
       id="path-effect69"
       is_visible="true"
       lpeversion="1.3.1"
       unit="px"
       seed="1;1"
       lpesatellites=""
       num_rows="15"
       num_cols="12"
       gapx="0"
       gapy="0"
       offset="50"
       offset_type="false"
       scale="0"
       rotate="0"
       mirrorrowsx="false"
       mirrorrowsy="false"
       mirrorcolsx="false"
       mirrorcolsy="false"
       mirrortrans="false"
       shrink_interp="false"
       split_items="false"
       link_styles="false"
       interpolate_scalex="false"
       interpolate_scaley="true"
       interpolate_rotatex="false"
       interpolate_rotatey="true"
       random_scale="false"
       random_rotate="false"
       random_gap_y="false"
       random_gap_x="false"
       transformorigin="" />
    <filter
       style="color-interpolation-filters:sRGB"
       id="filter6"
       x="-0.026999907"
       y="-0.027000097"
       width="1.0539998"
       height="1.0540002">
      <feGaussianBlur
         stdDeviation="1.125004"
         id="feGaussianBlur6" />
    </filter>
    <filter
       inkscape:collect="always"
       style="color-interpolation-filters:sRGB"
       id="filter3"
       x="-0.056138552"
       y="-0.056138948"
       width="1.1122771"
       height="1.1122779">
      <feGaussianBlur
         inkscape:collect="always"
         stdDeviation="2.0561537"
         id="feGaussianBlur3" />
    </filter>
    <filter
       inkscape:collect="always"
       style="color-interpolation-filters:sRGB"
       id="filter4"
       x="-0.030719894"
       y="-0.03072011"
       width="1.0614398"
       height="1.0614402">
      <feGaussianBlur
         inkscape:collect="always"
         stdDeviation="1.1251595"
         id="feGaussianBlur4" />
    </filter>
    <filter
       inkscape:collect="always"
       style="color-interpolation-filters:sRGB"
       id="filter14"
       x="-0.047454241"
       y="-0.048558455"
       width="1.0949085"
       height="1.0971169">
      <feGaussianBlur
         inkscape:collect="always"
         stdDeviation="1.739043"
         id="feGaussianBlur14" />
    </filter>
  </defs>
  <rect
     style="mix-blend-mode:normal;fill:#000000;fill-opacity:0.80063373;stroke-width:0.999993;stroke-linecap:square;paint-order:markers stroke fill;filter:url(#filter14)"
     id="rect14"
     width="87.952164"
     height="85.952141"
     x="10"
     y="12.673703"
     ry="7" />
  <rect
     style="fill:#446925;fill-opacity:1;stroke-width:0.999993;stroke-linecap:square;paint-order:markers stroke fill"
     id="rect1"
     width="87.952164"
     height="87.952141"
     x="10"
     y="10"
     ry="7" />
  <rect
     style="fill:#8ec038;fill-opacity:1;stroke-width:0.999993;stroke-linecap:square;paint-order:markers stroke fill"
     id="rect2"
     width="88"
     height="84"
     x="10"
     y="10"
     ry="7" />
  <path
     id="path3"
     style="mix-blend-mode:normal;fill:#000000;fill-opacity:0.462919;stroke-width:1;paint-order:markers stroke fill;filter:url(#filter3)"
     d="m 135.08093,18.46699 c 7.03227,-7.03222 18.45971,-7.03222 36.91942,-7.03222 18.45972,0 29.88716,0 36.91943,7.03222 7.03227,7.03222 7.03227,18.45959 7.03227,36.91917 0,18.45958 0,29.88694 -7.03227,36.91916 -7.03227,7.03222 -18.45971,7.03222 -36.91943,7.03222 -18.45971,0 -29.88715,0 -36.91942,-7.03222 -7.03227,-7.03222 -7.03227,-18.45958 -7.03227,-36.91916 0,-18.45958 0,-29.88695 7.03227,-36.91917 z" />
  <path
     id="path4"
     style="mix-blend-mode:normal;fill:#000000;fill-opacity:0.569029;stroke-width:1;paint-order:markers stroke fill;filter:url(#filter4)"
     d="m 135.08093,18.46699 c 7.03227,-7.03222 18.45971,-7.03222 36.91942,-7.03222 18.45972,0 29.88716,0 36.91943,7.03222 7.03227,7.03222 7.03227,18.45959 7.03227,36.91917 0,18.45958 0,29.88694 -7.03227,36.91916 -7.03227,7.03222 -18.45971,7.03222 -36.91943,7.03222 -18.45971,0 -29.88715,0 -36.91942,-7.03222 -7.03227,-7.03222 -7.03227,-18.45958 -7.03227,-36.91916 0,-18.45958 0,-29.88695 7.03227,-36.91917 z" />
  <path
     id="path5"
     style="fill:#ea9888;fill-opacity:1;stroke-width:1;paint-order:markers stroke fill"
     d="m 135.08093,17.08084 c 7.03227,-7.03223 18.45971,-7.03223 36.91942,-7.03223 18.45972,0 29.88716,0 36.91943,7.03223 7.03227,7.03222 7.03227,18.45958 7.03227,36.91916 0,18.459584 0,29.88694 -7.03227,36.91917 -7.03227,7.03222 -18.45971,7.03222 -36.91943,7.03222 -18.45971,0 -29.88715,0 -36.91942,-7.03222 C 128.04866,83.88694 128.04866,72.459584 128.04866,54 c 0,-18.45958 0,-29.88694 7.03227,-36.91916 z" />
  <path
     id="path9"
     style="fill:#1e212e;fill-opacity:1;stroke:none;stroke-width:1px;stroke-linecap:butt;stroke-linejoin:miter;stroke-opacity:1"
     d="m 189.00977,24.00002 -8.80664,26.41796 4.47266,13.41406 4.33398,2.16797 11.99999,-6 z m -16,8 -8.80664,26.41796 4.47266,13.414059 4.33398,2.167969 12,-5.999998 -3.4668,-10.40039 -1.86718,-5.59961 z m -16,7.99999 -12,35.999998 12,6.000002 12,-6.000002 -3.4668,-10.400388 -1.86718,-5.59961 z" />
  <path
     id="path1"
     style="fill:#1e212e;fill-opacity:1;stroke:none;stroke-width:4.00001;stroke-linecap:round;paint-order:markers fill stroke"
     d="M 215.94141,58.5332 142.26172,95.375 c 1.35883,0.49949 2.81334,0.90673 4.37891,1.23047 -0.13976,-0.99059 0.56602,-1.93138 1.55664,-2.07227 l 2.14453,-0.30468 1.98047,-0.28125 -0.0234,-0.16602 c -0.14097,-0.99127 0.56537,-1.93129 1.55664,-2.07227 l 2.14453,-0.30664 1.98047,-0.28125 -0.0234,-0.16406 c -0.14097,-0.99127 0.56537,-1.93324 1.55664,-2.07422 l 2.14453,-0.30468 1.98047,-0.28125 -0.0234,-0.16407 c -0.14098,-0.99126 0.56732,-1.93324 1.55859,-2.07422 l 2.14453,-0.30468 1.97852,-0.28125 -0.0234,-0.16602 c -0.14097,-0.99127 0.56732,-1.93128 1.55859,-2.07226 l 2.14453,-0.30665 1.98047,-0.28125 -0.0234,-0.16406 c -0.14095,-0.99126 0.56537,-1.93324 1.55665,-2.07422 l 2.14453,-0.30468 1.98047,-0.28125 -0.0234,-0.16407 c -0.14097,-0.99126 0.56536,-1.933234 1.55664,-2.074215 l 2.14453,-0.304687 1.98047,-0.28125 -0.0234,-0.166016 c -0.14097,-0.991269 0.56536,-1.931293 1.55664,-2.072265 l 2.14453,-0.306641 1.98047,-0.28125 -0.0234,-0.164063 c -0.14096,-0.99127 0.56734,-1.933238 1.5586,-2.074218 l 2.14453,-0.304688 1.97851,-0.28125 -0.0234,-0.164062 c -0.14097,-0.991258 0.56733,-1.933239 1.55859,-2.074219 l 2.14453,-0.304687 1.98047,-0.281249 -0.0234,-0.16602 c -0.14096,-0.99126 0.56538,-1.93129 1.55664,-2.07226 l 2.14454,-0.30664 1.98046,-0.28125 -0.0234,-0.16407 c -0.14096,-0.99125 0.56538,-1.93323 1.55664,-2.07421 l 2.14453,-0.30469 1.98047,-0.28125 -0.0234,-0.16406 c -0.13278,-0.93377 0.49152,-1.81527 1.39258,-2.03321 0.005,-0.68137 0.004,-1.43878 0.006,-2.14258 z m -0.0645,5.83985 c -0.28242,0.24942 -0.63385,0.42423 -1.02929,0.48047 l -1.98047,0.28125 -1.97852,0.28125 c 0.15385,1.08183 -0.61738,2.10787 -1.69922,2.26172 l -1.98046,0.28125 -1.98047,0.28125 c 0.15385,1.081834 -0.61542,2.107863 -1.69727,2.261714 l -1.98047,0.283203 -1.98047,0.28125 c 0.15385,1.081829 -0.61542,2.10787 -1.69726,2.261719 l -1.98047,0.28125 -1.98047,0.28125 c 0.15386,1.081839 -0.61737,2.107868 -1.69922,2.261719 l -1.97851,0.28125 -1.98047,0.28125 c 0.15386,1.081841 -0.61738,2.107875 -1.69922,2.261715 l -1.98047,0.28321 -1.97852,0.28125 c 0.15385,1.08182 -0.61738,2.10786 -1.69921,2.26171 l -1.98047,0.28125 -1.98047,0.28125 c 0.15385,1.08185 -0.61543,2.10787 -1.69727,2.26172 l -1.98047,0.28125 -1.98047,0.28125 c 0.15385,1.08184 -0.61542,2.10787 -1.69726,2.26172 l -1.98047,0.28321 -1.98047,0.28125 c 0.15386,1.08184 -0.61738,2.10786 -1.69922,2.26171 l -1.97851,0.28125 -1.98047,0.28125 c 0.15386,1.08184 -0.61738,2.10787 -1.69922,2.26172 l -1.98047,0.28125 -1.98047,0.28125 c 0.15385,1.08184 -0.61542,2.10787 -1.69726,2.26172 l -1.98047,0.2832 -1.98047,0.28125 c 0.023,0.16193 0.0182,0.32184 0.002,0.47852 1.83621,0.2907 3.81923,0.49368 5.93555,0.63672 l 1.41992,-0.20313 1.98047,-0.28125 -0.0234,-0.16406 c -0.14096,-0.99127 0.56537,-1.93324 1.55664,-2.07422 l 2.14453,-0.30468 1.98047,-0.28125 -0.0234,-0.16407 c -0.14097,-0.99126 0.56731,-1.93324 1.55859,-2.07422 l 2.14453,-0.30468 1.97852,-0.28125 -0.0234,-0.16602 c -0.14096,-0.99127 0.56731,-1.93128 1.55859,-2.07226 l 2.14453,-0.30665 1.98047,-0.28125 -0.0234,-0.16406 c -0.14096,-0.99127 0.56536,-1.93324 1.55665,-2.07422 l 2.14453,-0.30468 1.98047,-0.28125 -0.0234,-0.16407 c -0.14097,-0.99126 0.56537,-1.93323 1.55664,-2.07422 l 2.14453,-0.30468 1.98047,-0.28125 -0.0234,-0.16602 c -0.14097,-0.99127 0.56537,-1.93129 1.55664,-2.07226 l 2.14453,-0.30664 1.98047,-0.28125 -0.0234,-0.16407 c -0.14096,-0.99127 0.56734,-1.93324 1.5586,-2.074215 l 2.14453,-0.304688 1.97851,-0.28125 -0.0234,-0.164062 c -0.14096,-0.991261 0.56733,-1.933239 1.55859,-2.074219 l 2.14453,-0.304687 1.98047,-0.28125 -0.0234,-0.166016 c -0.14096,-0.991271 0.56538,-1.931297 1.55664,-2.072266 l 2.14454,-0.30664 1.98046,-0.28125 -0.0234,-0.164063 c -0.14097,-0.99126 0.56537,-1.933239 1.55664,-2.074219 l 2.14453,-0.304687 1.98047,-0.28125 -0.0234,-0.164058 c -0.12788,-0.89921 0.44587,-1.75086 1.29297,-2.00782 0.0221,-0.73938 0.0266,-1.55778 0.041,-2.32812 z m -0.22656,6.171873 c -0.23685,0.155867 -0.50684,0.266512 -0.80273,0.308594 l -1.98047,0.28125 -1.97852,0.28125 c 0.15385,1.081829 -0.61738,2.107869 -1.69922,2.261718 l -1.98046,0.28125 -1.98047,0.28125 c 0.15385,1.081839 -0.61542,2.107868 -1.69727,2.261719 l -1.98047,0.283203 -1.98047,0.28125 c 0.15385,1.081833 -0.61542,2.107873 -1.69726,2.261723 l -1.98047,0.28125 -1.98047,0.28125 c 0.15386,1.08184 -0.61737,2.10787 -1.69922,2.26172 l -1.97851,0.28125 -1.98047,0.28125 c 0.15386,1.08184 -0.61738,2.10787 -1.69922,2.26171 l -1.98047,0.28321 -1.97852,0.28125 c 0.15385,1.08183 -0.61738,2.10787 -1.69921,2.26172 l -1.98047,0.28125 -1.98047,0.28125 c 0.15385,1.08184 -0.61543,2.10787 -1.69727,2.26171 l -1.98047,0.28125 -1.98047,0.28125 c 0.15385,1.08184 -0.61542,2.10787 -1.69726,2.26172 l -1.98047,0.28321 -1.98047,0.28125 c 0.15386,1.08184 -0.61738,2.10787 -1.69922,2.26172 l -1.97851,0.28125 -1.98047,0.28125 c 0.0501,0.35223 -0.006,0.69558 -0.13086,1.00781 1.95282,0.0527 4.0184,0.0802 6.1875,0.0918 l 1.30078,-0.18555 1.97852,-0.28125 -0.0234,-0.16601 c -0.14097,-0.99128 0.56732,-1.93129 1.55859,-2.07227 l 2.14453,-0.30664 1.98047,-0.28125 -0.0234,-0.16406 c -0.14095,-0.99127 0.56536,-1.93324 1.55665,-2.07422 l 2.14453,-0.30469 1.98047,-0.28125 -0.0234,-0.16406 c -0.14097,-0.99126 0.56536,-1.93324 1.55664,-2.07422 l 2.14453,-0.30469 1.98047,-0.28125 -0.0234,-0.16601 c -0.14097,-0.99127 0.56536,-1.9313 1.55664,-2.07227 l 2.14453,-0.30664 1.98047,-0.28125 -0.0234,-0.16406 c -0.14097,-0.99127 0.56734,-1.93324 1.5586,-2.07422 l 2.14453,-0.30469 1.97851,-0.28125 -0.0234,-0.16406 c -0.14097,-0.99126 0.56733,-1.93324 1.55859,-2.07422 l 2.14453,-0.30469 1.98047,-0.28125 -0.0234,-0.16601 c -0.14096,-0.99127 0.56538,-1.9313 1.55664,-2.07227 l 2.14454,-0.30664 1.98046,-0.28125 -0.0234,-0.164063 c -0.14096,-0.99126 0.56538,-1.933239 1.55664,-2.074219 l 2.14453,-0.304687 1.98047,-0.28125 -0.0234,-0.164063 c -0.11018,-0.774797 0.30189,-1.51353 0.95898,-1.86914 0.0614,-0.733467 0.10287,-1.524521 0.14844,-2.294922 z m -0.58789,6.253906 c -0.0713,0.01859 -0.14039,0.0441 -0.21484,0.05469 l -1.98047,0.28125 -1.97852,0.28125 c 0.15385,1.081831 -0.61738,2.107871 -1.69922,2.261721 l -1.98046,0.28125 -1.98047,0.28125 c 0.15385,1.08184 -0.61542,2.10787 -1.69727,2.26172 l -1.98047,0.2832 -1.98047,0.28125 c 0.15385,1.08183 -0.61542,2.10787 -1.69726,2.26172 l -1.98047,0.28125 -1.98047,0.28125 c 0.15386,1.08184 -0.61737,2.10787 -1.69922,2.26172 l -1.97851,0.28125 -1.98047,0.28125 c 0.15386,1.08184 -0.61738,2.10787 -1.69922,2.26172 l -1.98047,0.2832 -1.97852,0.28125 c 0.15385,1.08183 -0.61738,2.10787 -1.69921,2.26172 l -1.98047,0.28125 -1.98047,0.28125 c 0.15385,1.08184 -0.61543,2.10787 -1.69727,2.26172 l -1.98047,0.28125 -1.98047,0.28125 c 0.037,0.26027 0.0164,0.51732 -0.0449,0.75976 0.26549,2e-5 0.49913,0.002 0.76758,0.002 2.83281,0 5.44591,-0.01 7.95703,-0.0352 l 0.65821,-0.0937 -0.0234,-0.16406 c -0.14097,-0.99126 0.56537,-1.93324 1.55664,-2.07422 l 2.14453,-0.30469 1.98047,-0.28125 -0.0234,-0.16601 c -0.14097,-0.99128 0.56537,-1.9313 1.55664,-2.07227 l 2.14453,-0.30664 1.98047,-0.28125 -0.0234,-0.16406 c -0.14096,-0.99126 0.56733,-1.93324 1.5586,-2.07422 l 2.14453,-0.30469 1.97851,-0.28125 -0.0234,-0.16406 c -0.14096,-0.99126 0.56732,-1.93324 1.55859,-2.07422 l 2.14453,-0.30469 1.98047,-0.28125 -0.0234,-0.16601 c -0.14097,-0.99127 0.56537,-1.9313 1.55664,-2.07227 l 2.14454,-0.30664 1.98046,-0.28125 -0.0234,-0.16406 c -0.14097,-0.99126 0.56537,-1.93324 1.55664,-2.07422 l 2.14453,-0.30469 1.66992,-0.23633 c 0.3279,-1.2931 0.59347,-2.66484 0.80664,-4.119136 z m -1.42187,6.226561 -0.77344,0.10938 -1.97852,0.28125 c 0.15385,1.08183 -0.61738,2.10786 -1.69922,2.26172 l -1.98046,0.28125 -1.98047,0.28125 c 0.15385,1.08183 -0.61542,2.10787 -1.69727,2.26171 l -1.98047,0.28321 -1.98047,0.28125 c 0.15385,1.08183 -0.61542,2.10787 -1.69726,2.26172 l -1.98047,0.28125 -1.98047,0.28125 c 0.15386,1.08184 -0.61737,2.10787 -1.69922,2.26172 l -1.97851,0.28125 -1.98047,0.28125 c 0.15386,1.08184 -0.61738,2.10787 -1.69922,2.26171 l -1.98047,0.28321 -1.97852,0.28125 c 0.0159,0.1116 0.0168,0.22251 0.0137,0.33203 3.38384,-0.0665 6.52076,-0.19333 9.32421,-0.46875 0.14887,-0.74295 0.74824,-1.35906 1.53321,-1.4707 l 2.14453,-0.30469 1.97851,-0.28125 -0.0234,-0.16406 c -0.14096,-0.99127 0.56733,-1.93324 1.55859,-2.07422 l 2.14453,-0.30469 1.98047,-0.28125 -0.0234,-0.16602 c -0.14096,-0.99127 0.56538,-1.93129 1.55664,-2.07226 l 2.14454,-0.30664 1.98046,-0.28125 -0.0234,-0.16407 c -0.14096,-0.99126 0.56538,-1.93323 1.55664,-2.07421 l 1.26758,-0.17969 c 0.7715,-1.30481 1.41613,-2.71126 1.93164,-4.25391 z m -5.76954,8.83985 -0.6621,0.0937 -1.98047,0.28125 c 0.15385,1.08183 -0.61542,2.10787 -1.69727,2.26171 l -1.98047,0.28321 -1.98047,0.28125 c 0.0523,0.36777 -0.009,0.72603 -0.14648,1.04883 3.31618,-0.89937 6.10475,-2.24747 8.44726,-4.25 z" />
  <path
     id="path35"
     style="fill:#1e212e;fill-opacity:1;stroke:none;stroke-width:1.375px;stroke-linecap:butt;stroke-linejoin:miter;stroke-opacity:1"
     d="m 146.61217,17.94584 c 0,0 -0.0767,5.57671 -2.75,8.25 -2.67329,2.67328 -8.25,2.75 -8.25,2.75 0,0 5.57671,0.0767 8.25,2.74999 2.67329,2.67329 2.75,8.25 2.75,8.25 0,0 0.0767,-5.57671 2.75,-8.25 2.67329,-2.67328 8.25,-2.74999 8.25,-2.74999 0,0 -5.57671,-0.0767 -8.25,-2.75 -2.67329,-2.67329 -2.75,-8.25 -2.75,-8.25 z" />
  <path
     id="path2"
     style="fill:#eac4bc;fill-opacity:0.396604;stroke-width:1;paint-order:markers stroke fill"
     d="m 172,10.04883 c -18.45971,0 -29.88765,-9.7e-4 -36.91992,7.03125 -7.03227,7.03222 -7.03125,18.46034 -7.03125,36.91992 0,18.459584 -0.001,29.8877 7.03125,36.91992 7.03227,7.03222 18.46021,7.03125 36.91992,7.03125 18.45971,0 29.88765,9.7e-4 36.91992,-7.03125 7.03227,-7.03222 7.03125,-18.460336 7.03125,-36.91992 0,-18.45958 0.001,-29.8877 -7.03125,-36.91992 C 201.88765,10.04786 190.45971,10.04883 172,10.04883 Z m 0.0859,1 c 6.8485,0.0367 13.75838,-0.0868 20.5,0.61523 2.05455,0.22284 4.15472,0.55413 6.25,1.08789 4.25039,1.04577 8.32932,3.27892 10.95508,6.85743 3.4606,4.64143 4.31354,10.65199 4.76953,16.21679 0.55416,8.14115 0.34661,16.3071 0.37695,24.46094 -0.0704,5.99764 -0.0841,11.992873 -1.11328,17.88867 -0.79899,4.65004 -2.57956,9.36083 -6.17578,12.57227 -4.13876,3.83103 -10.02616,5.06007 -15.33203,5.61914 -6.93634,0.68497 -14.05755,0.54904 -21.10157,0.58203 -6.10727,-0.0199 -12.30804,0.0377 -18.3125,-0.46484 -1.66992,-0.15329 -3.17595,-0.3274 -4.7832,-0.60743 -4.68573,-0.77705 -9.45443,-2.49959 -12.73047,-6.08593 -3.93515,-4.13998 -5.19174,-10.10944 -5.75586,-15.476566 -0.68514,-6.935644 -0.54893,-14.056264 -0.58203,-21.099604 0.0199,-6.10728 -0.0377,-12.30805 0.46485,-18.3125 0.17689,-1.93997 0.38853,-3.66923 0.75195,-5.57032 0.83998,-4.56931 2.69876,-9.16314 6.28906,-12.26172 3.82153,-3.4256 9.09391,-4.70221 13.98242,-5.30664 4.84259,-0.58653 9.88759,-0.64998 14.875,-0.70117 2.22397,-0.004 4.44792,-0.01 6.67188,-0.0137 z" />
  <path
     id="path55"
     style="fill:#1a2228;fill-opacity:1;stroke:none;stroke-width:2;stroke-linecap:square;paint-order:markers stroke fill"
     d="M 54 31 L 45.123047 55.148438 C 46.571368 59.010509 48.020477 62.872285 49.46875 66.734375 L 54 69 L 66 63 L 54 31 z " />
  <path
     id="path56"
     style="fill:#1a2228;fill-opacity:1;stroke:none;stroke-width:2;stroke-linecap:square;paint-order:markers stroke fill"
     d="M 70 23 L 61.123047 47.148438 C 62.571368 51.010509 64.020477 54.872285 65.46875 58.734375 L 70 61 L 82 55 L 70 23 z " />
  <path
     id="path57"
     style="fill:#1a2228;fill-opacity:1;stroke:none;stroke-width:2;stroke-linecap:square;paint-order:markers stroke fill"
     d="M 38,39 26,71 38,77 50,71 Z"
     sodipodi:nodetypes="ccccc" />
  <path
     id="path59"
     style="fill:#1a2228;fill-opacity:1;stroke:none;stroke-width:1.375px;stroke-linecap:butt;stroke-linejoin:miter;stroke-opacity:1"
     d="m 44,13 c 0,0 -0.06276,4.562761 -2.25,6.749997 -2.187236,2.187237 -6.750001,2.250004 -6.750001,2.250004 0,0 4.562765,0.06276 6.750001,2.249998 C 43.937237,26.437237 44,31 44,31 c 0,0 0.06276,-4.562763 2.250001,-6.750001 2.187236,-2.187238 6.75,-2.249998 6.75,-2.249998 0,0 -4.562764,-0.06276 -6.75,-2.250004 C 44.062764,17.562761 44,13 44,13 Z"
     sodipodi:nodetypes="cscscscsc" />
  <path
     id="path60"
     style="fill:#1a2228;fill-opacity:1;stroke:none;stroke-width:1.375px;stroke-linecap:butt;stroke-linejoin:miter;stroke-opacity:1"
     d="m 23.000001,32.999999 c 0,0 -0.06276,4.562761 -2.25,6.749997 C 18.562765,41.937233 14,42 14,42 c 0,0 4.562765,0.06276 6.750001,2.249998 2.187237,2.187238 2.25,6.750001 2.25,6.750001 0,0 0.06276,-4.562763 2.250001,-6.750001 2.187236,-2.187238 6.75,-2.249998 6.75,-2.249998 0,0 -4.562764,-0.06276 -6.75,-2.250004 -2.187237,-2.187236 -2.250001,-6.749997 -2.250001,-6.749997 z"
     sodipodi:nodetypes="cscscscsc" />
  <path
     id="rect247"
     style="fill:#1a2228;fill-opacity:1;stroke-width:0.999993;stroke-linecap:square;paint-order:markers stroke fill"
     d="M 98 53.976562 L 97.953125 54 L 98 54.046875 L 98 53.976562 z M 97.953125 54 L 77.953125 64 L 82.953125 69 L 87.953125 64 L 92.953125 59 L 97.953125 54 z M 92.953125 59 L 97.953125 64 L 98 63.953125 L 98 59 L 92.953125 59 z M 97.953125 64 L 98 64.046875 L 98 64 L 97.953125 64 z M 97.953125 64 L 87.953125 64 L 92.953125 69 L 97.953125 64 z M 92.953125 69 L 97.953125 74 L 98 73.953125 L 98 69 L 92.953125 69 z M 92.953125 69 L 82.953125 69 L 87.953125 74 L 92.953125 69 z M 87.953125 74 L 92.953125 79 L 97.953125 74 L 87.953125 74 z M 87.953125 74 L 77.953125 74 L 82.953125 79 L 87.953125 74 z M 82.953125 79 L 87.953125 84 L 92.953125 79 L 82.953125 79 z M 82.953125 79 L 72.953125 79 L 77.953125 84 L 82.953125 79 z M 77.953125 84 L 82.953125 89 L 87.953125 84 L 77.953125 84 z M 77.953125 84 L 67.953125 84 L 72.953125 89 L 77.953125 84 z M 72.953125 89 L 77.953125 94 L 82.953125 89 L 72.953125 89 z M 72.953125 89 L 62.953125 89 L 67.953125 94 L 72.953125 89 z M 62.953125 89 L 52.953125 89 L 57.953125 94 L 62.953125 89 z M 62.953125 89 L 67.953125 84 L 57.953125 84 L 62.953125 89 z M 57.953125 84 L 47.953125 84 L 52.953125 89 L 57.953125 84 z M 57.953125 84 L 62.953125 79 L 52.953125 79 L 57.953125 84 z M 52.953125 79 L 57.953125 74 L 37.953125 84 L 42.953125 89 L 47.953125 84 L 52.953125 79 z M 42.953125 89 L 47.953125 94 L 52.953125 89 L 42.953125 89 z M 42.953125 89 L 32.953125 89 L 37.953125 94 L 42.953125 89 z M 32.953125 89 L 37.953125 84 L 17.953125 94 L 27.953125 94 L 32.953125 89 z M 57.953125 74 L 62.953125 79 L 67.953125 74 L 72.953125 69 L 77.953125 64 L 57.953125 74 z M 72.953125 69 L 77.953125 74 L 82.953125 69 L 72.953125 69 z M 77.953125 74 L 67.953125 74 L 72.953125 79 L 77.953125 74 z M 72.953125 79 L 62.953125 79 L 67.953125 84 L 72.953125 79 z M 82.953125 89 L 87.953125 94 L 92.953125 89 L 82.953125 89 z M 92.953125 89 L 97.953125 84 L 87.953125 84 L 92.953125 89 z M 92.953125 89 L 95.929688 91.976562 C 96.752365 91.161644 97.369007 90.142323 97.707031 89 L 92.953125 89 z M 97.953125 84 L 98 83.953125 L 98 79 L 92.953125 79 L 97.953125 84 z M 97.953125 84 L 98 84.046875 L 98 84 L 97.953125 84 z M 97.953125 74 L 98 74.046875 L 98 74 L 97.953125 74 z " />
  <path
     id="rect13"
     style="fill:#d7e9b5;fill-opacity:0.4161008;stroke-width:0.999993;stroke-linecap:square;paint-order:markers stroke fill"
     d="M 17 10 C 13.122 10 10 13.122 10 17 L 10 87 C 10 90.878 13.122 94 17 94 L 91 94 C 94.878 94 98 90.878 98 87 L 98 17 C 98 13.122 94.878 10 91 10 L 17 10 z M 16.708984 11.007812 C 41.569365 10.994793 66.430603 10.994793 91.291016 11.007812 C 94.282222 11.077656 96.914104 13.69955 96.990234 16.691406 C 97.007864 40.224148 97.003907 63.758093 96.992188 87.291016 C 96.922345 90.282222 94.30045 92.914104 91.308594 92.990234 C 66.442518 93.007864 41.57524 93.003907 16.708984 92.992188 C 13.717778 92.922345 11.085896 90.30045 11.009766 87.308594 C 10.992136 63.775852 10.996092 40.241907 11.007812 16.708984 C 11.077437 13.710705 13.710714 11.077473 16.708984 11.007812 z " />
</svg>
