<?xml version="1.0" encoding="UTF-8" standalone="no"?>
<!-- Created with Inkscape (http://www.inkscape.org/) -->

<svg
   width="108"
   height="108"
   viewBox="0 0 108 108"
   version="1.1"
   id="svg1"
   inkscape:version="1.4 (e7c3feb, 2024-10-09)"
   sodipodi:docname="logo.svg"
   inkscape:export-filename="logo_export.svg"
   inkscape:export-xdpi="96"
   inkscape:export-ydpi="96"
   xmlns:inkscape="http://www.inkscape.org/namespaces/inkscape"
   xmlns:sodipodi="http://sodipodi.sourceforge.net/DTD/sodipodi-0.dtd"
   xmlns="http://www.w3.org/2000/svg"
   xmlns:svg="http://www.w3.org/2000/svg">
  <sodipodi:namedview
     id="namedview1"
     pagecolor="#ffffff"
     bordercolor="#666666"
     borderopacity="1.0"
     inkscape:showpageshadow="2"
     inkscape:pageopacity="0.0"
     inkscape:pagecheckerboard="0"
     inkscape:deskcolor="#d1d1d1"
     inkscape:document-units="px"
     showgrid="true"
     showguides="false"
     inkscape:lockguides="false"
     inkscape:zoom="4"
     inkscape:cx="257.375"
     inkscape:cy="76"
     inkscape:window-width="1920"
     inkscape:window-height="1131"
     inkscape:window-x="0"
     inkscape:window-y="0"
     inkscape:window-maximized="1"
     inkscape:current-layer="layer2">
    <inkscape:grid
       id="grid1"
       units="px"
       originx="0"
       originy="0"
       spacingx="1"
       spacingy="1"
       empcolor="#0099e5"
       empopacity="0.30196078"
       color="#0099e5"
       opacity="0.14901961"
       empspacing="4"
       enabled="true"
       visible="true" />
    <sodipodi:guide
       position="54,72"
       orientation="-1,0"
       id="guide2"
       inkscape:locked="false"
       inkscape:label=""
       inkscape:color="rgb(0,134,229)" />
    <sodipodi:guide
       position="42,54"
       orientation="0,-1"
       id="guide3"
       inkscape:locked="false" />
    <sodipodi:guide
       position="78,38"
       orientation="1,0"
       id="guide37"
       inkscape:locked="false" />
    <inkscape:page
       x="0"
       y="0"
       width="108"
       height="108"
       id="page1"
       margin="0"
       bleed="0"
       inkscape:export-filename="logo_export.svg"
       inkscape:export-xdpi="96"
       inkscape:export-ydpi="96" />
    <inkscape:page
       x="118"
       y="0"
       width="108"
       height="108"
       id="page2"
       margin="0"
       bleed="0" />
    <sodipodi:guide
       position="172,60"
       orientation="1,0"
       id="guide4"
       inkscape:locked="false" />
    <inkscape:page
       x="236"
       y="0"
       width="108"
       height="108"
       id="page3"
       margin="0"
       bleed="0"
       inkscape:export-filename="Page 3.svg"
       inkscape:export-xdpi="96"
       inkscape:export-ydpi="96" />
  </sodipodi:namedview>
  <defs
     id="defs1">
    <inkscape:path-effect
       effect="fillet_chamfer"
       id="path-effect3"
       is_visible="true"
       lpeversion="1"
       nodesatellites_param="F,0,0,1,0,0,0,1 @ F,0,0,1,0,0.834375,0,1 @ F,0,1,1,0,1,0,1 @ F,0,0,1,0,0.834375,0,1 @ F,0,1,1,0,1,0,1 @ F,0,0,1,0,0.834375,0,1 @ F,0,1,1,0,1,0,1 @ F,0,0,1,0,0.834375,0,1 @ F,0,1,1,0,1,0,1 @ F,0,0,1,0,0.834375,0,1 @ F,0,0,1,0,0,0,1"
       radius="0"
       unit="px"
       method="auto"
       mode="F"
       chamfer_steps="1"
       flexible="false"
       use_knot_distance="true"
       apply_no_radius="true"
       apply_with_radius="true"
       only_selected="true"
       hide_knots="false" />
    <inkscape:path-effect
       effect="fillet_chamfer"
       id="path-effect37"
       is_visible="true"
       lpeversion="1"
       nodesatellites_param="F,0,0,1,0,0,0,1 @ F,0,1,1,0,7,0,1 @ F,0,1,1,0,7,0,1 @ F,0,0,1,0,0,0,1 @ F,0,0,1,0,0,0,1 @ F,0,0,1,0,4,0,1 @ F,0,0,1,0,4,0,1 @ F,0,0,1,0,0,0,1"
       radius="0"
       unit="px"
       method="auto"
       mode="F"
       chamfer_steps="1"
       flexible="false"
       use_knot_distance="true"
       apply_no_radius="true"
       apply_with_radius="true"
       only_selected="true"
       hide_knots="false" />
    <inkscape:path-effect
       effect="fillet_chamfer"
       id="path-effect51"
       is_visible="true"
       lpeversion="1"
       nodesatellites_param="F,0,0,1,0,0,0,1 @ F,0,1,1,0,4.495473,0,1 @ F,0,1,1,0,4.495473,0,1 @ F,0,0,1,0,0,0,1 @ F,0,0,1,0,0,0,1 @ F,0,0,1,0,3.501035,0,1 @ F,0,0,1,0,3.501035,0,1 @ F,0,0,1,0,0,0,1"
       radius="0"
       unit="px"
       method="auto"
       mode="F"
       chamfer_steps="1"
       flexible="false"
       use_knot_distance="true"
       apply_no_radius="true"
       apply_with_radius="true"
       only_selected="true"
       hide_knots="false" />
  </defs>
  <g
     inkscape:label="Layer 1"
     inkscape:groupmode="layer"
     id="layer1"
     style="display:none"
     sodipodi:insensitive="true">
    <rect
       style="display:inline;fill:#ececec;stroke-width:4;stroke-miterlimit:320;paint-order:markers fill stroke"
       id="rect1"
       width="66"
       height="66"
       x="21"
       y="21" />
    <rect
       style="display:inline;fill:#ececec;stroke-width:4;stroke-miterlimit:320;paint-order:markers fill stroke"
       id="rect2"
       width="66"
       height="66"
       x="139"
       y="21" />
  </g>
  <g
     inkscape:groupmode="layer"
     id="layer2"
     inkscape:label="Layer 2">
    <rect
       style="fill:#abc837;stroke-width:1.42;paint-order:markers fill stroke"
       id="rect3"
       width="100"
       height="100"
       x="4"
       y="4"
       ry="24" />
    <path
       id="path38"
       style="fill:#000080;stroke:none;stroke-width:4;stroke-linecap:round;paint-order:markers fill stroke"
       d="M 171.13477 20.892578 L 171.13477 32.892578 L 173.13477 32.892578 L 173.13477 20.892578 L 171.13477 20.892578 z M 161 23.607422 L 159.26953 24.607422 L 165.26953 35 L 167 34 L 161 23.607422 z M 183.26953 23.607422 L 177.26953 34 L 179 35 L 185 24.607422 L 183.26953 23.607422 z M 151.84961 32.027344 L 150.84961 33.757812 L 161.24219 39.757812 L 162.24219 38.027344 L 151.84961 32.027344 z M 192.41992 32.027344 L 182.02734 38.027344 L 183.02734 39.757812 L 193.41992 33.757812 L 192.41992 32.027344 z M 172.13477 34.892578 C 166.61192 34.892578 162.13477 39.369731 162.13477 44.892578 C 162.14177 45.22691 162.16623 45.560663 162.20703 45.892578 L 171.03711 45.892578 C 171.33454 45.781007 171.6413 45.686756 171.95703 45.619141 C 172.7264 43.069362 175.01457 41.154334 177.80078 41.154297 C 179.376 41.154317 180.80891 41.762051 181.89844 42.748047 C 180.91618 38.256665 176.92085 34.892578 172.13477 34.892578 z M 177.80078 43.154297 C 175.4818 43.154328 173.6016 45.034524 173.60156 47.353516 C 173.60253 47.363416 173.60447 47.372883 173.60547 47.382812 C 173.47065 47.370283 173.33462 47.364664 173.19922 47.365234 C 170.88022 47.365234 169 49.245449 169 51.564453 C 169.006 52.628825 169.41707 53.650499 170.14844 54.423828 L 169 55 L 177.52539 55 L 181.98242 47.728516 C 181.99369 47.604012 181.9999 47.479013 182 47.353516 C 181.99996 45.034524 180.11977 43.154327 177.80078 43.154297 z M 148.13477 43.892578 L 148.13477 45.892578 L 155.10742 45.892578 L 156.33203 43.892578 L 148.13477 43.892578 z M 187.66797 43.892578 L 188.89258 45.892578 L 196.13477 45.892578 L 196.13477 43.892578 L 187.66797 43.892578 z M 158 45 L 139 76 L 159.74219 76 L 153 87 L 191 87 L 184.25781 76 L 205 76 L 186 45 L 175.62891 61.921875 L 172 56 L 168.37109 61.921875 L 158 45 z M 165.80078 61.154297 C 168.11977 61.154327 169.99996 63.034524 170 65.353516 C 169.99952 65.963389 169.86625 66.56601 169.60938 67.119141 C 169.96924 66.972143 170.35346 66.895378 170.74219 66.892578 C 172.42875 66.892578 173.79688 68.258764 173.79688 69.945312 C 173.79691 70.675067 173.53587 71.381817 173.06055 71.935547 L 176.84961 73 L 170.74219 73 L 157 73 L 158.14844 72.423828 C 157.41707 71.650499 157.006 70.628825 157 69.564453 C 157 67.245449 158.88022 65.365234 161.19922 65.365234 C 161.33462 65.364664 161.4687 65.370284 161.60352 65.382812 C 161.60252 65.372884 161.60253 65.363416 161.60156 65.353516 C 161.6016 63.034524 163.4818 61.154328 165.80078 61.154297 z " />
    <path
       id="path9"
       style="fill:#000000;stroke:none;stroke-width:1px;stroke-linecap:butt;stroke-linejoin:miter;stroke-opacity:1"
       d="M 71,24 62.193359,50.417969 66.666016,63.832031 71,66 83,60 Z M 55,32 46.193359,58.417969 50.666016,71.832031 55,74 67,68 63.533203,57.599609 61.666016,52 Z M 39,40 27,76 39,82 51,76 47.533203,65.599609 45.666016,60 Z" />
    <path
       id="path53"
       style="fill:#1a1a1a;stroke:none;stroke-width:1.375px;stroke-linecap:butt;stroke-linejoin:miter;stroke-opacity:1"
       d="m 33,21 c 0,0 -0.07671,5.576711 -2.75,8.25 C 27.576711,31.923289 22,32 22,32 c 0,0 5.576711,0.07671 8.25,2.75 C 32.923289,37.423289 33,43 33,43 33,43 33.07671,37.423289 35.75,34.75 38.423289,32.076711 44,32 44,32 44,32 38.423289,31.92329 35.75,29.25 33.076711,26.576711 33,21 33,21 Z"
       sodipodi:nodetypes="cscscscsc" />
    <path
       id="rect23"
       style="fill:#aa0000;stroke:none;stroke-width:4;stroke-linecap:round;paint-order:markers fill stroke"
       d="m 7,141 v 26 h 3 V 148.29633 L 19.49414,167 H 22 v -26 h -3 v 18.70117 L 9.49219,141 Z"
       sodipodi:nodetypes="ccccccccccc" />
    <path
       id="rect26"
       style="fill:#c83737;stroke:none;stroke-width:4;stroke-linecap:round;paint-order:markers fill stroke"
       d="m 174,28 v 19.6875 a 7,7 45 0 0 7,7 7,7 135 0 0 7,-7 V 28 h -3 v 19.6875 a 4,4 135 0 1 -4,4 4,4 45 0 1 -4,-4 V 28 Z"
       sodipodi:nodetypes="ccccccccc"
       inkscape:path-effect="#path-effect37"
       inkscape:original-d="m 174,28 v 26.6875 h 14 V 28 h -3 v 23.6875 h -8 V 28 Z"
       transform="translate(-134,113)" />
    <path
       id="rect29"
       style="fill:#c83737;stroke:none;stroke-width:4;stroke-linecap:round;paint-order:markers fill stroke"
       d="m 25,141 v 26 h 12 v -3 h -9 v -9 h 7 v -3 h -7 v -8 h 9 v -3 z"
       sodipodi:nodetypes="ccccccccccccc" />
    <path
       id="path37"
       style="fill:#c83737;stroke:none;stroke-width:4;stroke-linecap:round;paint-order:markers fill stroke"
       d="m 57,141 v 26 h 12 v -3 h -9 v -9 h 7 v -3 h -7 v -8 h 9 v -3 z"
       sodipodi:nodetypes="ccccccccccccc" />
    <path
       id="path1"
       style="fill:#000000;stroke:none;stroke-width:4;stroke-linecap:round;paint-order:markers fill stroke"
       d="M 108 53.5 L 0 107.5 L 0 108 L 6.0097656 108 L 5.9960938 107.90625 C 5.8551257 106.91499 6.5614608 105.973 7.5527344 105.83203 L 9.6972656 105.52734 L 11.677734 105.24609 L 11.654297 105.08203 C 11.513328 104.09076 12.219663 103.14879 13.210938 103.00781 L 15.355469 102.70312 L 17.335938 102.42188 L 17.3125 102.25586 C 17.171531 101.2646 17.879821 100.32456 18.871094 100.18359 L 21.013672 99.876953 L 22.994141 99.595703 L 22.970703 99.431641 C 22.829734 98.440375 23.538024 97.498397 24.529297 97.357422 L 26.673828 97.052734 L 28.652344 96.771484 L 28.630859 96.607422 C 28.48989 95.616156 29.196227 94.674178 30.1875 94.533203 L 32.332031 94.228516 L 34.3125 93.947266 L 34.289062 93.78125 C 34.148095 92.789984 34.854429 91.84996 35.845703 91.708984 L 37.990234 91.402344 L 39.970703 91.121094 L 39.947266 90.957031 C 39.806299 89.965764 40.512632 89.023788 41.503906 88.882812 L 43.648438 88.578125 L 45.628906 88.296875 L 45.605469 88.132812 C 45.464502 87.141548 46.172787 86.19957 47.164062 86.058594 L 49.308594 85.753906 L 51.287109 85.472656 L 51.263672 85.306641 C 51.122704 84.315375 51.830991 83.375351 52.822266 83.234375 L 54.966797 82.927734 L 56.947266 82.646484 L 56.923828 82.482422 C 56.78286 81.491155 57.489195 80.549178 58.480469 80.408203 L 60.625 80.103516 L 62.605469 79.822266 L 62.582031 79.658203 C 62.441062 78.666936 63.147398 77.724959 64.138672 77.583984 L 66.283203 77.279297 L 68.263672 76.998047 L 68.240234 76.832031 C 68.099265 75.840764 68.805602 74.900741 69.796875 74.759766 L 71.941406 74.453125 L 73.921875 74.171875 L 73.898438 74.007812 C 73.757473 73.016545 74.465766 72.074567 75.457031 71.933594 L 77.601562 71.628906 L 79.580078 71.347656 L 79.556641 71.183594 C 79.415677 70.192327 80.123969 69.250349 81.115234 69.109375 L 83.259766 68.804688 L 85.240234 68.523438 L 85.216797 68.357422 C 85.075833 67.366155 85.782172 66.42613 86.773438 66.285156 L 88.917969 65.978516 L 90.898438 65.697266 L 90.875 65.533203 C 90.734035 64.541936 91.440375 63.599959 92.431641 63.458984 L 94.576172 63.154297 L 96.556641 62.873047 L 96.533203 62.708984 C 96.392238 61.717717 97.100532 60.77574 98.091797 60.634766 L 100.23633 60.330078 L 102.21484 60.048828 L 102.19141 59.882812 C 102.05045 58.891547 102.75873 57.951521 103.75 57.810547 L 105.89453 57.503906 L 107.875 57.222656 L 107.85156 57.058594 C 107.80447 56.727453 107.87895 56.415163 108 56.123047 L 108 53.5 z M 108 59.224609 L 106.17578 59.484375 L 104.19531 59.765625 C 104.34916 60.84746 103.57793 61.87349 102.49609 62.027344 L 100.51758 62.310547 L 98.537109 62.591797 C 98.690963 63.673632 97.919736 64.699661 96.837891 64.853516 L 94.857422 65.134766 L 92.878906 65.416016 C 93.03276 66.497851 92.261533 67.523878 91.179688 67.677734 L 89.199219 67.958984 L 87.21875 68.240234 C 87.372605 69.322069 86.603329 70.348097 85.521484 70.501953 L 83.541016 70.785156 L 81.560547 71.066406 C 81.714402 72.14824 80.945124 73.174269 79.863281 73.328125 L 77.882812 73.609375 L 75.902344 73.890625 C 76.056199 74.972459 75.284968 75.998489 74.203125 76.152344 L 72.224609 76.433594 L 70.244141 76.714844 C 70.397996 77.796678 69.626761 78.82271 68.544922 78.976562 L 66.564453 79.259766 L 64.585938 79.541016 C 64.73979 80.62285 63.968558 81.648879 62.886719 81.802734 L 60.90625 82.083984 L 58.925781 82.365234 C 59.079635 83.447068 58.310356 84.473097 57.228516 84.626953 L 55.248047 84.908203 L 53.267578 85.189453 C 53.421432 86.271287 52.652152 87.297317 51.570312 87.451172 L 49.589844 87.734375 L 47.609375 88.015625 C 47.763229 89.09746 46.991996 90.123489 45.910156 90.277344 L 43.931641 90.558594 L 41.951172 90.839844 C 42.105026 91.921679 41.333792 92.94771 40.251953 93.101562 L 38.271484 93.382812 L 36.291016 93.664062 C 36.44487 94.745898 35.675589 95.771926 34.59375 95.925781 L 32.613281 96.208984 L 30.632812 96.490234 C 30.786667 97.572069 30.017387 98.598098 28.935547 98.751953 L 26.955078 99.033203 L 24.974609 99.314453 C 25.128463 100.39629 24.357231 101.42232 23.275391 101.57617 L 21.296875 101.85742 L 19.316406 102.13867 C 19.47026 103.2205 18.699027 104.24654 17.617188 104.40039 L 15.636719 104.68359 L 13.658203 104.96484 C 13.812057 106.04668 13.040824 107.0727 11.958984 107.22656 L 9.9785156 107.50781 L 7.9980469 107.78906 C 8.0083311 107.86138 7.9821577 107.92843 7.984375 108 L 17.328125 108 C 17.332616 107.11008 17.967556 106.31209 18.871094 106.18359 L 21.013672 105.87695 L 22.994141 105.5957 L 22.970703 105.43164 C 22.829734 104.44038 23.538024 103.49839 24.529297 103.35742 L 26.673828 103.05273 L 28.652344 102.77148 L 28.630859 102.60742 C 28.48989 101.61615 29.196227 100.67418 30.1875 100.5332 L 32.332031 100.22852 L 34.3125 99.947266 L 34.289062 99.78125 C 34.148095 98.789984 34.854429 97.84996 35.845703 97.708984 L 37.990234 97.402344 L 39.970703 97.121094 L 39.947266 96.957031 C 39.806299 95.965764 40.512632 95.023788 41.503906 94.882812 L 43.648438 94.578125 L 45.628906 94.296875 L 45.605469 94.132812 C 45.464502 93.141548 46.172787 92.19957 47.164062 92.058594 L 49.308594 91.753906 L 51.287109 91.472656 L 51.263672 91.306641 C 51.122704 90.315375 51.830991 89.375351 52.822266 89.234375 L 54.966797 88.927734 L 56.947266 88.646484 L 56.923828 88.482422 C 56.78286 87.491155 57.489195 86.549178 58.480469 86.408203 L 60.625 86.103516 L 62.605469 85.822266 L 62.582031 85.658203 C 62.441062 84.666936 63.147398 83.724959 64.138672 83.583984 L 66.283203 83.279297 L 68.263672 82.998047 L 68.240234 82.832031 C 68.099265 81.840764 68.805602 80.900741 69.796875 80.759766 L 71.941406 80.453125 L 73.921875 80.171875 L 73.898438 80.007812 C 73.757473 79.016545 74.465766 78.074567 75.457031 77.933594 L 77.601562 77.628906 L 79.580078 77.347656 L 79.556641 77.183594 C 79.415677 76.192327 80.123969 75.250349 81.115234 75.109375 L 83.259766 74.804688 L 85.240234 74.523438 L 85.216797 74.357422 C 85.075833 73.366155 85.782172 72.42613 86.773438 72.285156 L 88.917969 71.978516 L 90.898438 71.697266 L 90.875 71.533203 C 90.734035 70.541936 91.440375 69.599959 92.431641 69.458984 L 94.576172 69.154297 L 96.556641 68.873047 L 96.533203 68.708984 C 96.392238 67.717717 97.100532 66.77574 98.091797 66.634766 L 100.23633 66.330078 L 102.21484 66.048828 L 102.19141 65.882812 C 102.05045 64.891548 102.75873 63.951521 103.75 63.810547 L 105.89453 63.503906 L 107.875 63.222656 L 107.85156 63.058594 C 107.80447 62.727453 107.87895 62.415163 108 62.123047 L 108 59.224609 z M 108 65.224609 L 106.17578 65.484375 L 104.19531 65.765625 C 104.34916 66.84746 103.57793 67.87349 102.49609 68.027344 L 100.51758 68.310547 L 98.537109 68.591797 C 98.690963 69.673632 97.919736 70.699661 96.837891 70.853516 L 94.857422 71.134766 L 92.878906 71.416016 C 93.03276 72.497851 92.261533 73.523878 91.179688 73.677734 L 89.199219 73.958984 L 87.21875 74.240234 C 87.372605 75.322069 86.603329 76.348097 85.521484 76.501953 L 83.541016 76.785156 L 81.560547 77.066406 C 81.714402 78.14824 80.945124 79.174269 79.863281 79.328125 L 77.882812 79.609375 L 75.902344 79.890625 C 76.056199 80.972459 75.284968 81.998489 74.203125 82.152344 L 72.224609 82.433594 L 70.244141 82.714844 C 70.397996 83.796678 69.626761 84.82271 68.544922 84.976562 L 66.564453 85.259766 L 64.585938 85.541016 C 64.73979 86.62285 63.968558 87.648879 62.886719 87.802734 L 60.90625 88.083984 L 58.925781 88.365234 C 59.079635 89.447068 58.310356 90.473097 57.228516 90.626953 L 55.248047 90.908203 L 53.267578 91.189453 C 53.421432 92.271287 52.652152 93.297317 51.570312 93.451172 L 49.589844 93.734375 L 47.609375 94.015625 C 47.763229 95.09746 46.991996 96.123489 45.910156 96.277344 L 43.931641 96.558594 L 41.951172 96.839844 C 42.105026 97.921679 41.333792 98.94771 40.251953 99.101562 L 38.271484 99.382812 L 36.291016 99.664062 C 36.44487 100.74589 35.675589 101.77192 34.59375 101.92578 L 32.613281 102.20898 L 30.632812 102.49023 C 30.786667 103.57207 30.017387 104.59809 28.935547 104.75195 L 26.955078 105.0332 L 24.974609 105.31445 C 25.128463 106.39628 24.357231 107.42232 23.275391 107.57617 L 21.296875 107.85742 L 20.292969 108 L 28.667969 108 C 28.818264 107.2596 29.404514 106.64456 30.1875 106.5332 L 32.332031 106.22852 L 34.3125 105.94727 L 34.289062 105.78125 C 34.148095 104.78998 34.854429 103.84995 35.845703 103.70898 L 37.990234 103.40234 L 39.970703 103.12109 L 39.947266 102.95703 C 39.806299 101.96577 40.512632 101.02379 41.503906 100.88281 L 43.648438 100.57812 L 45.628906 100.29688 L 45.605469 100.13281 C 45.464502 99.141553 46.172787 98.19957 47.164062 98.058594 L 49.308594 97.753906 L 51.287109 97.472656 L 51.263672 97.306641 C 51.122704 96.315375 51.830991 95.375351 52.822266 95.234375 L 54.966797 94.927734 L 56.947266 94.646484 L 56.923828 94.482422 C 56.78286 93.491155 57.489195 92.549178 58.480469 92.408203 L 60.625 92.103516 L 62.605469 91.822266 L 62.582031 91.658203 C 62.441062 90.666936 63.147398 89.724959 64.138672 89.583984 L 66.283203 89.279297 L 68.263672 88.998047 L 68.240234 88.832031 C 68.099265 87.840764 68.805602 86.900741 69.796875 86.759766 L 71.941406 86.453125 L 73.921875 86.171875 L 73.898438 86.007812 C 73.757473 85.016545 74.465766 84.074567 75.457031 83.933594 L 77.601562 83.628906 L 79.580078 83.347656 L 79.556641 83.183594 C 79.415677 82.192327 80.123969 81.250349 81.115234 81.109375 L 83.259766 80.804688 L 85.240234 80.523438 L 85.216797 80.357422 C 85.075833 79.366155 85.782172 78.42613 86.773438 78.285156 L 88.917969 77.978516 L 90.898438 77.697266 L 90.875 77.533203 C 90.734035 76.541936 91.440375 75.599959 92.431641 75.458984 L 94.576172 75.154297 L 96.556641 74.873047 L 96.533203 74.708984 C 96.392238 73.717717 97.100532 72.77574 98.091797 72.634766 L 100.23633 72.330078 L 102.21484 72.048828 L 102.19141 71.882812 C 102.05045 70.891548 102.75873 69.951521 103.75 69.810547 L 105.89453 69.503906 L 107.875 69.222656 L 107.85156 69.058594 C 107.80447 68.727453 107.87895 68.415163 108 68.123047 L 108 65.224609 z M 108 71.224609 L 106.17578 71.484375 L 104.19531 71.765625 C 104.34916 72.84746 103.57793 73.87349 102.49609 74.027344 L 100.51758 74.310547 L 98.537109 74.591797 C 98.690963 75.673632 97.919736 76.699661 96.837891 76.853516 L 94.857422 77.134766 L 92.878906 77.416016 C 93.03276 78.497851 92.261533 79.523878 91.179688 79.677734 L 89.199219 79.958984 L 87.21875 80.240234 C 87.372605 81.322069 86.603329 82.348097 85.521484 82.501953 L 83.541016 82.785156 L 81.560547 83.066406 C 81.714402 84.14824 80.945124 85.174269 79.863281 85.328125 L 77.882812 85.609375 L 75.902344 85.890625 C 76.056199 86.972459 75.284968 87.998489 74.203125 88.152344 L 72.224609 88.433594 L 70.244141 88.714844 C 70.397996 89.796678 69.626761 90.82271 68.544922 90.976562 L 66.564453 91.259766 L 64.585938 91.541016 C 64.73979 92.62285 63.968558 93.648879 62.886719 93.802734 L 60.90625 94.083984 L 58.925781 94.365234 C 59.079635 95.447068 58.310356 96.473097 57.228516 96.626953 L 55.248047 96.908203 L 53.267578 97.189453 C 53.421432 98.271287 52.652152 99.297317 51.570312 99.451172 L 49.589844 99.734375 L 47.609375 100.01562 C 47.763229 101.09748 46.991996 102.12348 45.910156 102.27734 L 43.931641 102.55859 L 41.951172 102.83984 C 42.105026 103.92167 41.333792 104.94771 40.251953 105.10156 L 38.271484 105.38281 L 36.291016 105.66406 C 36.44487 106.74589 35.675589 107.77192 34.59375 107.92578 L 34.074219 108 L 40.107422 108 C 40.353092 107.42873 40.85238 106.97547 41.503906 106.88281 L 43.648438 106.57812 L 45.628906 106.29688 L 45.605469 106.13281 C 45.464502 105.14154 46.172787 104.19957 47.164062 104.05859 L 49.308594 103.75391 L 51.287109 103.47266 L 51.263672 103.30664 C 51.122704 102.31537 51.830991 101.37533 52.822266 101.23438 L 54.966797 100.92773 L 56.947266 100.64648 L 56.923828 100.48242 C 56.78286 99.491163 57.489195 98.549178 58.480469 98.408203 L 60.625 98.103516 L 62.605469 97.822266 L 62.582031 97.658203 C 62.441062 96.666936 63.147398 95.724959 64.138672 95.583984 L 66.283203 95.279297 L 68.263672 94.998047 L 68.240234 94.832031 C 68.099265 93.840764 68.805602 92.900741 69.796875 92.759766 L 71.941406 92.453125 L 73.921875 92.171875 L 73.898438 92.007812 C 73.757473 91.016548 74.465766 90.074567 75.457031 89.933594 L 77.601562 89.628906 L 79.580078 89.347656 L 79.556641 89.183594 C 79.415677 88.192327 80.123969 87.250349 81.115234 87.109375 L 83.259766 86.804688 L 85.240234 86.523438 L 85.216797 86.357422 C 85.075833 85.366155 85.782172 84.42613 86.773438 84.285156 L 88.917969 83.978516 L 90.898438 83.697266 L 90.875 83.533203 C 90.734035 82.541936 91.440375 81.599959 92.431641 81.458984 L 94.576172 81.154297 L 96.556641 80.873047 L 96.533203 80.708984 C 96.392238 79.717717 97.100532 78.77574 98.091797 78.634766 L 100.23633 78.330078 L 102.21484 78.048828 L 102.19141 77.882812 C 102.05045 76.891548 102.75873 75.951521 103.75 75.810547 L 105.89453 75.503906 L 107.875 75.222656 L 107.85156 75.058594 C 107.80447 74.727453 107.87895 74.415163 108 74.123047 L 108 71.224609 z M 108 77.224609 L 106.17578 77.484375 L 104.19531 77.765625 C 104.34916 78.84746 103.57793 79.87349 102.49609 80.027344 L 100.51758 80.310547 L 98.537109 80.591797 C 98.690963 81.673632 97.919736 82.699661 96.837891 82.853516 L 94.857422 83.134766 L 92.878906 83.416016 C 93.03276 84.497851 92.261533 85.523878 91.179688 85.677734 L 89.199219 85.958984 L 87.21875 86.240234 C 87.372605 87.322069 86.603329 88.348097 85.521484 88.501953 L 83.541016 88.785156 L 81.560547 89.066406 C 81.714402 90.14824 80.945124 91.174269 79.863281 91.328125 L 77.882812 91.609375 L 75.902344 91.890625 C 76.056199 92.972459 75.284968 93.998489 74.203125 94.152344 L 72.224609 94.433594 L 70.244141 94.714844 C 70.397996 95.796678 69.626761 96.82271 68.544922 96.976562 L 66.564453 97.259766 L 64.585938 97.541016 C 64.73979 98.62285 63.968558 99.648879 62.886719 99.802734 L 60.90625 100.08398 L 58.925781 100.36523 C 59.079635 101.44706 58.310356 102.4731 57.228516 102.62695 L 55.248047 102.9082 L 53.267578 103.18945 C 53.421432 104.27129 52.652152 105.29731 51.570312 105.45117 L 49.589844 105.73438 L 47.609375 106.01562 C 47.723865 106.82069 47.324809 107.59317 46.667969 108 L 51.595703 108 C 51.878549 107.60066 52.307588 107.30755 52.822266 107.23438 L 54.966797 106.92773 L 56.947266 106.64648 L 56.923828 106.48242 C 56.78286 105.49116 57.489195 104.54917 58.480469 104.4082 L 60.625 104.10352 L 62.605469 103.82227 L 62.582031 103.6582 C 62.441062 102.66693 63.147398 101.72496 64.138672 101.58398 L 66.283203 101.2793 L 68.263672 100.99805 L 68.240234 100.83203 C 68.099265 99.840763 68.805602 98.900741 69.796875 98.759766 L 71.941406 98.453125 L 73.921875 98.171875 L 73.898438 98.007812 C 73.757473 97.016548 74.465766 96.074567 75.457031 95.933594 L 77.601562 95.628906 L 79.580078 95.347656 L 79.556641 95.183594 C 79.415677 94.192327 80.123969 93.250349 81.115234 93.109375 L 83.259766 92.804688 L 85.240234 92.523438 L 85.216797 92.357422 C 85.075833 91.366155 85.782172 90.42613 86.773438 90.285156 L 88.917969 89.978516 L 90.898438 89.697266 L 90.875 89.533203 C 90.734035 88.541936 91.440375 87.599959 92.431641 87.458984 L 94.576172 87.154297 L 96.556641 86.873047 L 96.533203 86.708984 C 96.392238 85.717717 97.100532 84.77574 98.091797 84.634766 L 100.23633 84.330078 L 102.21484 84.048828 L 102.19141 83.882812 C 102.05045 82.891548 102.75873 81.951521 103.75 81.810547 L 105.89453 81.503906 L 107.875 81.222656 L 107.85156 81.058594 C 107.80447 80.727453 107.87895 80.415163 108 80.123047 L 108 77.224609 z M 108 83.224609 L 106.17578 83.484375 L 104.19531 83.765625 C 104.34916 84.84746 103.57793 85.87349 102.49609 86.027344 L 100.51758 86.310547 L 98.537109 86.591797 C 98.690963 87.673632 97.919736 88.699661 96.837891 88.853516 L 94.857422 89.134766 L 92.878906 89.416016 C 93.03276 90.497851 92.261533 91.523878 91.179688 91.677734 L 89.199219 91.958984 L 87.21875 92.240234 C 87.372605 93.322069 86.603329 94.348097 85.521484 94.501953 L 83.541016 94.785156 L 81.560547 95.066406 C 81.714402 96.14824 80.945124 97.174269 79.863281 97.328125 L 77.882812 97.609375 L 75.902344 97.890625 C 76.056199 98.972459 75.284968 99.998499 74.203125 100.15234 L 72.224609 100.43359 L 70.244141 100.71484 C 70.397996 101.79667 69.626761 102.82271 68.544922 102.97656 L 66.564453 103.25977 L 64.585938 103.54102 C 64.73979 104.62286 63.968558 105.64887 62.886719 105.80273 L 60.90625 106.08398 L 58.925781 106.36523 C 59.014331 106.98787 58.775761 107.56997 58.369141 108 L 63.267578 108 C 63.516913 107.79575 63.800952 107.63202 64.138672 107.58398 L 66.283203 107.2793 L 68.263672 106.99805 L 68.240234 106.83203 C 68.099265 105.84076 68.805602 104.90074 69.796875 104.75977 L 71.941406 104.45312 L 73.921875 104.17188 L 73.898438 104.00781 C 73.757473 103.01655 74.465766 102.07456 75.457031 101.93359 L 77.601562 101.62891 L 79.580078 101.34766 L 79.556641 101.18359 C 79.415677 100.19232 80.123969 99.250349 81.115234 99.109375 L 83.259766 98.804688 L 85.240234 98.523438 L 85.216797 98.357422 C 85.075833 97.366155 85.782172 96.42613 86.773438 96.285156 L 88.917969 95.978516 L 90.898438 95.697266 L 90.875 95.533203 C 90.734035 94.541936 91.440375 93.599959 92.431641 93.458984 L 94.576172 93.154297 L 96.556641 92.873047 L 96.533203 92.708984 C 96.392238 91.717717 97.100532 90.77574 98.091797 90.634766 L 100.23633 90.330078 L 102.21484 90.048828 L 102.19141 89.882812 C 102.05045 88.891548 102.75873 87.951521 103.75 87.810547 L 105.89453 87.503906 L 107.875 87.222656 L 107.85156 87.058594 C 107.80447 86.727453 107.87895 86.415163 108 86.123047 L 108 83.224609 z M 108 89.224609 L 106.17578 89.484375 L 104.19531 89.765625 C 104.34916 90.84746 103.57793 91.87349 102.49609 92.027344 L 100.51758 92.310547 L 98.537109 92.591797 C 98.690963 93.673632 97.919736 94.699661 96.837891 94.853516 L 94.857422 95.134766 L 92.878906 95.416016 C 93.03276 96.497851 92.261533 97.523878 91.179688 97.677734 L 89.199219 97.958984 L 87.21875 98.240234 C 87.372605 99.322069 86.603329 100.34809 85.521484 100.50195 L 83.541016 100.78516 L 81.560547 101.06641 C 81.714402 102.14825 80.945124 103.17428 79.863281 103.32812 L 77.882812 103.60938 L 75.902344 103.89062 C 76.056199 104.97246 75.284968 105.99849 74.203125 106.15234 L 72.224609 106.43359 L 70.244141 106.71484 C 70.31026 107.17976 70.179938 107.62049 69.953125 108 L 75.271484 108 C 75.336137 107.98323 75.38958 107.94319 75.457031 107.93359 L 77.601562 107.62891 L 79.580078 107.34766 L 79.556641 107.18359 C 79.415677 106.19232 80.123969 105.25033 81.115234 105.10938 L 83.259766 104.80469 L 85.240234 104.52344 L 85.216797 104.35742 C 85.075833 103.36615 85.782172 102.42613 86.773438 102.28516 L 88.917969 101.97852 L 90.898438 101.69727 L 90.875 101.5332 C 90.734035 100.54194 91.440375 99.599959 92.431641 99.458984 L 94.576172 99.154297 L 96.556641 98.873047 L 96.533203 98.708984 C 96.392238 97.717717 97.100532 96.77574 98.091797 96.634766 L 100.23633 96.330078 L 102.21484 96.048828 L 102.19141 95.882812 C 102.05045 94.891548 102.75873 93.951521 103.75 93.810547 L 105.89453 93.503906 L 107.875 93.222656 L 107.85156 93.058594 C 107.80447 92.727453 107.87895 92.415163 108 92.123047 L 108 89.224609 z M 108 95.224609 L 106.17578 95.484375 L 104.19531 95.765625 C 104.34916 96.84746 103.57793 97.87349 102.49609 98.027344 L 100.51758 98.310547 L 98.537109 98.591797 C 98.690963 99.673632 97.919736 100.69966 96.837891 100.85352 L 94.857422 101.13477 L 92.878906 101.41602 C 93.03276 102.49785 92.261533 103.52388 91.179688 103.67773 L 89.199219 103.95898 L 87.21875 104.24023 C 87.372605 105.32206 86.603329 106.34809 85.521484 106.50195 L 83.541016 106.78516 L 81.560547 107.06641 C 81.607071 107.39355 81.546823 107.70564 81.441406 108 L 88.767578 108 L 88.917969 107.97852 L 90.898438 107.69727 L 90.875 107.5332 C 90.734035 106.54194 91.440375 105.59995 92.431641 105.45898 L 94.576172 105.1543 L 96.556641 104.87305 L 96.533203 104.70898 C 96.392238 103.71771 97.100532 102.77575 98.091797 102.63477 L 100.23633 102.33008 L 102.21484 102.04883 L 102.19141 101.88281 C 102.05045 100.89154 102.75873 99.951521 103.75 99.810547 L 105.89453 99.503906 L 107.875 99.222656 L 107.85156 99.058594 C 107.80447 98.727453 107.87895 98.415163 108 98.123047 L 108 95.224609 z M 108 101.22461 L 106.17578 101.48438 L 104.19531 101.76562 C 104.34916 102.84748 103.57793 103.87348 102.49609 104.02734 L 100.51758 104.31055 L 98.537109 104.5918 C 98.690963 105.67364 97.919736 106.69966 96.837891 106.85352 L 94.857422 107.13477 L 92.878906 107.41602 C 92.907376 107.6162 92.872786 107.80881 92.841797 108 L 102.20703 108 L 102.19141 107.88281 C 102.05045 106.89154 102.75873 105.95152 103.75 105.81055 L 105.89453 105.50391 L 107.875 105.22266 L 107.85156 105.05859 C 107.80447 104.72746 107.87895 104.41516 108 104.12305 L 108 101.22461 z M 108 107.22461 L 106.17578 107.48438 L 104.19531 107.76562 C 104.20673 107.84594 104.18016 107.92063 104.18164 108 L 108 108 L 108 107.22461 z " />
    <path
       id="path35"
       style="fill:#1a1a1a;stroke:none;stroke-width:1.375px;stroke-linecap:butt;stroke-linejoin:miter;stroke-opacity:1"
       d="M 13,1 C 13,1 12.92329,6.576711 10.25,9.25 7.576711,11.923289 2,12 2,12 2,12 7.576711,12.07671 10.25,14.75 12.923289,17.423289 13,23 13,23 13,23 13.07671,17.423289 15.75,14.75 18.423289,12.076711 24,12 24,12 24,12 18.423289,11.92329 15.75,9.25 13.076711,6.576711 13,1 13,1 Z"
       sodipodi:nodetypes="cscscscsc" />
    <path
       id="path36"
       style="fill:#1a1a1a;stroke:none;stroke-width:1.375px;stroke-linecap:butt;stroke-linejoin:miter;stroke-opacity:1"
       d="M 93,4 C 93,4 92.92329,9.576711 90.25,12.25 87.576711,14.923289 82,15 82,15 c 0,0 5.576711,0.07671 8.25,2.75 C 92.923289,20.423289 93,26 93,26 93,26 93.07671,20.423289 95.75,17.75 98.423289,15.076711 104,15 104,15 104,15 98.423289,14.92329 95.75,12.25 93.076711,9.576711 93,4 93,4 Z"
       sodipodi:nodetypes="cscscscsc" />
    <rect
       style="fill:#abc837;stroke-width:1.42;paint-order:markers fill stroke"
       id="rect4"
       width="100"
       height="100"
       x="239.99023"
       y="4"
       ry="24" />
    <path
       id="path4"
       style="fill:#353b2e;stroke:none;stroke-width:1px;stroke-linecap:butt;stroke-linejoin:miter;stroke-opacity:1;fill-opacity:1"
       d="M 328.51562 7.5351562 C 328.14033 9.1724175 327.47428 11.015963 326.24023 12.25 C 323.56694 14.923289 317.99023 15 317.99023 15 C 317.99023 15 323.56694 15.07671 326.24023 17.75 C 328.91352 20.423289 328.99023 26 328.99023 26 C 328.99023 26 329.06693 20.423289 331.74023 17.75 C 332.97427 16.515963 334.81782 15.849903 336.45508 15.474609 C 336.22303 15.095156 335.99437 14.714656 335.74219 14.349609 C 334.30213 13.948678 332.79677 13.306535 331.74023 12.25 C 330.6837 11.193465 330.04156 9.6881003 329.64062 8.2480469 C 329.27558 7.9958661 328.89508 7.7672074 328.51562 7.5351562 z M 250.76758 7.9589844 C 248.43696 9.4957555 246.4077 11.435296 244.74414 13.669922 C 245.29056 13.976499 245.80922 14.31899 246.24023 14.75 C 248.91352 17.423289 248.99023 23 248.99023 23 C 248.99023 23 249.06693 17.423289 251.74023 14.75 C 254.41352 12.076711 259.99023 12 259.99023 12 C 259.99023 12 254.41352 11.92329 251.74023 9.25 C 251.36225 8.8720186 251.04886 8.4290839 250.76758 7.9589844 z M 268.99023 21 C 268.99023 21 268.91353 26.576711 266.24023 29.25 C 263.56694 31.923289 257.99023 32 257.99023 32 C 257.99023 32 263.56694 32.07671 266.24023 34.75 C 268.91352 37.423289 268.99023 43 268.99023 43 C 268.99023 43 269.06693 37.423289 271.74023 34.75 C 274.41352 32.076711 279.99023 32 279.99023 32 C 279.99023 32 274.41352 31.92329 271.74023 29.25 C 269.06694 26.576711 268.99023 21 268.99023 21 z M 306.99023 24 L 298.18359 50.417969 L 302.65625 63.832031 L 306.99023 66 L 318.99023 60 L 306.99023 24 z M 290.99023 32 L 282.18359 58.417969 L 286.65625 71.832031 L 290.99023 74 L 302.99023 68 L 299.52344 57.599609 L 297.65625 52 L 290.99023 32 z M 274.99023 40 L 262.99023 76 L 274.99023 82 L 286.99023 76 L 283.52344 65.599609 L 281.65625 60 L 274.99023 40 z M 339.99023 55.5 L 250.83008 100.08008 C 251.63836 100.60949 252.48661 101.07934 253.35938 101.50977 C 253.55298 100.83245 254.12709 100.28801 254.86133 100.18359 L 257.00391 99.876953 L 258.98438 99.595703 L 258.96094 99.431641 C 258.81997 98.440375 259.52826 97.498397 260.51953 97.357422 L 262.66406 97.052734 L 264.64258 96.771484 L 264.62109 96.607422 C 264.48013 95.616156 265.18645 94.674178 266.17773 94.533203 L 268.32227 94.228516 L 270.30273 93.947266 L 270.2793 93.78125 C 270.13833 92.789984 270.84466 91.84996 271.83594 91.708984 L 273.98047 91.402344 L 275.96094 91.121094 L 275.9375 90.957031 C 275.79654 89.965764 276.50287 89.023789 277.49414 88.882812 L 279.63867 88.578125 L 281.61914 88.296875 L 281.5957 88.132812 C 281.45474 87.141548 282.16302 86.19957 283.1543 86.058594 L 285.29883 85.753906 L 287.27734 85.472656 L 287.25391 85.306641 C 287.11294 84.315375 287.82123 83.375351 288.8125 83.234375 L 290.95703 82.927734 L 292.9375 82.646484 L 292.91406 82.482422 C 292.7731 81.491155 293.47943 80.549178 294.4707 80.408203 L 296.61523 80.103516 L 298.5957 79.822266 L 298.57227 79.658203 C 298.4313 78.666936 299.13763 77.724959 300.12891 77.583984 L 302.27344 77.279297 L 304.25391 76.998047 L 304.23047 76.832031 C 304.0895 75.840764 304.79584 74.900741 305.78711 74.759766 L 307.93164 74.453125 L 309.91211 74.171875 L 309.88867 74.007812 C 309.74771 73.016547 310.456 72.074567 311.44727 71.933594 L 313.5918 71.628906 L 315.57031 71.347656 L 315.54688 71.183594 C 315.40591 70.192327 316.1142 69.250349 317.10547 69.109375 L 319.25 68.804688 L 321.23047 68.523438 L 321.20703 68.357422 C 321.06607 67.366155 321.77241 66.42613 322.76367 66.285156 L 324.9082 65.978516 L 326.88867 65.697266 L 326.86523 65.533203 C 326.72426 64.541936 327.43061 63.599959 328.42188 63.458984 L 330.56641 63.154297 L 332.54688 62.873047 L 332.52344 62.708984 C 332.38247 61.717717 333.09077 60.77574 334.08203 60.634766 L 336.22656 60.330078 L 338.20508 60.048828 L 338.18164 59.882812 C 338.04068 58.891548 338.74896 57.951521 339.74023 57.810547 L 339.99023 57.775391 L 339.99023 55.5 z M 339.99023 60.853516 C 339.71416 61.454729 339.18048 61.928625 338.48633 62.027344 L 336.50781 62.310547 L 334.52734 62.591797 C 334.6812 63.673632 333.90997 64.699661 332.82812 64.853516 L 330.84766 65.134766 L 328.86914 65.416016 C 329.023 66.497851 328.25177 67.523878 327.16992 67.677734 L 325.18945 67.958984 L 323.20898 68.240234 C 323.36283 69.322069 322.59357 70.348097 321.51172 70.501953 L 319.53125 70.785156 L 317.55078 71.066406 C 317.70464 72.14824 316.93536 73.174269 315.85352 73.328125 L 313.87305 73.609375 L 311.89258 73.890625 C 312.04643 74.972459 311.2752 75.998489 310.19336 76.152344 L 308.21484 76.433594 L 306.23438 76.714844 C 306.38822 77.796678 305.617 78.82271 304.53516 78.976562 L 302.55469 79.259766 L 300.57617 79.541016 C 300.73003 80.62285 299.95879 81.648879 298.87695 81.802734 L 296.89648 82.083984 L 294.91602 82.365234 C 295.06987 83.447068 294.30059 84.473097 293.21875 84.626953 L 291.23828 84.908203 L 289.25781 85.189453 C 289.41167 86.271287 288.64239 87.297317 287.56055 87.451172 L 285.58008 87.734375 L 283.59961 88.015625 C 283.75347 89.09746 282.98223 90.123489 281.90039 90.277344 L 279.92188 90.558594 L 277.94141 90.839844 C 278.09526 91.921679 277.32403 92.947712 276.24219 93.101562 L 274.26172 93.382812 L 272.28125 93.664062 C 272.43511 94.745898 271.66582 95.771926 270.58398 95.925781 L 268.60352 96.208984 L 266.62305 96.490234 C 266.7769 97.572069 266.00762 98.598098 264.92578 98.751953 L 262.94531 99.033203 L 260.96484 99.314453 C 261.1187 100.39629 260.34746 101.42232 259.26562 101.57617 L 257.28711 101.85742 L 255.30664 102.13867 C 255.31766 102.21614 255.31465 102.29254 255.31641 102.36914 C 256.75606 102.92493 258.26005 103.34552 259.82031 103.61719 C 260.02886 103.48681 260.26345 103.39384 260.51953 103.35742 L 262.66406 103.05273 L 264.64258 102.77148 L 264.62109 102.60742 C 264.48013 101.61615 265.18645 100.67418 266.17773 100.5332 L 268.32227 100.22852 L 270.30273 99.947266 L 270.2793 99.78125 C 270.13833 98.789984 270.84466 97.84996 271.83594 97.708984 L 273.98047 97.402344 L 275.96094 97.121094 L 275.9375 96.957031 C 275.79654 95.965764 276.50287 95.023788 277.49414 94.882812 L 279.63867 94.578125 L 281.61914 94.296875 L 281.5957 94.132812 C 281.45474 93.141548 282.16302 92.19957 283.1543 92.058594 L 285.29883 91.753906 L 287.27734 91.472656 L 287.25391 91.306641 C 287.11294 90.315375 287.82123 89.375351 288.8125 89.234375 L 290.95703 88.927734 L 292.9375 88.646484 L 292.91406 88.482422 C 292.7731 87.491155 293.47943 86.549178 294.4707 86.408203 L 296.61523 86.103516 L 298.5957 85.822266 L 298.57227 85.658203 C 298.4313 84.666936 299.13763 83.724959 300.12891 83.583984 L 302.27344 83.279297 L 304.25391 82.998047 L 304.23047 82.832031 C 304.0895 81.840764 304.79584 80.900741 305.78711 80.759766 L 307.93164 80.453125 L 309.91211 80.171875 L 309.88867 80.007812 C 309.74771 79.016547 310.456 78.074567 311.44727 77.933594 L 313.5918 77.628906 L 315.57031 77.347656 L 315.54688 77.183594 C 315.40591 76.192327 316.1142 75.250349 317.10547 75.109375 L 319.25 74.804688 L 321.23047 74.523438 L 321.20703 74.357422 C 321.06607 73.366155 321.77241 72.42613 322.76367 72.285156 L 324.9082 71.978516 L 326.88867 71.697266 L 326.86523 71.533203 C 326.72426 70.541936 327.43061 69.599959 328.42188 69.458984 L 330.56641 69.154297 L 332.54688 68.873047 L 332.52344 68.708984 C 332.38247 67.717717 333.09077 66.77574 334.08203 66.634766 L 336.22656 66.330078 L 338.20508 66.048828 L 338.18164 65.882812 C 338.04068 64.891548 338.74896 63.951521 339.74023 63.810547 L 339.99023 63.775391 L 339.99023 60.853516 z M 339.99023 66.853516 C 339.71416 67.454729 339.18048 67.928625 338.48633 68.027344 L 336.50781 68.310547 L 334.52734 68.591797 C 334.6812 69.673632 333.90997 70.699661 332.82812 70.853516 L 330.84766 71.134766 L 328.86914 71.416016 C 329.023 72.497851 328.25177 73.523878 327.16992 73.677734 L 325.18945 73.958984 L 323.20898 74.240234 C 323.36283 75.322069 322.59357 76.348097 321.51172 76.501953 L 319.53125 76.785156 L 317.55078 77.066406 C 317.70464 78.14824 316.93536 79.174269 315.85352 79.328125 L 313.87305 79.609375 L 311.89258 79.890625 C 312.04643 80.972459 311.2752 81.998489 310.19336 82.152344 L 308.21484 82.433594 L 306.23438 82.714844 C 306.38822 83.796678 305.617 84.82271 304.53516 84.976562 L 302.55469 85.259766 L 300.57617 85.541016 C 300.73003 86.62285 299.95879 87.648879 298.87695 87.802734 L 296.89648 88.083984 L 294.91602 88.365234 C 295.06987 89.447068 294.30059 90.473097 293.21875 90.626953 L 291.23828 90.908203 L 289.25781 91.189453 C 289.41167 92.271287 288.64239 93.297317 287.56055 93.451172 L 285.58008 93.734375 L 283.59961 94.015625 C 283.75347 95.09746 282.98223 96.123489 281.90039 96.277344 L 279.92188 96.558594 L 277.94141 96.839844 C 278.09526 97.921679 277.32403 98.947712 276.24219 99.101562 L 274.26172 99.382812 L 272.28125 99.664062 C 272.43511 100.74589 271.66582 101.77192 270.58398 101.92578 L 268.60352 102.20898 L 266.62305 102.49023 C 266.70233 103.0477 266.53054 103.58387 266.20312 104 L 271.10352 104 C 271.32107 103.85631 271.56378 103.74769 271.83594 103.70898 L 273.98047 103.40234 L 275.96094 103.12109 L 275.9375 102.95703 C 275.79654 101.96577 276.50287 101.02379 277.49414 100.88281 L 279.63867 100.57812 L 281.61914 100.29688 L 281.5957 100.13281 C 281.45474 99.141557 282.16302 98.19957 283.1543 98.058594 L 285.29883 97.753906 L 287.27734 97.472656 L 287.25391 97.306641 C 287.11294 96.315375 287.82123 95.375351 288.8125 95.234375 L 290.95703 94.927734 L 292.9375 94.646484 L 292.91406 94.482422 C 292.7731 93.491155 293.47943 92.549178 294.4707 92.408203 L 296.61523 92.103516 L 298.5957 91.822266 L 298.57227 91.658203 C 298.4313 90.666936 299.13763 89.724959 300.12891 89.583984 L 302.27344 89.279297 L 304.25391 88.998047 L 304.23047 88.832031 C 304.0895 87.840764 304.79584 86.900741 305.78711 86.759766 L 307.93164 86.453125 L 309.91211 86.171875 L 309.88867 86.007812 C 309.74771 85.016547 310.456 84.074567 311.44727 83.933594 L 313.5918 83.628906 L 315.57031 83.347656 L 315.54688 83.183594 C 315.40591 82.192327 316.1142 81.250349 317.10547 81.109375 L 319.25 80.804688 L 321.23047 80.523438 L 321.20703 80.357422 C 321.06607 79.366155 321.77241 78.42613 322.76367 78.285156 L 324.9082 77.978516 L 326.88867 77.697266 L 326.86523 77.533203 C 326.72426 76.541936 327.43061 75.599959 328.42188 75.458984 L 330.56641 75.154297 L 332.54688 74.873047 L 332.52344 74.708984 C 332.38247 73.717717 333.09077 72.77574 334.08203 72.634766 L 336.22656 72.330078 L 338.20508 72.048828 L 338.18164 71.882812 C 338.04068 70.891548 338.74896 69.951521 339.74023 69.810547 L 339.99023 69.775391 L 339.99023 66.853516 z M 339.99023 72.853516 C 339.71416 73.454729 339.18048 73.928625 338.48633 74.027344 L 336.50781 74.310547 L 334.52734 74.591797 C 334.6812 75.673632 333.90997 76.699661 332.82812 76.853516 L 330.84766 77.134766 L 328.86914 77.416016 C 329.023 78.497851 328.25177 79.523878 327.16992 79.677734 L 325.18945 79.958984 L 323.20898 80.240234 C 323.36283 81.322069 322.59357 82.348097 321.51172 82.501953 L 319.53125 82.785156 L 317.55078 83.066406 C 317.70464 84.14824 316.93536 85.174269 315.85352 85.328125 L 313.87305 85.609375 L 311.89258 85.890625 C 312.04643 86.972459 311.2752 87.998489 310.19336 88.152344 L 308.21484 88.433594 L 306.23438 88.714844 C 306.38822 89.796678 305.617 90.822712 304.53516 90.976562 L 302.55469 91.259766 L 300.57617 91.541016 C 300.73003 92.62285 299.95879 93.648879 298.87695 93.802734 L 296.89648 94.083984 L 294.91602 94.365234 C 295.06987 95.447068 294.30059 96.473097 293.21875 96.626953 L 291.23828 96.908203 L 289.25781 97.189453 C 289.41167 98.271287 288.64239 99.297317 287.56055 99.451172 L 285.58008 99.734375 L 283.59961 100.01562 C 283.75347 101.09749 282.98223 102.12348 281.90039 102.27734 L 279.92188 102.55859 L 277.94141 102.83984 C 278.00057 103.25584 277.89041 103.64692 277.71094 104 L 283.56641 104 L 285.29883 103.75391 L 287.27734 103.47266 L 287.25391 103.30664 C 287.11294 102.31537 287.82123 101.37532 288.8125 101.23438 L 290.95703 100.92773 L 292.9375 100.64648 L 292.91406 100.48242 C 292.7731 99.491167 293.47943 98.549178 294.4707 98.408203 L 296.61523 98.103516 L 298.5957 97.822266 L 298.57227 97.658203 C 298.4313 96.666936 299.13763 95.724959 300.12891 95.583984 L 302.27344 95.279297 L 304.25391 94.998047 L 304.23047 94.832031 C 304.0895 93.840764 304.79584 92.900741 305.78711 92.759766 L 307.93164 92.453125 L 309.91211 92.171875 L 309.88867 92.007812 C 309.74771 91.016548 310.456 90.074567 311.44727 89.933594 L 313.5918 89.628906 L 315.57031 89.347656 L 315.54688 89.183594 C 315.40591 88.192327 316.1142 87.250349 317.10547 87.109375 L 319.25 86.804688 L 321.23047 86.523438 L 321.20703 86.357422 C 321.06607 85.366155 321.77241 84.42613 322.76367 84.285156 L 324.9082 83.978516 L 326.88867 83.697266 L 326.86523 83.533203 C 326.72426 82.541936 327.43061 81.599959 328.42188 81.458984 L 330.56641 81.154297 L 332.54688 80.873047 L 332.52344 80.708984 C 332.38247 79.717717 333.09077 78.77574 334.08203 78.634766 L 336.22656 78.330078 L 338.20508 78.048828 L 338.18164 77.882812 C 338.04068 76.891548 338.74896 75.951521 339.74023 75.810547 L 339.99023 75.775391 L 339.99023 72.853516 z M 339.99023 78.853516 C 339.71416 79.454729 339.18048 79.928625 338.48633 80.027344 L 336.50781 80.310547 L 334.52734 80.591797 C 334.6812 81.673632 333.90997 82.699661 332.82812 82.853516 L 330.84766 83.134766 L 328.86914 83.416016 C 329.023 84.497851 328.25177 85.523878 327.16992 85.677734 L 325.18945 85.958984 L 323.20898 86.240234 C 323.36283 87.322069 322.59357 88.348097 321.51172 88.501953 L 319.53125 88.785156 L 317.55078 89.066406 C 317.70464 90.14824 316.93536 91.174269 315.85352 91.328125 L 313.87305 91.609375 L 311.89258 91.890625 C 312.04643 92.972459 311.2752 93.998489 310.19336 94.152344 L 308.21484 94.433594 L 306.23438 94.714844 C 306.38822 95.796678 305.617 96.822712 304.53516 96.976562 L 302.55469 97.259766 L 300.57617 97.541016 C 300.73003 98.62285 299.95879 99.648879 298.87695 99.802734 L 296.89648 100.08398 L 294.91602 100.36523 C 295.06987 101.44706 294.30059 102.4731 293.21875 102.62695 L 291.23828 102.9082 L 289.25781 103.18945 C 289.29746 103.46823 289.27172 103.7426 289.19922 104 L 297.34375 104 L 298.5957 103.82227 L 298.57227 103.6582 C 298.4313 102.66693 299.13763 101.72496 300.12891 101.58398 L 302.27344 101.2793 L 304.25391 100.99805 L 304.23047 100.83203 C 304.0895 99.840765 304.79584 98.900741 305.78711 98.759766 L 307.93164 98.453125 L 309.91211 98.171875 L 309.88867 98.007812 C 309.74771 97.016548 310.456 96.074567 311.44727 95.933594 L 313.5918 95.628906 L 315.57031 95.347656 L 315.54688 95.183594 C 315.40591 94.192327 316.1142 93.250349 317.10547 93.109375 L 319.25 92.804688 L 321.23047 92.523438 L 321.20703 92.357422 C 321.06607 91.366155 321.77241 90.42613 322.76367 90.285156 L 324.9082 89.978516 L 326.88867 89.697266 L 326.86523 89.533203 C 326.72426 88.541936 327.43061 87.599959 328.42188 87.458984 L 330.56641 87.154297 L 332.54688 86.873047 L 332.52344 86.708984 C 332.38247 85.717717 333.09077 84.77574 334.08203 84.634766 L 336.22656 84.330078 L 338.20508 84.048828 L 338.18164 83.882812 C 338.04068 82.891548 338.74896 81.951521 339.74023 81.810547 L 339.90039 81.787109 C 339.94373 81.195075 339.99023 80.603473 339.99023 80 L 339.99023 78.853516 z M 339.2832 85.714844 C 339.0467 85.870189 338.78161 85.98535 338.48633 86.027344 L 336.50781 86.310547 L 334.52734 86.591797 C 334.6812 87.673632 333.90997 88.699661 332.82812 88.853516 L 330.84766 89.134766 L 328.86914 89.416016 C 329.023 90.497851 328.25177 91.523878 327.16992 91.677734 L 325.18945 91.958984 L 323.20898 92.240234 C 323.36283 93.322069 322.59357 94.348097 321.51172 94.501953 L 319.53125 94.785156 L 317.55078 95.066406 C 317.70464 96.14824 316.93536 97.174269 315.85352 97.328125 L 313.87305 97.609375 L 311.89258 97.890625 C 312.04643 98.972459 311.2752 99.998507 310.19336 100.15234 L 308.21484 100.43359 L 306.23438 100.71484 C 306.38822 101.79667 305.617 102.82271 304.53516 102.97656 L 302.55469 103.25977 L 300.57617 103.54102 C 300.59822 103.69607 300.59618 103.84964 300.58203 104 L 309.88867 104 C 309.75265 103.01168 310.45866 102.07418 311.44727 101.93359 L 313.5918 101.62891 L 315.57031 101.34766 L 315.54688 101.18359 C 315.40591 100.19232 316.1142 99.250349 317.10547 99.109375 L 319.25 98.804688 L 321.23047 98.523438 L 321.20703 98.357422 C 321.06607 97.366155 321.77241 96.42613 322.76367 96.285156 L 324.9082 95.978516 L 326.88867 95.697266 L 326.86523 95.533203 C 326.72426 94.541936 327.43061 93.599959 328.42188 93.458984 L 330.56641 93.154297 L 332.54688 92.873047 L 332.52344 92.708984 C 332.38247 91.717717 333.09077 90.77574 334.08203 90.634766 L 336.22656 90.330078 L 337.74805 90.113281 C 338.39637 88.714839 338.91136 87.245406 339.2832 85.714844 z M 336.59375 92.298828 L 336.50781 92.310547 L 334.52734 92.591797 C 334.6812 93.673632 333.90997 94.699661 332.82812 94.853516 L 330.84766 95.134766 L 328.86914 95.416016 C 329.023 96.497851 328.25177 97.523878 327.16992 97.677734 L 325.18945 97.958984 L 323.20898 98.240234 C 323.36283 99.322069 322.59357 100.34809 321.51172 100.50195 L 319.53125 100.78516 L 317.55078 101.06641 C 317.70464 102.14825 316.93536 103.17429 315.85352 103.32812 L 313.87305 103.60938 L 311.89258 103.89062 C 311.89781 103.92738 311.89337 103.9634 311.89648 104 L 315.99023 104 C 317.84682 104 319.64548 103.77033 321.37891 103.375 C 321.62925 102.81692 322.122 102.37641 322.76367 102.28516 L 324.9082 101.97852 L 325.95117 101.83008 C 326.2626 101.68837 326.57095 101.54116 326.875 101.38672 C 326.82135 100.45228 327.48085 99.592813 328.42188 99.458984 L 330.41211 99.175781 C 332.89466 97.308967 334.99574 94.97838 336.59375 92.298828 z " />
  </g>
</svg>
