<?xml version="1.0" encoding="UTF-8" standalone="no"?>
<!-- Created with Inkscape (http://www.inkscape.org/) -->

<svg
   width="512"
   height="512"
   viewBox="0 0 512.00003 512"
   version="1.1"
   id="svg1"
   inkscape:version="1.4 (e7c3feb, 2024-10-09)"
   sodipodi:docname="logo_512.svg"
   inkscape:export-filename="logo512.png"
   inkscape:export-xdpi="96"
   inkscape:export-ydpi="96"
   xmlns:inkscape="http://www.inkscape.org/namespaces/inkscape"
   xmlns:sodipodi="http://sodipodi.sourceforge.net/DTD/sodipodi-0.dtd"
   xmlns="http://www.w3.org/2000/svg"
   xmlns:svg="http://www.w3.org/2000/svg">
  <sodipodi:namedview
     id="namedview1"
     pagecolor="#ffffff"
     bordercolor="#000000"
     borderopacity="0.25"
     inkscape:showpageshadow="2"
     inkscape:pageopacity="0.0"
     inkscape:pagecheckerboard="0"
     inkscape:deskcolor="#d1d1d1"
     inkscape:document-units="px"
     inkscape:zoom="1.4142136"
     inkscape:cx="257.03331"
     inkscape:cy="218.49599"
     inkscape:window-width="1920"
     inkscape:window-height="1131"
     inkscape:window-x="0"
     inkscape:window-y="0"
     inkscape:window-maximized="1"
     inkscape:current-layer="layer1"
     showgrid="true">
    <inkscape:page
       x="0"
       y="0"
       width="512"
       height="512"
       id="page1"
       margin="0"
       bleed="0"
       inkscape:export-filename="../web/favicon.png"
       inkscape:export-xdpi="96"
       inkscape:export-ydpi="96" />
    <inkscape:page
       x="522"
       y="0"
       width="16"
       height="16"
       id="page2"
       margin="0"
       bleed="0"
       inkscape:export-filename="../web/favicon.png"
       inkscape:export-xdpi="96"
       inkscape:export-ydpi="96" />
    <inkscape:grid
       id="grid2"
       units="px"
       originx="0"
       originy="0"
       spacingx="1.0000001"
       spacingy="1"
       empcolor="#0099e5"
       empopacity="0.30196078"
       color="#0099e5"
       opacity="0.14901961"
       empspacing="4"
       enabled="true"
       visible="true" />
  </sodipodi:namedview>
  <defs
     id="defs1" />
  <g
     inkscape:label="Layer 1"
     inkscape:groupmode="layer"
     id="layer1"
     transform="translate(-153.35423,-154.54859)">
    <rect
       style="fill:#8ec038;fill-opacity:1;paint-order:markers stroke fill"
       id="rect1"
       width="512"
       height="512"
       x="153.35423"
       y="154.54858" />
    <path
       id="path9"
       style="fill:#24281a;fill-opacity:1;stroke:none;stroke-width:1px;stroke-linecap:butt;stroke-linejoin:miter;stroke-opacity:1"
       d="m 489.94681,268.32643 -41.74999,125.24073 21.20372,63.59257 20.54627,10.27778 56.88888,-28.44444 z m -75.85184,37.92592 -41.74999,125.24073 21.20372,63.59257 20.54627,10.27778 56.88888,-28.44444 -16.4352,-49.30554 -8.85181,-26.5463 z m -75.85184,37.92592 -56.88888,170.66664 56.88888,28.44444 56.88888,-28.44444 -16.4352,-49.30554 -8.85181,-26.5463 z" />
    <path
       id="path53"
       style="fill:#24281a;fill-opacity:1;stroke:none;stroke-width:1.375px;stroke-linecap:butt;stroke-linejoin:miter;stroke-opacity:1"
       d="m 349.35424,186.54859 c 0,0 -0.36362,26.43773 -13.03704,39.1111 -12.67336,12.67338 -39.1111,13.03704 -39.1111,13.03704 0,0 26.43773,0.36361 39.1111,13.03703 12.67338,12.67338 13.03704,39.11111 13.03704,39.11111 0,0 0.36361,-26.43773 13.03703,-39.11111 12.67339,-12.67337 39.11111,-13.03703 39.11111,-13.03703 0,0 -26.43772,-0.36362 -39.11111,-13.03704 -12.67336,-12.67337 -13.03703,-39.1111 -13.03703,-39.1111 z"
       sodipodi:nodetypes="cscscscsc" />
    <path
       id="path1"
       style="fill:#24281a;fill-opacity:1;stroke:none;stroke-width:4;stroke-linecap:round;paint-order:markers fill stroke"
       d="M 665.3542,408.17826 153.35427,664.17823 v 2.37037 h 28.49075 l -0.065,-0.44421 c -0.66825,-4.69931 2.68028,-9.16504 7.37963,-9.83334 l 10.16671,-1.44446 9.38884,-1.33333 -0.11093,-0.77776 c -0.6683,-4.69936 2.68027,-9.16499 7.37963,-9.83334 l 10.1667,-1.44446 9.38885,-1.33328 -0.11093,-0.78706 c -0.66826,-4.69931 2.68956,-9.15579 7.38891,-9.8241 l 10.15742,-1.4537 9.38889,-1.33333 -0.11093,-0.77776 c -0.6683,-4.69936 2.68951,-9.16499 7.38887,-9.83334 l 10.16666,-1.44446 9.37965,-1.33333 -0.10193,-0.77777 c -0.6683,-4.69954 2.68027,-9.16522 7.37963,-9.83357 l 10.16666,-1.44441 9.38889,-1.33333 -0.11093,-0.78706 c -0.66831,-4.69936 2.68027,-9.15575 7.37962,-9.8241 l 10.16666,-1.4537 9.38889,-1.33333 -0.11093,-0.77777 c -0.6683,-4.69935 2.68027,-9.16498 7.37963,-9.83333 l 10.16666,-1.44446 9.38889,-1.33333 -0.11093,-0.77777 c -0.66831,-4.6993 2.68951,-9.16499 7.38887,-9.83334 l 10.1667,-1.4444 9.3796,-1.33334 -0.11093,-0.78706 c -0.6683,-4.69935 2.68952,-9.15574 7.38887,-9.82409 l 10.16671,-1.4537 9.38884,-1.33333 -0.11093,-0.77777 c -0.66825,-4.6993 2.68027,-9.16499 7.37967,-9.83334 l 10.16666,-1.44441 9.3889,-1.33333 -0.11094,-0.77781 c -0.6683,-4.69931 2.68023,-9.16499 7.37963,-9.83334 l 10.16666,-1.44441 9.38889,-1.33333 -0.11093,-0.78706 c -0.6683,-4.69935 2.68022,-9.15574 7.37962,-9.82405 l 10.16666,-1.45374 9.3889,-1.33334 -0.11094,-0.77776 c -0.6683,-4.69936 2.68957,-9.16499 7.38887,-9.83334 l 10.16666,-1.44441 9.37965,-1.33333 -0.11093,-0.77782 c -0.6683,-4.6993 2.68956,-9.16498 7.38887,-9.83333 l 10.16666,-1.44441 9.38889,-1.33333 -0.11093,-0.78706 c -0.66826,-4.69931 2.68032,-9.15575 7.37963,-9.82405 l 10.16665,-1.4537 9.3889,-1.33333 -0.11094,-0.77782 c -0.66825,-4.6993 2.68032,-9.16498 7.37963,-9.83333 l 10.16666,-1.44441 9.38889,-1.33334 -0.11093,-0.77781 c -0.66825,-4.6993 2.68956,-9.16499 7.38892,-9.83329 l 10.16666,-1.44446 9.3796,-1.33333 -0.11093,-0.78706 c -0.66826,-4.6993 2.68951,-9.15574 7.38887,-9.82404 l 10.16665,-1.4537 9.3889,-1.33334 -0.11094,-0.77781 c -0.22328,-1.56985 0.1299,-3.05033 0.70372,-4.43515 z m 0,27.13889 -8.64816,1.23145 -9.38889,1.33334 c 0.72936,5.12872 -2.92684,9.99286 -8.05556,10.72222 l -9.3796,1.34263 -9.3889,1.33333 c 0.72937,5.12868 -2.92679,9.99282 -8.05556,10.72223 l -9.38889,1.33333 -9.3796,1.33333 c 0.72936,5.12868 -2.92684,9.99282 -8.05556,10.72218 l -9.3889,1.33334 -9.38889,1.33333 c 0.72936,5.12872 -2.91755,9.99286 -8.04632,10.72223 l -9.38884,1.34262 -9.38889,1.33334 c 0.72936,5.12867 -2.9176,9.99281 -8.04632,10.72217 l -9.38889,1.33334 -9.3889,1.33333 c 0.72941,5.12872 -2.92679,9.99286 -8.05556,10.72223 l -9.3796,1.33333 -9.38889,1.33333 c 0.72941,5.12873 -2.92684,9.99287 -8.05556,10.72223 l -9.3889,1.34263 -9.3796,1.33333 c 0.72936,5.12867 -2.92684,9.99281 -8.05556,10.72218 l -9.38889,1.33333 -9.3889,1.33333 c 0.72937,5.12873 -2.91754,9.99287 -8.04627,10.72223 l -9.38889,1.33333 -9.38889,1.33334 c 0.72936,5.12872 -2.9176,9.99286 -8.04632,10.72222 l -9.38889,1.34258 -9.3889,1.33333 c 0.72941,5.12873 -2.92679,9.99287 -8.05551,10.72223 l -9.37965,1.33333 -9.38889,1.33334 c 0.72941,5.12872 -2.92684,9.99286 -8.05556,10.72222 l -9.3889,1.33334 -9.38884,1.33333 c 0.72936,5.12872 -2.91759,9.99286 -8.04632,10.72223 l -9.38889,1.34257 -9.38889,1.33334 c 0.72941,5.12872 -2.91755,9.99286 -8.04627,10.72222 l -9.3889,1.33334 -9.38889,1.33333 c 0.72936,5.12872 -2.92684,9.99286 -8.05556,10.72223 l -9.37965,1.33333 -9.38885,1.33333 c 0.72937,5.12868 -2.92683,9.99287 -8.05556,10.72223 l -9.38889,1.34258 -9.37965,1.33333 c 0.72941,5.12872 -2.92684,9.99282 -8.05556,10.72223 l -9.38885,1.33333 -9.38889,1.33333 c 0.0488,0.34276 -0.0754,0.66072 -0.0649,1.00002 h 44.29629 c 0.0237,-4.21888 3.03142,-8.00195 7.31482,-8.61113 l 10.15742,-1.4537 9.38889,-1.33334 -0.11093,-0.77776 c -0.6683,-4.69931 2.68952,-9.16504 7.38887,-9.83334 l 10.16671,-1.44446 9.3796,-1.33333 -0.10193,-0.77776 c -0.6683,-4.69936 2.68027,-9.16499 7.37963,-9.83334 l 10.16666,-1.44441 9.38889,-1.33333 -0.11093,-0.78706 c -0.66826,-4.69935 2.68027,-9.15575 7.37962,-9.82409 l 10.16671,-1.45371 9.38885,-1.33333 -0.11094,-0.77776 c -0.66825,-4.69936 2.68027,-9.16499 7.37963,-9.83334 l 10.1667,-1.44446 9.38885,-1.33333 -0.11093,-0.77777 c -0.66826,-4.6993 2.68951,-9.16499 7.38891,-9.83334 l 10.16666,-1.4444 9.37961,-1.33334 -0.11094,-0.78705 c -0.66825,-4.69936 2.68952,-9.15575 7.38892,-9.8241 l 10.16666,-1.4537 9.38889,-1.33333 -0.11093,-0.77777 c -0.6683,-4.69935 2.68022,-9.16499 7.37963,-9.83334 l 10.16665,-1.4444 9.3889,-1.33334 -0.11094,-0.77781 c -0.6683,-4.69931 2.68028,-9.16499 7.37963,-9.83334 l 10.16666,-1.44441 9.38889,-1.33333 -0.11093,-0.78706 c -0.6683,-4.69935 2.68027,-9.15574 7.37963,-9.82404 l 10.16665,-1.45375 9.3889,-1.33334 -0.11093,-0.77776 c -0.66826,-4.69935 2.68956,-9.16499 7.38887,-9.83334 l 10.1667,-1.44441 9.3796,-1.33333 -0.11093,-0.77781 c -0.66825,-4.69931 2.68956,-9.16499 7.38887,-9.83334 l 10.16671,-1.44441 9.38884,-1.33333 -0.11093,-0.78706 c -0.66825,-4.69936 2.68032,-9.15575 7.37967,-9.82405 l 10.16666,-1.4537 9.3889,-1.33333 -0.11094,-0.77781 c -0.6683,-4.69931 2.68028,-9.16499 7.37963,-9.83334 l 10.16666,-1.44441 9.38889,-1.33333 -0.11093,-0.77782 c -0.6683,-4.6993 2.68956,-9.16499 7.38887,-9.83329 l 10.16666,-1.44445 9.3796,-1.33334 -0.11093,-0.78706 c -0.66826,-4.6993 2.68951,-9.15574 7.38887,-9.82404 l 10.16666,-1.4537 9.38889,-1.33334 -0.11093,-0.77781 c -0.22329,-1.56985 0.12989,-3.05033 0.70371,-4.43515 z m 0,28.44444 -8.64816,1.23145 -9.38889,1.33334 c 0.72936,5.12872 -2.92684,9.99286 -8.05556,10.72222 l -9.3796,1.34263 -9.3889,1.33333 c 0.72937,5.12868 -2.92679,9.99282 -8.05556,10.72223 l -9.38889,1.33333 -9.3796,1.33334 c 0.72936,5.12867 -2.92684,9.99281 -8.05556,10.72217 l -9.3889,1.33334 -9.38889,1.33333 c 0.72936,5.12872 -2.91755,9.99286 -8.04632,10.72223 l -9.38884,1.34262 -9.38889,1.33334 c 0.72936,5.12867 -2.9176,9.99281 -8.04632,10.72217 l -9.38889,1.33334 -9.3889,1.33333 c 0.72941,5.12872 -2.92679,9.99287 -8.05556,10.72223 l -9.3796,1.33333 -9.38889,1.33333 c 0.72941,5.12873 -2.92684,9.99287 -8.05556,10.72223 l -9.3889,1.34263 -9.3796,1.33333 c 0.72936,5.12867 -2.92684,9.99282 -8.05556,10.72218 l -9.38889,1.33333 -9.3889,1.33333 c 0.72937,5.12873 -2.91754,9.99287 -8.04627,10.72223 l -9.38889,1.33333 -9.38889,1.33334 c 0.72936,5.12872 -2.9176,9.99286 -8.04632,10.72222 l -9.38889,1.34258 -9.3889,1.33334 c 0.72941,5.12872 -2.92679,9.99286 -8.05551,10.72222 l -9.37965,1.33334 -9.38889,1.33333 c 0.72941,5.12872 -2.92684,9.99286 -8.05556,10.72222 l -9.3889,1.33334 -9.38884,1.33333 c 0.72936,5.12868 -2.91759,9.99282 -8.04632,10.72223 l -9.38889,1.34258 -9.38889,1.33333 c 0.72941,5.12872 -2.91755,9.99282 -8.04627,10.72223 l -9.3889,1.33333 -9.38889,1.33333 c 0.72936,5.12868 -2.92684,9.99287 -8.05556,10.72223 l -9.37965,1.33333 -4.75923,0.67594 h 39.7037 c 0.71249,-3.51005 3.49174,-6.42579 7.2037,-6.95372 l 10.16666,-1.44441 9.38889,-1.33333 -0.11093,-0.78706 c -0.66831,-4.69935 2.68027,-9.15579 7.37962,-9.82409 l 10.16666,-1.4537 9.3889,-1.33334 -0.11094,-0.77776 c -0.6683,-4.69931 2.68027,-9.16499 7.37963,-9.83334 l 10.16666,-1.44446 9.38889,-1.33328 -0.11093,-0.77782 c -0.66831,-4.6993 2.68951,-9.16499 7.38887,-9.83333 l 10.1667,-1.44441 9.37961,-1.33334 -0.11094,-0.78705 c -0.6683,-4.69936 2.68952,-9.15575 7.38887,-9.8241 l 10.16671,-1.4537 9.38885,-1.33333 -0.11094,-0.77777 c -0.66825,-4.69935 2.68027,-9.16499 7.37968,-9.83334 l 10.16665,-1.4444 9.3889,-1.33334 -0.11094,-0.77781 c -0.6683,-4.69931 2.68023,-9.16499 7.37963,-9.83334 l 10.16666,-1.44441 9.38889,-1.33333 -0.11093,-0.78706 c -0.6683,-4.69935 2.68022,-9.15574 7.37963,-9.82404 l 10.16665,-1.45375 9.3889,-1.33333 -0.11093,-0.77777 c -0.66831,-4.69935 2.68956,-9.16499 7.38887,-9.83334 l 10.16665,-1.44441 9.37965,-1.33333 -0.11093,-0.77781 c -0.6683,-4.69931 2.68956,-9.16499 7.38887,-9.83334 l 10.16666,-1.44441 9.38889,-1.33333 -0.11093,-0.78706 c -0.66825,-4.69935 2.68032,-9.15575 7.37963,-9.82405 l 10.16666,-1.4537 9.38889,-1.33333 -0.11093,-0.77781 c -0.66826,-4.69931 2.68032,-9.16499 7.37962,-9.83334 l 10.16666,-1.44441 9.38889,-1.33333 -0.11093,-0.77782 c -0.66825,-4.6993 2.68956,-9.16499 7.38892,-9.83329 l 10.16666,-1.44445 9.3796,-1.33334 -0.11093,-0.78705 c -0.66826,-4.69931 2.68951,-9.15575 7.38887,-9.82405 l 10.16666,-1.4537 9.38889,-1.33333 -0.11093,-0.77782 c -0.22329,-1.56985 0.12989,-3.05033 0.70371,-4.43515 z m 0,28.44444 -8.64816,1.23145 -9.38889,1.33334 c 0.72936,5.12872 -2.92684,9.99286 -8.05556,10.72222 l -9.3796,1.34263 -9.3889,1.33333 c 0.72937,5.12868 -2.92679,9.99282 -8.05556,10.72223 l -9.38889,1.33333 -9.3796,1.33334 c 0.72936,5.12867 -2.92684,9.99281 -8.05556,10.72218 l -9.3889,1.33333 -9.38889,1.33333 c 0.72936,5.12872 -2.91755,9.99287 -8.04632,10.72223 l -9.38884,1.34262 -9.38889,1.33334 c 0.72936,5.12867 -2.9176,9.99281 -8.04632,10.72218 l -9.38889,1.33333 -9.3889,1.33333 c 0.72941,5.12872 -2.92679,9.99287 -8.05556,10.72223 l -9.3796,1.33333 -9.38889,1.33333 c 0.72941,5.12873 -2.92684,9.99287 -8.05556,10.72223 l -9.3889,1.34263 -9.3796,1.33333 c 0.72936,5.12867 -2.92684,9.99282 -8.05556,10.72218 l -9.38889,1.33333 -9.3889,1.33334 c 0.72937,5.12872 -2.91754,9.99286 -8.04627,10.72222 l -9.38889,1.33334 -9.38889,1.33333 c 0.72936,5.12872 -2.9176,9.99286 -8.04632,10.72223 l -9.38889,1.34257 -9.3889,1.33334 c 0.72941,5.12881 -2.92679,9.99281 -8.05551,10.72222 l -9.37965,1.33334 -9.38889,1.33333 c 0.72941,5.12867 -2.92684,9.99286 -8.05556,10.72223 l -9.3889,1.33333 -9.38884,1.33333 c 0.72936,5.12868 -2.91759,9.99282 -8.04632,10.72223 l -2.46295,0.35176 h 28.60183 c 1.16466,-2.70824 3.53166,-4.85703 6.6204,-5.29631 l 10.16665,-1.44445 9.3889,-1.33329 -0.11093,-0.77781 c -0.66831,-4.69935 2.68946,-9.16499 7.38887,-9.83334 l 10.16665,-1.44441 9.37965,-1.33333 -0.11093,-0.78706 c -0.6683,-4.69935 2.68947,-9.15584 7.38887,-9.82404 l 10.16666,-1.45375 9.38889,-1.33334 -0.11093,-0.77776 c -0.6683,-4.69931 2.68027,-9.16499 7.37963,-9.83334 l 10.16666,-1.44441 9.38889,-1.33333 -0.11093,-0.77781 c -0.66831,-4.69931 2.68027,-9.16499 7.37962,-9.83334 l 10.16666,-1.44441 9.38889,-1.33333 -0.11093,-0.78706 c -0.6683,-4.69936 2.68027,-9.15575 7.37963,-9.82405 l 10.16666,-1.45375 9.38889,-1.33333 -0.11093,-0.77777 c -0.66826,-4.6993 2.68956,-9.16498 7.38891,-9.83333 l 10.16666,-1.44441 9.3796,-1.33333 -0.11093,-0.77782 c -0.66825,-4.6993 2.68957,-9.16499 7.38892,-9.83334 l 10.16666,-1.4444 9.38889,-1.33334 -0.11093,-0.78706 c -0.6683,-4.69935 2.68027,-9.15574 7.37962,-9.82404 l 10.16666,-1.4537 9.3889,-1.33334 -0.11094,-0.77781 c -0.6683,-4.6993 2.68028,-9.16499 7.37963,-9.83334 l 10.16666,-1.44441 9.38889,-1.33333 -0.11093,-0.77781 c -0.6683,-4.69931 2.68956,-9.16499 7.38887,-9.83329 l 10.16671,-1.44446 9.3796,-1.33333 -0.11094,-0.78706 c -0.66825,-4.6993 2.68952,-9.15574 7.38887,-9.82405 l 10.16666,-1.4537 9.3889,-1.33333 -0.11094,-0.77781 c -0.22329,-1.56985 0.1299,-3.05034 0.70372,-4.43515 z m 0,28.44444 -8.64816,1.23146 -9.38889,1.33333 c 0.72936,5.12872 -2.92684,9.99286 -8.05556,10.72223 l -9.3796,1.34262 -9.3889,1.33333 c 0.72937,5.12868 -2.92679,9.99282 -8.05556,10.72223 l -9.38889,1.33333 -9.3796,1.33334 c 0.72936,5.12867 -2.92684,9.99281 -8.05556,10.72218 l -9.3889,1.33333 -9.38889,1.33333 c 0.72936,5.12872 -2.91755,9.99287 -8.04632,10.72223 l -9.38884,1.34262 -9.38889,1.33334 c 0.72936,5.12867 -2.9176,9.99281 -8.04632,10.72218 l -9.38889,1.33333 -9.3889,1.33333 c 0.72941,5.12872 -2.92679,9.99287 -8.05556,10.72223 l -9.3796,1.33333 -9.38889,1.33334 c 0.72941,5.12872 -2.92684,9.99286 -8.05556,10.72222 l -9.3889,1.34263 -9.3796,1.33333 c 0.72936,5.12868 -2.92684,9.99282 -8.05556,10.72218 l -9.38889,1.33333 -9.3889,1.33334 c 0.72937,5.12867 -2.91754,9.99286 -8.04627,10.72222 l -9.38889,1.33334 -9.38889,1.33333 c 0.72936,5.12872 -2.9176,9.99282 -8.04632,10.72223 l -9.38889,1.34262 -9.3889,1.33329 c 0.54277,3.81662 -1.34902,7.47875 -4.46293,9.40743 h 23.36109 c 1.34092,-1.89317 3.37488,-3.28273 5.81485,-3.62961 l 10.16666,-1.45375 9.38889,-1.33333 -0.11093,-0.77777 c -0.6683,-4.6993 2.68022,-9.16503 7.37962,-9.83333 l 10.16666,-1.44441 9.3889,-1.33334 -0.11094,-0.77781 c -0.6683,-4.69935 2.68023,-9.16499 7.37963,-9.83334 l 10.16666,-1.44441 9.38889,-1.33333 -0.11093,-0.78706 c -0.6683,-4.69935 2.68027,-9.15574 7.37962,-9.82404 l 10.16666,-1.45375 9.3889,-1.33333 -0.11094,-0.77777 c -0.6683,-4.69931 2.68957,-9.16499 7.38887,-9.83334 l 10.16666,-1.44441 9.37965,-1.33333 -0.11093,-0.77781 c -0.66826,-4.69931 2.68956,-9.16499 7.38887,-9.83334 l 10.16666,-1.44441 9.38889,-1.33333 -0.11093,-0.78706 c -0.66826,-4.69935 2.68032,-9.15574 7.37962,-9.82405 l 10.16666,-1.4537 9.3889,-1.33333 -0.11094,-0.77781 c -0.66825,-4.69931 2.68032,-9.16499 7.37963,-9.83334 l 10.16666,-1.44441 9.38889,-1.33333 -0.11093,-0.77782 c -0.66826,-4.6993 2.68956,-9.16498 7.38892,-9.83329 l 10.16666,-1.44445 9.3796,-1.33334 -0.11094,-0.78705 c -0.66825,-4.69931 2.68952,-9.15575 7.38887,-9.82405 l 10.16666,-1.4537 9.3889,-1.33333 -0.11094,-0.77782 c -0.22328,-1.56985 0.1299,-3.05033 0.70372,-4.43515 z m 0,28.44444 -8.64816,1.23146 -9.38889,1.33333 c 0.72936,5.12872 -2.92684,9.99286 -8.05556,10.72223 l -9.3796,1.34262 -9.3889,1.33333 c 0.72937,5.12868 -2.92679,9.99282 -8.05556,10.72223 l -9.38889,1.33333 -9.3796,1.33334 c 0.72936,5.12867 -2.92684,9.99281 -8.05556,10.72218 l -9.3889,1.33333 -9.38889,1.33333 c 0.72936,5.12872 -2.91755,9.99287 -8.04632,10.72223 l -9.38884,1.34262 -9.38889,1.33334 c 0.72936,5.12867 -2.9176,9.99281 -8.04632,10.72218 l -9.38889,1.33333 -9.3889,1.33333 c 0.72941,5.12873 -2.92679,9.99291 -8.05556,10.72223 l -9.3796,1.33333 -9.38889,1.33334 c 0.72941,5.12867 -2.92684,9.99286 -8.05556,10.72222 l -9.3889,1.34263 -9.3796,1.33333 c 0.72936,5.12872 -2.92684,9.99277 -8.05556,10.72218 l -9.38889,1.33333 -9.3889,1.33334 c 0.41956,2.95177 -0.7112,5.71136 -2.63888,7.75002 h 23.22223 c 1.18201,-0.9683 2.52857,-1.7445 4.12961,-1.97225 l 10.16666,-1.44441 9.38889,-1.33333 -0.11093,-0.78706 c -0.6683,-4.69935 2.68027,-9.15574 7.37963,-9.82404 l 10.16665,-1.45375 9.3889,-1.33329 -0.11094,-0.77781 c -0.66825,-4.69931 2.68957,-9.16503 7.38892,-9.83334 l 10.16666,-1.44441 9.3796,-1.33333 -0.11093,-0.77781 c -0.66825,-4.69936 2.68956,-9.16499 7.38892,-9.83334 l 10.16666,-1.44441 9.38889,-1.33333 -0.11093,-0.78706 c -0.6683,-4.69935 2.68027,-9.15574 7.37962,-9.82405 l 10.16666,-1.4537 9.3889,-1.33333 -0.11094,-0.77781 c -0.6683,-4.69931 2.68027,-9.16499 7.37963,-9.83334 l 10.16666,-1.44441 9.38889,-1.33333 -0.11093,-0.77782 c -0.6683,-4.6993 2.68956,-9.16498 7.38887,-9.83329 l 10.1667,-1.44445 9.37961,-1.33334 -0.11094,-0.78705 c -0.66825,-4.69931 2.68952,-9.15575 7.38887,-9.82405 l 10.16666,-1.4537 9.3889,-1.33333 -0.11094,-0.77782 c -0.22329,-1.56984 0.1299,-3.05033 0.70372,-4.43515 z m 0,28.44444 -8.64816,1.23146 -9.38889,1.33333 c 0.72936,5.12872 -2.92684,9.99286 -8.05556,10.72223 l -9.3796,1.34262 -9.3889,1.33333 c 0.72937,5.12868 -2.92679,9.99282 -8.05556,10.72223 l -9.38889,1.33333 -9.3796,1.33334 c 0.72936,5.12867 -2.92684,9.99281 -8.05556,10.72218 l -9.3889,1.33333 -9.38889,1.33333 c 0.72936,5.12873 -2.91755,9.99282 -8.04632,10.72223 l -9.38884,1.34262 -9.38889,1.33334 c 0.72936,5.12872 -2.9176,9.99286 -8.04632,10.72218 l -9.38889,1.33338 -9.3889,1.33328 c 0.72941,5.12873 -2.92679,9.99287 -8.05556,10.72223 l -9.3796,1.33333 -9.38889,1.33334 c 0.31336,2.20406 -0.30436,4.29345 -1.37965,6.09261 h 25.21296 c 0.30625,-0.0797 0.55988,-0.26928 0.87964,-0.31479 l 10.16666,-1.44441 9.37965,-1.33333 -0.11093,-0.77781 c -0.6683,-4.69936 2.68956,-9.16509 7.38887,-9.83329 l 10.16666,-1.44446 9.38889,-1.33333 -0.11093,-0.78706 c -0.66826,-4.69935 2.68032,-9.15575 7.37962,-9.82405 l 10.16666,-1.4537 9.3889,-1.33333 -0.11094,-0.77781 c -0.66825,-4.69931 2.68032,-9.16499 7.37963,-9.83334 l 10.16666,-1.44441 9.38889,-1.33333 -0.11093,-0.77782 c -0.66826,-4.6993 2.68956,-9.16499 7.38892,-9.83329 l 10.16666,-1.44445 9.3796,-1.33334 -0.11094,-0.78705 c -0.66825,-4.69931 2.68952,-9.15575 7.38887,-9.82405 l 10.16666,-1.4537 9.3889,-1.33333 -0.11094,-0.77782 c -0.22329,-1.56985 0.1299,-3.05033 0.70372,-4.43515 z m 0,28.44444 -8.64816,1.23146 -9.38889,1.33333 c 0.72936,5.12872 -2.92684,9.99286 -8.05556,10.72223 l -9.3796,1.34262 -9.3889,1.33334 c 0.72937,5.12867 -2.92679,9.99281 -8.05556,10.72222 l -9.38889,1.33334 -9.3796,1.33333 c 0.72936,5.12867 -2.92684,9.99281 -8.05556,10.72218 l -9.3889,1.33333 -9.38889,1.33333 c 0.72936,5.12868 -2.91755,9.99282 -8.04632,10.72223 l -9.38884,1.34263 -9.38889,1.33333 c 0.22044,1.55088 -0.065,3.03042 -0.56482,4.42591 h 34.73147 l 0.71296,-0.10193 9.38889,-1.33333 -0.11093,-0.77782 c -0.6683,-4.6993 2.68027,-9.16503 7.37963,-9.83333 l 10.16666,-1.44441 9.38889,-1.33334 -0.11093,-0.77781 c -0.66831,-4.69935 2.68956,-9.16494 7.38887,-9.83329 l 10.1667,-1.44446 9.37961,-1.33333 -0.11094,-0.78706 c -0.66825,-4.69935 2.68952,-9.15574 7.38887,-9.82404 l 10.16666,-1.4537 9.38889,-1.33334 -0.11093,-0.77781 c -0.22329,-1.56985 0.1299,-3.05033 0.70372,-4.43515 z m 0,28.44444 -8.64816,1.23151 -9.38889,1.33328 c 0.72936,5.12882 -2.92684,9.99282 -8.05556,10.72223 l -9.3796,1.34262 -9.3889,1.33334 c 0.72937,5.12872 -2.92679,9.99281 -8.05556,10.72222 l -9.38889,1.33334 -9.3796,1.33333 c 0.13511,0.949 -0.0285,1.86211 -0.17588,2.7685 h 44.39812 l -0.074,-0.55557 c -0.66825,-4.69935 2.68952,-9.15575 7.38887,-9.82405 l 10.16666,-1.4537 9.3889,-1.33333 -0.11094,-0.77781 c -0.22329,-1.56981 0.1299,-3.05034 0.70372,-4.43516 z m 0,28.44444 -8.64816,1.23151 -9.38889,1.33328 c 0.054,0.38068 -0.0721,0.73486 -0.0649,1.11114 h 18.102 z" />
    <path
       id="path35"
       style="fill:#24281a;fill-opacity:1;stroke:none;stroke-width:1.375px;stroke-linecap:butt;stroke-linejoin:miter;stroke-opacity:1"
       d="m 233.50237,310.40045 c 0,0 -0.36362,26.43773 -13.03704,39.1111 -12.67337,12.67337 -39.1111,13.03704 -39.1111,13.03704 0,0 26.43773,0.36361 39.1111,13.03703 12.67337,12.67337 13.03704,39.11111 13.03704,39.11111 0,0 0.36361,-26.43774 13.03703,-39.11111 12.67337,-12.67337 39.11111,-13.03703 39.11111,-13.03703 0,0 -26.43774,-0.36362 -39.11111,-13.03704 -12.67337,-12.67337 -13.03703,-39.1111 -13.03703,-39.1111 z"
       sodipodi:nodetypes="cscscscsc" />
    <path
       id="path36"
       style="fill:#24281a;fill-opacity:1;stroke:none;stroke-width:1.375px;stroke-linecap:butt;stroke-linejoin:miter;stroke-opacity:1"
       d="m 549.35425,186.40045 c 0,0 -0.36361,26.43773 -13.03703,39.1111 -12.67337,12.67337 -39.11111,13.03704 -39.11111,13.03704 0,0 26.43774,0.36361 39.11111,13.03703 12.67337,12.67338 13.03703,39.11111 13.03703,39.11111 0,0 0.36362,-26.43773 13.03704,-39.11111 12.67337,-12.67337 39.11111,-13.03703 39.11111,-13.03703 0,0 -26.43774,-0.36362 -39.11111,-13.03704 -12.67337,-12.67337 -13.03704,-39.1111 -13.03704,-39.1111 z"
       sodipodi:nodetypes="cscscscsc" />
    <rect
       style="fill:#8ec038;fill-opacity:1;paint-order:markers stroke fill"
       id="rect2"
       width="15.999999"
       height="16"
       x="675.35419"
       y="154.54858" />
    <path
       style="fill:#24281a;fill-opacity:1;stroke-width:1;paint-order:markers stroke fill"
       d="m 677.35426,166.54859 3,3 -6e-5,-8 z"
       id="path2"
       sodipodi:nodetypes="cccc" />
    <path
       style="fill:#525a46;fill-opacity:1;stroke-width:1;paint-order:markers stroke fill"
       d="m 683.35426,166.54859 -3,3 -6e-5,-8 z"
       id="path3"
       sodipodi:nodetypes="cccc" />
    <path
       id="path5"
       style="fill:#24281a;fill-opacity:1;stroke-width:1;paint-order:markers stroke fill"
       d="m 683.35423,158.54859 -1.81641,3.02734 c 0.60535,1.00919 1.21068,2.01839 1.81641,3.02735 z" />
    <path
       id="path6"
       style="fill:#525a46;fill-opacity:1;stroke-width:1;paint-order:markers stroke fill"
       d="m 683.35423,158.54859 v 6.05469 c 0.24333,0.4053 0.48506,0.81157 0.72852,1.21679 l 2.27148,-2.27148 z" />
    <path
       id="path11"
       style="fill:#24281a;fill-opacity:1;stroke-width:1;paint-order:markers stroke fill"
       d="m 686.3542,155.54859 -1.81641,3.02734 c 0.60535,1.00919 1.21068,2.01839 1.81641,3.02735 z" />
    <path
       id="path12"
       style="fill:#525a46;fill-opacity:1;stroke-width:1;paint-order:markers stroke fill"
       d="m 686.3542,155.54859 v 6.05469 c 0.24333,0.4053 0.48506,0.81157 0.72852,1.21679 l 2.27148,-2.27148 z" />
    <path
       style="fill:#525a46;fill-opacity:1;stroke:#525a46;stroke-linecap:square;stroke-opacity:1;paint-order:markers stroke fill"
       d="m 681.3542,170.54859 11,-11"
       id="path13" />
    <path
       style="fill:#525a46;fill-opacity:1;stroke:#24281a;stroke-linecap:square;stroke-opacity:1;paint-order:markers stroke fill"
       d="m 681.3542,173.2557 11,-11"
       id="path14" />
    <path
       style="fill:#525a46;fill-opacity:1;stroke:#525a46;stroke-linecap:square;stroke-opacity:1;paint-order:markers stroke fill"
       d="m 681.3542,176.2557 11,-11"
       id="path15" />
    <path
       style="fill:#525a46;fill-opacity:1;stroke:#24281a;stroke-linecap:square;stroke-opacity:1;paint-order:markers stroke fill"
       d="m 681.3542,179.2557 11,-11"
       id="path16" />
    <path
       id="path17"
       style="fill:#525a46;fill-opacity:1;stroke:none;stroke-linecap:square;stroke-opacity:1;paint-order:markers stroke fill"
       d="m 678.3542,155.54859 -0.66602,1.33398 -1.33398,0.66602 1.33398,0.66602 0.66602,1.33398 0.66602,-1.33398 1.33398,-0.66602 -1.33398,-0.66602 z" />
  </g>
</svg>
