<?xml version="1.0" encoding="UTF-8" standalone="no"?>
<!-- Created with Inkscape (http://www.inkscape.org/) -->

<svg
   width="48"
   height="48"
   viewBox="0 0 48 48"
   version="1.1"
   id="svg1"
   inkscape:version="1.4.4 (dcaf3e7d9e, 2026-05-05)"
   sodipodi:docname="new-suits.svg"
   inkscape:export-batch-name=""
   inkscape:export-batch-path="../../letters"
   xmlns:inkscape="http://www.inkscape.org/namespaces/inkscape"
   xmlns:sodipodi="http://sodipodi.sourceforge.net/DTD/sodipodi-0.dtd"
   xmlns="http://www.w3.org/2000/svg"
   xmlns:svg="http://www.w3.org/2000/svg">
  <sodipodi:namedview
     id="namedview1"
     pagecolor="#ffffff"
     bordercolor="#000000"
     borderopacity="0.25"
     inkscape:showpageshadow="2"
     inkscape:pageopacity="0.0"
     inkscape:pagecheckerboard="0"
     inkscape:deskcolor="#d1d1d1"
     inkscape:document-units="px"
     showgrid="true"
     showguides="false"
     inkscape:zoom="16"
     inkscape:cx="86.65625"
     inkscape:cy="35.0625"
     inkscape:window-width="1920"
     inkscape:window-height="1131"
     inkscape:window-x="0"
     inkscape:window-y="0"
     inkscape:window-maximized="1"
     inkscape:current-layer="layer1">
    <inkscape:grid
       id="grid1"
       units="px"
       originx="0"
       originy="0"
       spacingx="1"
       spacingy="1"
       empcolor="#0099e5"
       empopacity="0.30196078"
       color="#0099e5"
       opacity="0.14901961"
       empspacing="4"
       enabled="true"
       visible="true" />
    <sodipodi:guide
       position="3,21"
       orientation="1,0"
       id="guide1"
       inkscape:locked="false" />
    <sodipodi:guide
       position="18,1"
       orientation="0,-1"
       id="guide3"
       inkscape:locked="false" />
    <sodipodi:guide
       position="15.194208,2"
       orientation="0,-1"
       id="guide4"
       inkscape:locked="false" />
    <sodipodi:guide
       position="22.48883,46"
       orientation="0,-1"
       id="guide5"
       inkscape:locked="false" />
    <sodipodi:guide
       position="21.496455,47"
       orientation="0,-1"
       id="guide6"
       inkscape:locked="false" />
    <sodipodi:guide
       position="2,43"
       orientation="1,0"
       id="guide7"
       inkscape:locked="false" />
    <sodipodi:guide
       position="46,38"
       orientation="1,0"
       id="guide8"
       inkscape:locked="false" />
    <sodipodi:guide
       position="45,42"
       orientation="1,0"
       id="guide9"
       inkscape:locked="false" />
    <sodipodi:guide
       position="24,23"
       orientation="1,0"
       id="guide10"
       inkscape:locked="false" />
    <sodipodi:guide
       position="54,24"
       orientation="0,-1"
       id="guide11"
       inkscape:locked="false" />
    <inkscape:page
       x="0"
       y="0"
       width="48"
       height="48"
       id="page23"
       margin="0"
       bleed="0"
       inkscape:label="heart" />
    <inkscape:page
       x="64"
       y="0"
       width="48"
       height="48"
       id="page24"
       margin="0"
       bleed="0"
       inkscape:label="spade" />
    <sodipodi:guide
       position="66,5"
       orientation="1,0"
       id="guide24"
       inkscape:locked="false" />
    <sodipodi:guide
       position="67,12"
       orientation="1,0"
       id="guide25"
       inkscape:locked="false" />
    <sodipodi:guide
       position="110,10"
       orientation="1,0"
       id="guide26"
       inkscape:locked="false" />
    <sodipodi:guide
       position="109,11"
       orientation="1,0"
       id="guide27"
       inkscape:locked="false" />
    <sodipodi:guide
       position="88,12"
       orientation="1,0"
       id="guide28"
       inkscape:locked="false" />
    <sodipodi:guide
       position="78,8"
       orientation="0,-1"
       id="guide29"
       inkscape:locked="false" />
    <inkscape:page
       x="128"
       y="0"
       width="48"
       height="48"
       id="page54"
       margin="0"
       bleed="0"
       inkscape:label="club" />
    <inkscape:page
       x="192"
       y="0"
       width="44"
       height="48"
       id="page55"
       margin="0"
       bleed="0"
       inkscape:label="diamond" />
    <sodipodi:guide
       position="130,9"
       orientation="1,0"
       id="guide55"
       inkscape:locked="false" />
    <sodipodi:guide
       position="131,10"
       orientation="1,0"
       id="guide56"
       inkscape:locked="false" />
    <sodipodi:guide
       position="174,15"
       orientation="1,0"
       id="guide57"
       inkscape:locked="false" />
    <sodipodi:guide
       position="173,15"
       orientation="1,0"
       id="guide58"
       inkscape:locked="false" />
    <sodipodi:guide
       position="195,19.38816"
       orientation="1,0"
       id="guide59"
       inkscape:locked="false" />
    <sodipodi:guide
       position="194,20"
       orientation="1,0"
       id="guide60"
       inkscape:locked="false" />
    <sodipodi:guide
       position="238,19.55662"
       orientation="1,0"
       id="guide61"
       inkscape:locked="false" />
    <sodipodi:guide
       position="237,19"
       orientation="1,0"
       id="guide62"
       inkscape:locked="false" />
    <sodipodi:guide
       position="216,22"
       orientation="1,0"
       id="guide63"
       inkscape:locked="false" />
    <sodipodi:guide
       position="152,26"
       orientation="1,0"
       id="guide64"
       inkscape:locked="false" />
  </sodipodi:namedview>
  <defs
     id="defs1">
    <inkscape:path-effect
       effect="fillet_chamfer"
       id="path-effect54"
       is_visible="true"
       lpeversion="1"
       nodesatellites_param="F,0,0,1,0,0,0,1 @ F,0,0,1,0,0,0,1 @ F,0,0,1,0,5.6568542,0,1 @ F,0,0,1,0,0,0,1 @ F,0,0,1,0,0,0,1 @ F,0,1,1,0,5.6568542,0,1"
       radius="0"
       unit="px"
       method="auto"
       mode="F"
       chamfer_steps="1"
       flexible="false"
       use_knot_distance="true"
       apply_no_radius="true"
       apply_with_radius="true"
       only_selected="false"
       hide_knots="false" />
    <inkscape:path-effect
       effect="mirror_symmetry"
       start_point="-45.420568,52.600089"
       end_point="-11.606268,86.667567"
       center_point="-28.513418,69.633828"
       id="path-effect32"
       is_visible="true"
       lpeversion="1.2"
       lpesatellites=""
       mode="vertical"
       discard_orig_path="false"
       fuse_paths="true"
       oposite_fuse="false"
       split_items="false"
       split_open="false"
       link_styles="false" />
    <inkscape:path-effect
       effect="mirror_symmetry"
       start_point="-17.718827,22.317145"
       end_point="-45.371084,61.551731"
       center_point="-31.544956,41.934438"
       id="path-effect19"
       is_visible="true"
       lpeversion="1.2"
       lpesatellites=""
       mode="vertical"
       discard_orig_path="false"
       fuse_paths="true"
       oposite_fuse="false"
       split_items="false"
       split_open="false"
       link_styles="false" />
    <inkscape:path-effect
       effect="mirror_symmetry"
       start_point="29.46025,9.3742026"
       end_point="2.6426886,49.18398"
       center_point="16.051469,29.279091"
       id="path-effect16"
       is_visible="true"
       lpeversion="1.2"
       lpesatellites=""
       mode="vertical"
       discard_orig_path="false"
       fuse_paths="true"
       oposite_fuse="false"
       split_items="false"
       split_open="false"
       link_styles="false" />
  </defs>
  <g
     inkscape:label="Layer 1"
     inkscape:groupmode="layer"
     id="layer1">
    <path
       d="M 6.8847656,3.1113281 C 1.6771918,6.7815891 0.44120005,13.927098 4.1113281,19.134766 L 24,47.355469 43.888672,19.134766 C 47.5588,13.927098 46.322808,6.7815891 41.115234,3.1113281 36.006661,-0.48915795 28.820928,0.58903447 25.089844,5.8847656 L 24,7.4316406 22.910156,5.8847656 C 19.17526,0.58362393 11.988083,-0.48545338 6.8847656,3.1113281 Z m 11.9394534,5.6542969 10.68164,15.15625 7.027344,-9.970703 c 0.797883,-1.132081 0.528566,-2.686492 -0.603516,-3.484375 -1.132081,-0.7978829 -2.686492,-0.5285658 -3.484375,0.603516 l -2.939453,4.171875 -2.447265,-3.472657 2.117187,-3.003906 c 2.074496,-2.9434113 6.115183,-3.6428547 9.058594,-1.5683594 2.943411,2.0744954 3.642894,6.1152094 1.568359,9.0585934 L 29.505859,30.865234 C 28.445972,29.362106 20.541711,18.148069 15.554688,11.070313 15.099322,10.424042 13.590929,9.3950763 12.070313,10.466797 c -1.132082,0.797883 -1.401485,2.352355 -0.603516,3.484375 4.993835,7.084392 9.985619,14.17023 14.980469,21.253906 L 24,38.675781 C 19.896477,32.856181 15.343705,26.396861 8.1972656,16.255859 6.1229385,13.312329 6.8222137,9.271761 9.765625,7.1972656 12.645622,5.1674636 16.710724,5.7667722 18.824219,8.765625 Z"
       style="fill:#1a1a1a;stroke-width:24;stroke-miterlimit:10"
       id="path23"
       sodipodi:nodetypes="sscssscsssccsccccsscsssccsss" />
    <g
       id="g39"
       transform="rotate(0,0)"
       style="opacity:0.546245">
      <g
         id="g38"
         transform="translate(6,3)">
        <g
           id="g37"
           transform="translate(-47,14)">
          <rect
             style="fill:#ff5555;stroke-width:24;stroke-miterlimit:10"
             id="rect35"
             width="23"
             height="76"
             x="2"
             y="1"
             ry="11.5" />
          <rect
             style="fill:#abc837;stroke-width:24;stroke-miterlimit:10"
             id="rect36"
             width="13"
             height="66"
             x="7"
             y="6"
             ry="6.5" />
          <rect
             style="fill:#d35f5f;stroke-width:24;stroke-miterlimit:10"
             id="rect37"
             width="5"
             height="58"
             x="11"
             y="10"
             ry="2.5" />
        </g>
      </g>
    </g>
    <path
       id="path43"
       style="opacity:1;fill:#000000;stroke-width:24;stroke-miterlimit:10"
       d="m 148.02061,65.596795 -3.52344,3.548829 -2.8164,2.83789 -3.52344,3.548828 -2.81836,2.839844 -3.52149,3.548828 -2.44921,2.466797 c -4.48815,4.521748 -4.46121,11.775528 0.0605,16.263669 4.52175,4.48815 11.77553,4.46121 16.26367,-0.0605 l 2.32813,-2.345707 2.32812,2.345707 c 4.48815,4.52174 11.74193,4.54868 16.26368,0.0605 4.52174,-4.488141 4.54873,-11.741921 0.0605,-16.263669 l -2.44922,-2.466797 -3.52148,-3.548828 -2.81836,-2.839844 -3.52344,-3.548828 -2.8164,-2.83789 z m 0,7.097657 2.81836,2.83789 3.52148,3.548828 2.81836,2.839844 3.52344,3.548828 2.42188,2.439453 c 2.53677,2.555771 2.52065,6.656583 -0.0352,9.19336 -2.55577,2.536777 -6.65463,2.520617 -9.19141,-0.03516 l -2.35351,-2.371093 -3.52344,-3.548828 -3.52344,3.548828 -2.35351,2.371093 c -2.53678,2.555771 -6.63564,2.571931 -9.19141,0.03516 -2.55577,-2.536777 -2.57193,-6.637589 -0.0352,-9.19336 l 2.42188,-2.439453 3.52344,-3.548828 2.81836,-2.839844 3.52148,-3.548828 z m 0,5.677734 -3.52148,3.548828 -2.81836,2.837891 -3.52344,3.550781 -2.40039,2.417969 c -0.97569,0.982988 -0.96932,2.559472 0.0137,3.535156 0.98299,0.975683 2.55947,0.969315 3.53516,-0.01367 l 2.375,-2.392578 3.52148,-3.548828 2.81836,-2.837891 2.81836,2.837891 3.52148,3.548828 2.375,2.392578 c 0.97569,0.982989 2.55217,0.989357 3.53516,0.01367 0.98299,-0.975684 0.98933,-2.552168 0.0137,-3.535156 l -2.40039,-2.417969 -3.52344,-3.550781 -2.81836,-2.837891 z" />
    <path
       id="path52"
       style="opacity:1;fill:#000000;fill-opacity:1;stroke-width:24;stroke-miterlimit:10"
       d="M 88 0.6640625 L 69.15625 20.587891 C 64.778482 25.216582 64.978917 32.465785 69.607422 36.84375 C 74.235927 41.221715 81.488168 41.021934 85.865234 36.392578 L 86.642578 35.570312 L 86.5625 36.371094 A 15.847156 15.847156 0 0 1 82 46 L 94 46 A 15.847156 15.847156 0 0 1 89.4375 36.371094 L 89.357422 35.570312 L 90.134766 36.392578 C 94.511832 41.021934 101.76407 41.221715 106.39258 36.84375 C 111.02108 32.465785 111.22152 25.216585 106.84375 20.587891 L 88 0.6640625 z M 88 7.9414062 L 103.21094 24.023438 C 105.68539 26.639595 105.57314 30.736435 102.95703 33.210938 C 100.34092 35.68544 96.242077 35.573146 93.767578 32.957031 L 88 26.859375 L 82.232422 32.957031 C 79.757923 35.573146 75.65908 35.68544 73.042969 33.210938 C 70.426857 30.736435 70.31456 26.63955 72.789062 24.023438 L 88 7.9414062 z " />
    <path
       d="m 88,13.761719 -3.441406,3.636718 -2.753907,2.91211 -3.441406,3.636719 -2.669922,2.824218 c -0.951731,1.006197 -0.906587,2.583425 0.09961,3.535157 1.006197,0.951731 2.581471,0.906587 3.533203,-0.09961 L 81.804687,27.585937 85.246094,23.947266 88,21.037109 l 2.753906,2.910157 3.441406,3.638671 2.478516,2.621094 c 0.951732,1.006197 2.527006,1.051341 3.533202,0.09961 1.0062,-0.951732 1.05134,-2.52896 0.0996,-3.535157 l -2.669921,-2.824218 -3.441407,-3.636719 -2.753906,-2.91211 z"
       style="opacity:1;fill:#000000;stroke-width:24;stroke-miterlimit:10;fill-opacity:1"
       id="path53" />
    <path
       id="path66"
       style="opacity:1;fill:#000000;fill-opacity:1;stroke-width:24.0001;stroke-miterlimit:10"
       d="M 152 1 C 145.37258 1 140 6.372583 140 13 C 139.99981 14.048545 140.13704 15.092592 140.4082 16.105469 C 134.44892 16.903015 129.99986 21.987589 130 28 C 130.00015 34.627417 135.37258 40 142 40 C 145.25615 39.991873 148.33352 38.663252 150.5625 36.376953 A 15.847156 15.847156 0 0 1 146 46 L 158 46 A 15.847156 15.847156 0 0 1 153.4375 36.376953 C 155.66648 38.663251 158.74385 39.991869 162 40 C 168.62742 40 173.99992 34.627417 174 28 C 174.00008 21.986937 169.5499 16.90212 163.58984 16.105469 C 163.86166 15.09268 163.99994 14.048631 164 13 C 164.00039 6.372583 158.62742 1 152 1 z M 152 6 C 155.86599 5.9999979 159 9.1340053 159 13 C 159 16.865995 155.86599 20.000002 152 20 C 148.13401 20.000002 145 16.865995 145 13 C 145 9.1340053 148.13401 5.9999979 152 6 z M 152 10 A 3.0000038 2.9999998 0 0 0 149 13 A 3.0000038 2.9999998 0 0 0 152 16 A 3.0000038 2.9999998 0 0 0 155 13 A 3.0000038 2.9999998 0 0 0 152 10 z M 141.9707 21 C 144.12763 20.9909 146.16832 21.976629 147.50195 23.671875 L 143.95117 25.720703 C 142.98463 24.893599 141.60156 24.766044 140.5 25.402344 C 139.06555 26.230935 138.57396 28.065427 139.40234 29.5 C 140.23073 30.934575 142.06531 31.425856 143.5 30.597656 L 158.50195 21.9375 C 161.85023 20.005992 166.13066 21.153863 168.0625 24.501953 C 169.99434 27.850043 168.84591 32.130253 165.49805 34.0625 C 164.44303 34.671417 163.24743 34.994639 162.0293 35 C 159.87237 35.0091 157.83168 34.023371 156.49805 32.328125 L 160.04883 30.279297 C 161.01537 31.106401 162.39846 31.233987 163.5 30.597656 C 164.93447 29.769096 165.42587 27.934674 164.59766 26.5 C 163.7691 25.065526 161.93469 24.574144 160.5 25.402344 L 145.49805 34.0625 C 142.15035 35.99502 137.86934 34.846137 135.9375 31.498047 C 134.00566 28.149957 135.15405 23.869671 138.50195 21.9375 C 139.55693 21.328507 140.75257 21.005361 141.9707 21 z " />
    <path
       id="path81"
       style="opacity:1;fill:#000000;fill-opacity:1;stroke-width:24.0001;stroke-miterlimit:10"
       d="m 214,0.5996099 -20,23.4003871 20,23.400394 20,-23.400394 z m 0,7.6484388 13.46271,15.7502143 -13.46484,15.753902 -8.03788,-9.405511 8.04002,-9.407252 2.61699,3.058839 -5.42676,6.348648 2.80766,3.284147 8.23438,-9.632811 -8.23243,-9.630864 -10.84768,12.693322 -2.61524,-3.06055 z"
       sodipodi:nodetypes="cccccccccccccccccc" />
  </g>
</svg>
