<?xml version="1.0" encoding="UTF-8" standalone="no"?>
<!-- Created with Inkscape (http://www.inkscape.org/) -->

<svg
   width="256"
   height="256"
   viewBox="0 0 256 256"
   version="1.1"
   id="svg1"
   xml:space="preserve"
   xmlns:xlink="http://www.w3.org/1999/xlink"
   xmlns="http://www.w3.org/2000/svg"
   xmlns:svg="http://www.w3.org/2000/svg"><defs
     id="defs1"><linearGradient
       id="linearGradient270"><stop
         style="stop-color:#7c6740;stop-opacity:1;"
         offset="0"
         id="stop270" /><stop
         style="stop-color:#a57963;stop-opacity:1;"
         offset="1"
         id="stop271" /></linearGradient><linearGradient
       id="linearGradient268"><stop
         style="stop-color:#2e74df;stop-opacity:1;"
         offset="0"
         id="stop268" /><stop
         style="stop-color:#5a9cff;stop-opacity:1;"
         offset="1"
         id="stop269" /></linearGradient><linearGradient
       id="linearGradient266"><stop
         style="stop-color:#3ec13e;stop-opacity:1;"
         offset="0"
         id="stop266" /><stop
         style="stop-color:#e0d376;stop-opacity:1;"
         offset="1"
         id="stop267" /></linearGradient><linearGradient
       xlink:href="#linearGradient268"
       id="linearGradient305"
       gradientUnits="userSpaceOnUse"
       x1="2137.9124"
       y1="219.56528"
       x2="2163"
       y2="219.56528"
       gradientTransform="translate(532)" /><linearGradient
       xlink:href="#linearGradient266"
       id="linearGradient306"
       gradientUnits="userSpaceOnUse"
       x1="1959.6315"
       y1="28.631466"
       x2="2080.1094"
       y2="154.18166"
       gradientTransform="translate(532)" /><linearGradient
       xlink:href="#linearGradient270"
       id="linearGradient307"
       gradientUnits="userSpaceOnUse"
       x1="1955"
       y1="216.15237"
       x2="1979.8861"
       y2="216.15237"
       gradientTransform="translate(532)" /></defs><g
     id="layer3"
     style="display:inline;fill:none;stroke:#dee4da;stroke-width:0.5;stroke-dasharray:none;stroke-opacity:1"
     transform="translate(-2463)"><rect
       ry="15.847619"
       rx="15.847619"
       y="24"
       x="2487"
       height="208"
       width="208"
       id="rect8"
       style="display:inline;opacity:1;fill:url(#linearGradient307);fill-opacity:1;stroke:none;stroke-width:0.989998;stroke-linecap:butt;stroke-linejoin:miter;stroke-miterlimit:4;stroke-dasharray:none;stroke-dashoffset:0;stroke-opacity:1;marker:none;marker-start:none;marker-mid:none;marker-end:none;paint-order:normal;enable-background:new" /><rect
       ry="15.847619"
       rx="15.847619"
       y="24"
       x="2487"
       height="180"
       width="208"
       id="rect9"
       style="display:inline;opacity:1;fill:url(#linearGradient306);fill-opacity:1;stroke:none;stroke-width:0.989998;stroke-linecap:butt;stroke-linejoin:miter;stroke-miterlimit:4;stroke-dasharray:none;stroke-dashoffset:0;stroke-opacity:1;marker:none;marker-start:none;marker-mid:none;marker-end:none;paint-order:normal;enable-background:new" /><path
       style="fill:#0b5b1b;fill-opacity:0.555717;stroke:none;paint-order:markers stroke fill"
       d="m 2056.263,112.50359 -31.162,22.37443 a 4.8163773,4.8163773 179.54542 0 1 -5.5557,0.0441 l -16.9387,-11.75922 a 2.5300948,2.5300948 88.816117 0 1 -0.085,-4.09533 l 1.9282,-1.46025 -16.0973,-15.81748 a 1.5085775,1.5085775 113.25033 0 1 1.1101,-2.583689 l 39.2039,1.371079 3.8432,-2.718441 z"
       id="path199"
       transform="translate(532,2)" /><path
       style="fill:#0b5b1b;fill-opacity:0.555717;stroke:none;paint-order:markers stroke fill"
       d="m 2056.263,112.50359 -31.162,22.37443 a 4.8163773,4.8163773 179.54542 0 1 -5.5557,0.0441 l -16.9387,-11.75922 a 2.5300948,2.5300948 88.816117 0 1 -0.085,-4.09533 l 1.9282,-1.46025 -16.0973,-15.81748 a 1.5085775,1.5085775 113.25033 0 1 1.1101,-2.583689 l 39.2039,1.371079 3.8432,-2.718441 z"
       id="path167"
       transform="translate(591.12816,-39.791097)" /><path
       id="path54"
       style="display:inline;opacity:1;fill:url(#linearGradient305);fill-opacity:1;stroke:none;stroke-width:0.989998;stroke-linecap:butt;stroke-linejoin:miter;stroke-miterlimit:4;stroke-dasharray:none;stroke-dashoffset:0;stroke-opacity:1;marker:none;marker-start:none;marker-mid:none;marker-end:none;paint-order:normal;enable-background:new"
       d="M 2695,96.894531 2543,204 v 28 h 136.1523 c 8.7796,0 15.8477,-7.06808 15.8477,-15.84766 z" /><path
       id="path55"
       style="display:inline;opacity:1;fill:#54a0f5;fill-opacity:1;stroke:none;stroke-width:0.989998;stroke-linecap:butt;stroke-linejoin:miter;stroke-miterlimit:4;stroke-dasharray:none;stroke-dashoffset:0;stroke-opacity:1;marker:none;marker-start:none;marker-mid:none;marker-end:none;paint-order:normal;enable-background:new"
       d="M 2695,96.894531 2543,204 h 136.1523 c 8.7796,0 15.8477,-7.06808 15.8477,-15.84766 z" /><path
       style="opacity:1;fill:#00f090;fill-opacity:0.344834;stroke:none;paint-order:markers stroke fill"
       d="m 2543,204 h 26.7062 L 2695,115.71127 V 96.894531 Z"
       id="path57" /><path
       style="opacity:1;fill:#006eb8;fill-opacity:0.45625;stroke:none;paint-order:markers stroke fill"
       d="m 2543,204 v 28 l 75.5559,-28 z"
       id="path60" /><path
       id="path62"
       style="opacity:1;fill:#ffffff;fill-opacity:0.176323;stroke:none;paint-order:markers stroke fill"
       d="M 2502.8477,24 C 2494.0681,24 2487,31.068075 2487,39.847656 V 196.63867 c 2.9196,5.57145 8.7447,9.36133 15.4941,9.36133 h 177.0118 c 6.7494,0 12.5745,-3.78988 15.4941,-9.36133 V 39.847656 C 2695,31.068075 2687.9319,24 2679.1523,24 Z m 0.5585,2 h 175.1876 C 2686.575,26 2693,32.424926 2693,40.40625 v 147.1875 C 2693,195.57507 2686.575,202 2678.5938,202 H 2503.4062 C 2495.425,202 2489,195.57507 2489,187.59375 V 40.40625 C 2489,32.424926 2495.425,26 2503.4062,26 Z" /><path
       style="fill:#0c5a1e;fill-opacity:0.525293;stroke:none;paint-order:markers stroke fill"
       d="m 2044.2128,134.66654 22.7977,0.70245 a 1.1356925,1.1356925 108.73573 0 0 0.6978,-2.05736 l -15.9934,-11.49523 z"
       id="path110"
       transform="translate(591.80941,-39.450473)" /><path
       style="fill:#0c5a1e;fill-opacity:0.525293;stroke:none;paint-order:markers stroke fill"
       d="m 2044.2128,134.66654 22.7977,0.70245 a 1.1356925,1.1356925 108.73573 0 0 0.6978,-2.05736 l -15.9934,-11.49523 z"
       id="path127"
       transform="translate(616.60561,-57.02366)" /><path
       style="fill:#81cf7a;fill-opacity:1;stroke:none;paint-order:markers stroke fill"
       d="m 2049.2243,53.155247 19.3094,14.046659 a 10.777552,10.777552 49.800922 0 1 3.3108,3.917956 L 2081.979,91.5069 a 0.55055288,0.55055288 139.78388 0 1 -0.8166,0.69048 l -19.2837,-14.010419 a 10.767321,10.767321 49.779416 0 1 -3.3121,-3.916502 l -10.1578,-20.425968 a 0.54965991,0.54965991 139.79646 0 1 0.8155,-0.689244 z"
       id="path128"
       transform="translate(603.57381,-15.160059)" /><path
       style="fill:#c63f22;fill-opacity:1;stroke:none;paint-order:markers stroke fill"
       d="m 2036.3317,90.49665 10.1081,-35.173365 a 2.5285425,2.5285425 161.01677 0 1 3.9164,-1.34725 l 17.5543,12.753888 a 4.8754772,4.8754772 71.016764 0 1 1.8201,5.290959 l -10.1081,35.173368 a 2.5285422,2.5285422 161.01677 0 1 -3.9164,1.34725 l -17.5543,-12.753891 a 4.8754776,4.8754776 71.016767 0 1 -1.8201,-5.290959 z"
       id="path129"
       transform="translate(603.57381,-15.160059)" /><path
       style="fill:#81cf7a;fill-opacity:1;stroke:none;paint-order:markers stroke fill"
       d="m 2049.2243,53.155247 19.3094,14.046659 a 10.777552,10.777552 49.800922 0 1 3.3108,3.917956 L 2081.979,91.5069 a 0.55055288,0.55055288 139.78388 0 1 -0.8166,0.69048 l -19.2837,-14.010419 a 10.767321,10.767321 49.779416 0 1 -3.3121,-3.916502 l -10.1578,-20.425968 a 0.54965991,0.54965991 139.79646 0 1 0.8155,-0.689244 z"
       id="path133"
       transform="translate(578.90386,2.417088)" /><path
       style="fill:#d84425;fill-opacity:1;stroke:none;paint-order:markers stroke fill"
       d="m 2036.3317,90.49665 10.1081,-35.173365 a 2.5285425,2.5285425 161.01677 0 1 3.9164,-1.34725 l 17.5543,12.753888 a 4.8754772,4.8754772 71.016764 0 1 1.8201,5.290959 l -10.1081,35.173368 a 2.5285422,2.5285422 161.01677 0 1 -3.9164,1.34725 l -17.5543,-12.753891 a 4.8754776,4.8754776 71.016767 0 1 -1.8201,-5.290959 z"
       id="path165"
       transform="translate(578.90386,2.417088)" /><path
       style="fill:#0c5a1e;fill-opacity:0.525293;stroke:none;paint-order:markers stroke fill"
       d="m 2044.2128,134.66654 22.7977,0.70245 a 1.1356925,1.1356925 108.73573 0 0 0.6978,-2.05736 l -15.9934,-11.49523 z"
       id="path192"
       transform="translate(532.68125,2.3406244)" /><path
       style="fill:#0c5a1e;fill-opacity:0.525293;stroke:none;paint-order:markers stroke fill"
       d="m 2044.2128,134.66654 22.7977,0.70245 a 1.1356925,1.1356925 108.73573 0 0 0.6978,-2.05736 l -15.9934,-11.49523 z"
       id="path193"
       transform="translate(557.47745,-15.232563)" /><path
       style="fill:#81cf7a;fill-opacity:1;stroke:none;paint-order:markers stroke fill"
       d="m 2049.2243,53.155247 19.3094,14.046659 a 10.777552,10.777552 49.800922 0 1 3.3108,3.917956 L 2081.979,91.5069 a 0.55055288,0.55055288 139.78388 0 1 -0.8166,0.69048 l -19.2837,-14.010419 a 10.767321,10.767321 49.779416 0 1 -3.3121,-3.916502 l -10.1578,-20.425968 a 0.54965991,0.54965991 139.79646 0 1 0.8155,-0.689244 z"
       id="path194"
       transform="translate(544.44565,26.631038)" /><path
       style="fill:#c63f22;fill-opacity:1;stroke:none;paint-order:markers stroke fill"
       d="m 2036.3317,90.49665 10.1081,-35.173365 a 2.5285425,2.5285425 161.01677 0 1 3.9164,-1.34725 l 17.5543,12.753888 a 4.8754772,4.8754772 71.016764 0 1 1.8201,5.290959 l -10.1081,35.173368 a 2.5285422,2.5285422 161.01677 0 1 -3.9164,1.34725 l -17.5543,-12.753891 a 4.8754776,4.8754776 71.016767 0 1 -1.8201,-5.290959 z"
       id="path195"
       transform="translate(544.44565,26.631038)" /><path
       style="fill:#81cf7a;fill-opacity:1;stroke:none;paint-order:markers stroke fill"
       d="m 2049.2243,53.155247 19.3094,14.046659 a 10.777552,10.777552 49.800922 0 1 3.3108,3.917956 L 2081.979,91.5069 a 0.55055288,0.55055288 139.78388 0 1 -0.8166,0.69048 l -19.2837,-14.010419 a 10.767321,10.767321 49.779416 0 1 -3.3121,-3.916502 l -10.1578,-20.425968 a 0.54965991,0.54965991 139.79646 0 1 0.8155,-0.689244 z"
       id="path196"
       transform="translate(519.7757,44.208185)" /><path
       style="fill:#d84425;fill-opacity:1;stroke:none;paint-order:markers stroke fill"
       d="m 2036.3317,90.49665 10.1081,-35.173365 a 2.5285425,2.5285425 161.01677 0 1 3.9164,-1.34725 l 17.5543,12.753888 a 4.8754772,4.8754772 71.016764 0 1 1.8201,5.290959 l -10.1081,35.173368 a 2.5285422,2.5285422 161.01677 0 1 -3.9164,1.34725 l -17.5543,-12.753891 a 4.8754776,4.8754776 71.016767 0 1 -1.8201,-5.290959 z"
       id="path198"
       transform="translate(519.7757,44.208185)" /><path
       style="fill:#0c5a1e;fill-opacity:0.525293;stroke:none;paint-order:markers stroke fill"
       d="m 2044.2128,134.66654 22.7977,0.70245 a 1.1356925,1.1356925 108.73573 0 0 0.6978,-2.05736 l -15.9934,-11.49523 z"
       id="path204"
       transform="translate(473.48673,44.103046)" /><path
       style="fill:#0c5a1e;fill-opacity:0.525293;stroke:none;paint-order:markers stroke fill"
       d="m 2044.2128,134.66654 22.7977,0.70245 a 1.1356925,1.1356925 108.73573 0 0 0.6978,-2.05736 l -15.9934,-11.49523 z"
       id="path205"
       transform="translate(498.28294,26.529859)" /><path
       style="fill:#81cf7a;fill-opacity:1;stroke:none;paint-order:markers stroke fill"
       d="m 2049.2243,53.155247 19.3094,14.046659 a 10.777552,10.777552 49.800922 0 1 3.3108,3.917956 L 2081.979,91.5069 a 0.55055288,0.55055288 139.78388 0 1 -0.8166,0.69048 l -19.2837,-14.010419 a 10.767321,10.767321 49.779416 0 1 -3.3121,-3.916502 l -10.1578,-20.425968 a 0.54965991,0.54965991 139.79646 0 1 0.8155,-0.689244 z"
       id="path206"
       transform="translate(485.25113,68.39346)" /><path
       style="fill:#c63f22;fill-opacity:1;stroke:none;paint-order:markers stroke fill"
       d="m 2036.3317,90.49665 10.1081,-35.173365 a 2.5285425,2.5285425 161.01677 0 1 3.9164,-1.34725 l 17.5543,12.753888 a 4.8754772,4.8754772 71.016764 0 1 1.8201,5.290959 l -10.1081,35.173368 a 2.5285422,2.5285422 161.01677 0 1 -3.9164,1.34725 l -17.5543,-12.753891 a 4.8754776,4.8754776 71.016767 0 1 -1.8201,-5.290959 z"
       id="path207"
       transform="translate(485.25113,68.39346)" /><path
       style="fill:#81cf7a;fill-opacity:1;stroke:none;paint-order:markers stroke fill"
       d="m 2049.2243,53.155247 19.3094,14.046659 a 10.777552,10.777552 49.800922 0 1 3.3108,3.917956 L 2081.979,91.5069 a 0.55055288,0.55055288 139.78388 0 1 -0.8166,0.69048 l -19.2837,-14.010419 a 10.767321,10.767321 49.779416 0 1 -3.3121,-3.916502 l -10.1578,-20.425968 a 0.54965991,0.54965991 139.79646 0 1 0.8155,-0.689244 z"
       id="path208"
       transform="translate(460.58118,85.970607)" /><path
       style="fill:#d84425;fill-opacity:1;stroke:none;paint-order:markers stroke fill"
       d="m 2036.3317,90.49665 10.1081,-35.173365 a 2.5285425,2.5285425 161.01677 0 1 3.9164,-1.34725 l 17.5543,12.753888 a 4.8754772,4.8754772 71.016764 0 1 1.8201,5.290959 l -10.1081,35.173368 a 2.5285422,2.5285422 161.01677 0 1 -3.9164,1.34725 l -17.5543,-12.753891 a 4.8754776,4.8754776 71.016767 0 1 -1.8201,-5.290959 z"
       id="path209"
       transform="translate(460.58118,85.970607)" /><path
       id="path210"
       style="fill:#0b5b1b;fill-opacity:0.555717;stroke:none;paint-order:markers stroke fill"
       d="m 2505.3164,141.62109 -3.8437,2.71875 L 2487,143.83398 v 31.13477 l 5.3516,3.71484 a 4.8163773,4.8163773 0 0 0 5.5547,-0.043 l 31.1621,-22.375 z" /><path
       id="path403"
       style="fill:#a24230;fill-opacity:1;stroke:none;paint-order:markers stroke fill"
       d="m 2046.1044,56.494237 -9.7735,34.001953 a 4.8754776,4.8754776 0 0 0 0.033,2.699219 4.8163773,4.8163773 0 0 0 0.961,-0.525391 l 31.1621,-22.375 z"
       transform="translate(460.58118,85.970607)" /><path
       id="path405"
       style="fill:#a24230;fill-opacity:1;stroke:none;paint-order:markers stroke fill"
       d="m 2565.8789,100.70272 -9.7735,34.00195 a 4.8754776,4.8754776 0 0 0 0.033,2.69922 4.8163773,4.8163773 0 0 0 0.961,-0.52539 l 31.1621,-22.375 z" /><path
       id="path406"
       style="fill:#a24230;fill-opacity:1;stroke:none;paint-order:markers stroke fill"
       d="m 2625.0071,58.911623 -9.7735,34.00195 a 4.8754776,4.8754776 0 0 0 0.033,2.699223 4.8163773,4.8163773 0 0 0 0.961,-0.52539 l 31.1621,-22.375003 z" /><path
       style="fill:#df6048;fill-opacity:1;stroke:none;paint-order:markers stroke fill"
       d="m 2032.5891,99.008567 17.6096,12.794113 a 6.672609,6.672609 0.44096049 0 0 7.7605,0.0597 l 29.6491,-20.851651 a 2.1781316,2.1781316 90.440964 0 0 0.027,-3.543789 l -17.6096,-12.794119 a 6.6726074,6.6726074 0.44096175 0 0 -7.7605,-0.05973 l -29.6491,20.851656 a 2.1781315,2.1781315 90.440958 0 0 -0.027,3.543788 z"
       id="path177"
       transform="translate(591.16311,-39.90798)" /><path
       style="fill:#652418;fill-opacity:0.499982;stroke:none;paint-order:markers stroke fill"
       d="m 2044.2128,134.66654 22.7977,0.70245 a 1.1356925,1.1356925 108.73573 0 0 0.6978,-2.05736 l -15.9934,-11.49523 z"
       id="path178"
       transform="translate(604.27542,-81.832609)" /><path
       style="fill:#dfa797;fill-opacity:1;stroke:none;paint-order:markers stroke fill"
       d="m 2049.2243,53.155247 19.3094,14.046659 a 10.777552,10.777552 49.800922 0 1 3.3108,3.917956 L 2081.979,91.5069 a 0.55055288,0.55055288 139.78388 0 1 -0.8166,0.69048 l -19.2837,-14.010419 a 10.767321,10.767321 49.779416 0 1 -3.3121,-3.916502 l -10.1578,-20.425968 a 0.54965991,0.54965991 139.79646 0 1 0.8155,-0.689244 z"
       id="path190"
       transform="translate(591.16311,-39.90798)" /><path
       style="fill:#d84425;fill-opacity:1;stroke:none;paint-order:markers stroke fill"
       d="m 2036.3317,90.49665 10.1081,-35.173365 a 2.5285425,2.5285425 161.01677 0 1 3.9164,-1.34725 l 17.5543,12.753888 a 4.8754772,4.8754772 71.016764 0 1 1.8201,5.290959 l -10.1081,35.173368 a 2.5285422,2.5285422 161.01677 0 1 -3.9164,1.34725 l -17.5543,-12.753891 a 4.8754776,4.8754776 71.016767 0 1 -1.8201,-5.290959 z"
       id="path191"
       transform="translate(591.16311,-39.90798)" /><path
       style="fill:#df6048;fill-opacity:1;stroke:none;paint-order:markers stroke fill"
       d="m 2032.5891,99.008567 17.6096,12.794113 a 6.672609,6.672609 0.44096049 0 0 7.7605,0.0597 l 29.6491,-20.851651 a 2.1781316,2.1781316 90.440964 0 0 0.027,-3.543789 l -17.6096,-12.794119 a 6.6726074,6.6726074 0.44096175 0 0 -7.7605,-0.05973 l -29.6491,20.851656 a 2.1781315,2.1781315 90.440958 0 0 -0.027,3.543788 z"
       id="path200"
       transform="translate(532.03495,1.8831166)" /><path
       style="fill:#652418;fill-opacity:0.499982;stroke:none;paint-order:markers stroke fill"
       d="m 2044.2128,134.66654 22.7977,0.70245 a 1.1356925,1.1356925 108.73573 0 0 0.6978,-2.05736 l -15.9934,-11.49523 z"
       id="path201"
       transform="translate(545.14726,-40.041512)" /><path
       style="fill:#dfa797;fill-opacity:1;stroke:none;paint-order:markers stroke fill"
       d="m 2049.2243,53.155247 19.3094,14.046659 a 10.777552,10.777552 49.800922 0 1 3.3108,3.917956 L 2081.979,91.5069 a 0.55055288,0.55055288 139.78388 0 1 -0.8166,0.69048 l -19.2837,-14.010419 a 10.767321,10.767321 49.779416 0 1 -3.3121,-3.916502 l -10.1578,-20.425968 a 0.54965991,0.54965991 139.79646 0 1 0.8155,-0.689244 z"
       id="path202"
       transform="translate(532.03495,1.8831166)" /><path
       style="fill:#d84425;fill-opacity:1;stroke:none;paint-order:markers stroke fill"
       d="m 2036.3317,90.49665 10.1081,-35.173365 a 2.5285425,2.5285425 161.01677 0 1 3.9164,-1.34725 l 17.5543,12.753888 a 4.8754772,4.8754772 71.016764 0 1 1.8201,5.290959 l -10.1081,35.173368 a 2.5285422,2.5285422 161.01677 0 1 -3.9164,1.34725 l -17.5543,-12.753891 a 4.8754776,4.8754776 71.016767 0 1 -1.8201,-5.290959 z"
       id="path203"
       transform="translate(532.03495,1.8831166)" /><path
       style="fill:#df6048;fill-opacity:1;stroke:none;paint-order:markers stroke fill"
       d="m 2032.5891,99.008567 17.6096,12.794113 a 6.672609,6.672609 0.44096049 0 0 7.7605,0.0597 l 29.6491,-20.851651 a 2.1781316,2.1781316 90.440964 0 0 0.027,-3.543789 l -17.6096,-12.794119 a 6.6726074,6.6726074 0.44096175 0 0 -7.7605,-0.05973 l -29.6491,20.851656 a 2.1781315,2.1781315 90.440958 0 0 -0.027,3.543788 z"
       id="path211"
       transform="translate(472.84043,43.645539)" /><path
       style="fill:#652418;fill-opacity:0.499982;stroke:none;paint-order:markers stroke fill"
       d="m 2044.2128,134.66654 22.7977,0.70245 a 1.1356925,1.1356925 108.73573 0 0 0.6978,-2.05736 l -15.9934,-11.49523 z"
       id="path212"
       transform="translate(485.95274,1.72091)" /><path
       style="fill:#dfa797;fill-opacity:1;stroke:none;paint-order:markers stroke fill"
       d="m 2049.2243,53.155247 19.3094,14.046659 a 10.777552,10.777552 49.800922 0 1 3.3108,3.917956 L 2081.979,91.5069 a 0.55055288,0.55055288 139.78388 0 1 -0.8166,0.69048 l -19.2837,-14.010419 a 10.767321,10.767321 49.779416 0 1 -3.3121,-3.916502 l -10.1578,-20.425968 a 0.54965991,0.54965991 139.79646 0 1 0.8155,-0.689244 z"
       id="path213"
       transform="translate(472.84043,43.645539)" /><path
       style="fill:#d84425;fill-opacity:1;stroke:none;paint-order:markers stroke fill"
       d="m 2036.3317,90.49665 10.1081,-35.173365 a 2.5285425,2.5285425 161.01677 0 1 3.9164,-1.34725 l 17.5543,12.753888 a 4.8754772,4.8754772 71.016764 0 1 1.8201,5.290959 l -10.1081,35.173368 a 2.5285422,2.5285422 161.01677 0 1 -3.9164,1.34725 l -17.5543,-12.753891 a 4.8754776,4.8754776 71.016767 0 1 -1.8201,-5.290959 z"
       id="path214"
       transform="translate(472.84043,43.645539)" /></g></svg>
