<svg xml:space="preserve" xmlns:xlink="http://www.w3.org/1999/xlink" xmlns="http://www.w3.org/2000/svg" viewBox="0 0 108 108">
  <defs>
    <linearGradient id="a">
      <stop style="stop-color:#3ec13e;stop-opacity:1" offset="0"/>
      <stop style="stop-color:#e0d376;stop-opacity:1" offset="1"/>
    </linearGradient>
    <linearGradient xlink:href="#a" id="b" x1="2753" y1="29" x2="2781" y2="72" gradientUnits="userSpaceOnUse"/>
  </defs>
  <g style="display:inline;fill:none;stroke:#dee4da;stroke-width:.5;stroke-dasharray:none;stroke-opacity:1">
    <path style="opacity:1;fill:url(#b);fill-opacity:1;stroke:none;stroke-width:4;paint-order:markers stroke fill" d="M2729 0h108v108h-108z" transform="translate(-2729)" stroke="none"/>
    <path style="fill:#0b5b1b;fill-opacity:.555717;stroke:none;stroke-width:1.73334;paint-order:markers stroke fill" d="m2056.263 112.504-31.162 22.374a4.816 4.816 179.545 0 1-5.556.044l-16.938-11.76a2.53 2.53 88.816 0 1-.085-4.094l1.928-1.46-16.097-15.818a1.509 1.509 113.25 0 1 1.11-2.584l39.204 1.371 3.843-2.718z" transform="translate(-557.018 34.7) scale(.28846)" stroke="none"/>
    <path style="fill:#0c5a1e;fill-opacity:.525293;stroke:none;stroke-width:1.73334;paint-order:markers stroke fill" d="m2044.213 134.667 22.798.702a1.136 1.136 108.736 0 0 .697-2.057l-15.993-11.496z" transform="translate(-522.69 10.697) scale(.28846)" stroke="none"/>
    <path style="fill:#0c5a1e;fill-opacity:.525293;stroke:none;stroke-width:1.73334;paint-order:markers stroke fill" d="m2044.213 134.667 22.798.702a1.136 1.136 108.736 0 0 .697-2.057l-15.993-11.496z" transform="translate(-515.537 5.628) scale(.28846)" stroke="none"/>
    <path style="fill:#8dc788;fill-opacity:1;stroke:none;stroke-width:1.73334;paint-order:markers stroke fill" d="m2049.224 53.155 19.31 14.047a10.778 10.778 49.8 0 1 3.31 3.918l10.135 20.387a.55.55 139.784 0 1-.817.69l-19.283-14.01a10.767 10.767 49.78 0 1-3.312-3.917l-10.158-20.426a.55.55 139.796 0 1 .815-.689z" transform="translate(-519.296 17.704) scale(.28846)" stroke="none"/>
    <path style="fill:#c63f22;fill-opacity:1;stroke:none;stroke-width:1.73334;paint-order:markers stroke fill" d="m2036.332 90.497 10.108-35.174a2.529 2.529 161.017 0 1 3.916-1.347l17.554 12.754a4.875 4.875 71.017 0 1 1.82 5.29l-10.108 35.174a2.529 2.529 161.017 0 1-3.916 1.348l-17.554-12.754a4.875 4.875 71.017 0 1-1.82-5.291z" transform="translate(-519.296 17.704) scale(.28846)" stroke="none"/>
    <path style="fill:#81cf7a;fill-opacity:1;stroke:none;stroke-width:1.73334;paint-order:markers stroke fill" d="m2049.224 53.155 19.31 14.047a10.778 10.778 49.8 0 1 3.31 3.918l10.135 20.387a.55.55 139.784 0 1-.817.69l-19.283-14.01a10.767 10.767 49.78 0 1-3.312-3.917l-10.158-20.426a.55.55 139.796 0 1 .815-.689z" transform="translate(-526.413 22.774) scale(.28846)" stroke="none"/>
    <path style="fill:#d84425;fill-opacity:1;stroke:none;stroke-width:1.73334;paint-order:markers stroke fill" d="m2036.332 90.497 10.108-35.174a2.529 2.529 161.017 0 1 3.916-1.347l17.554 12.754a4.875 4.875 71.017 0 1 1.82 5.29l-10.108 35.174a2.529 2.529 161.017 0 1-3.916 1.348l-17.554-12.754a4.875 4.875 71.017 0 1-1.82-5.291z" transform="translate(-526.413 22.774) scale(.28846)" stroke="none"/>
    <path style="fill:#0b5b1b;fill-opacity:.555717;stroke:none;stroke-width:1.73334;paint-order:markers stroke fill" d="m2056.263 112.504-31.162 22.374a4.816 4.816 179.545 0 1-5.556.044l-16.938-11.76a2.53 2.53 88.816 0 1-.085-4.094l1.928-1.46-16.097-15.818a1.509 1.509 113.25 0 1 1.11-2.584l39.204 1.371 3.843-2.718z" transform="translate(-522.887 10.599) scale(.28846)" stroke="none"/>
    <path style="fill:#df6048;fill-opacity:1;stroke:none;stroke-width:1.73334;paint-order:markers stroke fill" d="m2032.59 99.009 17.609 12.794a6.673 6.673.441 0 0 7.76.06l29.65-20.852a2.178 2.178 90.441 0 0 .026-3.544l-17.61-12.794a6.673 6.673.441 0 0-7.76-.06l-29.649 20.852a2.178 2.178 90.441 0 0-.027 3.544z" transform="translate(-522.876 10.565) scale(.28846)" stroke="none"/>
    <path style="fill:#652418;fill-opacity:.499982;stroke:none;stroke-width:1.73334;paint-order:markers stroke fill" d="m2044.213 134.667 22.798.702a1.136 1.136 108.736 0 0 .697-2.057l-15.993-11.496z" transform="translate(-519.094 -1.529) scale(.28846)" stroke="none"/>
    <path style="fill:#d4aea2;fill-opacity:1;stroke:none;stroke-width:1.73334;paint-order:markers stroke fill" d="m2049.224 53.155 19.31 14.047a10.778 10.778 49.8 0 1 3.31 3.918l10.135 20.387a.55.55 139.784 0 1-.817.69l-19.283-14.01a10.767 10.767 49.78 0 1-3.312-3.917l-10.158-20.426a.55.55 139.796 0 1 .815-.689z" transform="translate(-522.876 10.565) scale(.28846)" stroke="none"/>
    <path style="fill:#d84425;fill-opacity:1;stroke:none;stroke-width:1.73334;paint-order:markers stroke fill" d="m2036.332 90.497 10.108-35.174a2.529 2.529 161.017 0 1 3.916-1.347l17.554 12.754a4.875 4.875 71.017 0 1 1.82 5.29l-10.108 35.174a2.529 2.529 161.017 0 1-3.916 1.348l-17.554-12.754a4.875 4.875 71.017 0 1-1.82-5.291z" transform="translate(-522.876 10.565) scale(.28846)" stroke="none"/>
    <path style="fill:#0c5a1e;fill-opacity:.525293;stroke:none;stroke-width:1.73334;paint-order:markers stroke fill" d="m2044.213 134.667 22.798.702a1.136 1.136 108.736 0 0 .697-2.057l-15.993-11.496z" transform="translate(-539.746 22.752) scale(.28846)" stroke="none"/>
    <path style="fill:#0c5a1e;fill-opacity:.525293;stroke:none;stroke-width:1.73334;paint-order:markers stroke fill" d="m2044.213 134.667 22.798.702a1.136 1.136 108.736 0 0 .697-2.057l-15.993-11.496z" transform="translate(-532.593 17.683) scale(.28846)" stroke="none"/>
    <path style="fill:#8dc788;fill-opacity:1;stroke:none;stroke-width:1.73334;paint-order:markers stroke fill" d="m2049.224 53.155 19.31 14.047a10.778 10.778 49.8 0 1 3.31 3.918l10.135 20.387a.55.55 139.784 0 1-.817.69l-19.283-14.01a10.767 10.767 49.78 0 1-3.312-3.917l-10.158-20.426a.55.55 139.796 0 1 .815-.689z" transform="translate(-536.353 29.759) scale(.28846)" stroke="none"/>
    <path style="fill:#c63f22;fill-opacity:1;stroke:none;stroke-width:1.73334;paint-order:markers stroke fill" d="m2036.332 90.497 10.108-35.174a2.529 2.529 161.017 0 1 3.916-1.347l17.554 12.754a4.875 4.875 71.017 0 1 1.82 5.29l-10.108 35.174a2.529 2.529 161.017 0 1-3.916 1.348l-17.554-12.754a4.875 4.875 71.017 0 1-1.82-5.291z" transform="translate(-536.353 29.759) scale(.28846)" stroke="none"/>
    <path style="fill:#8dc788;fill-opacity:1;stroke:none;stroke-width:1.73334;paint-order:markers stroke fill" d="m2049.224 53.155 19.31 14.047a10.778 10.778 49.8 0 1 3.31 3.918l10.135 20.387a.55.55 139.784 0 1-.817.69l-19.283-14.01a10.767 10.767 49.78 0 1-3.312-3.917l-10.158-20.426a.55.55 139.796 0 1 .815-.689z" transform="translate(-543.469 34.83) scale(.28846)" stroke="none"/>
    <path style="fill:#d84425;fill-opacity:1;stroke:none;stroke-width:1.73334;paint-order:markers stroke fill" d="m2036.332 90.497 10.108-35.174a2.529 2.529 161.017 0 1 3.916-1.347l17.554 12.754a4.875 4.875 71.017 0 1 1.82 5.29l-10.108 35.174a2.529 2.529 161.017 0 1-3.916 1.348l-17.554-12.754a4.875 4.875 71.017 0 1-1.82-5.291z" transform="translate(-543.469 34.83) scale(.28846)" stroke="none"/>
    <path style="fill:#0b5b1b;fill-opacity:.555717;stroke:none;stroke-width:1.73334;paint-order:markers stroke fill" d="m2056.263 112.504-31.162 22.374a4.816 4.816 179.545 0 1-5.556.044l-16.938-11.76a2.53 2.53 88.816 0 1-.085-4.094l1.928-1.46-16.097-15.818a1.509 1.509 113.25 0 1 1.11-2.584l39.204 1.371 3.843-2.718z" transform="translate(-539.943 22.654) scale(.28846)" stroke="none"/>
    <path style="fill:#df6048;fill-opacity:1;stroke:none;stroke-width:1.73334;paint-order:markers stroke fill" d="m2032.59 99.009 17.609 12.794a6.673 6.673.441 0 0 7.76.06l29.65-20.852a2.178 2.178 90.441 0 0 .026-3.544l-17.61-12.794a6.673 6.673.441 0 0-7.76-.06l-29.649 20.852a2.178 2.178 90.441 0 0-.027 3.544z" transform="translate(-539.933 22.62) scale(.28846)" stroke="none"/>
    <path style="fill:#652418;fill-opacity:.499982;stroke:none;stroke-width:1.73334;paint-order:markers stroke fill" d="m2044.213 134.667 22.798.702a1.136 1.136 108.736 0 0 .697-2.057l-15.993-11.496z" transform="translate(-536.15 10.526) scale(.28846)" stroke="none"/>
    <path style="fill:#d4aea2;fill-opacity:1;stroke:none;stroke-width:1.73334;paint-order:markers stroke fill" d="m2049.224 53.155 19.31 14.047a10.778 10.778 49.8 0 1 3.31 3.918l10.135 20.387a.55.55 139.784 0 1-.817.69l-19.283-14.01a10.767 10.767 49.78 0 1-3.312-3.917l-10.158-20.426a.55.55 139.796 0 1 .815-.689z" transform="translate(-539.933 22.62) scale(.28846)" stroke="none"/>
    <path style="fill:#d84425;fill-opacity:1;stroke:none;stroke-width:1.73334;paint-order:markers stroke fill" d="m2036.332 90.497 10.108-35.174a2.529 2.529 161.017 0 1 3.916-1.347l17.554 12.754a4.875 4.875 71.017 0 1 1.82 5.29l-10.108 35.174a2.529 2.529 161.017 0 1-3.916 1.348l-17.554-12.754a4.875 4.875 71.017 0 1-1.82-5.291z" transform="translate(-539.933 22.62) scale(.28846)" stroke="none"/>
    <path style="fill:#0c5a1e;fill-opacity:.525293;stroke:none;stroke-width:1.73334;paint-order:markers stroke fill" d="m2044.213 134.667 22.798.702a1.136 1.136 108.736 0 0 .697-2.057l-15.993-11.496z" transform="translate(-556.822 34.799) scale(.28846)" stroke="none"/>
    <path style="fill:#0c5a1e;fill-opacity:.525293;stroke:none;stroke-width:1.73334;paint-order:markers stroke fill" d="m2044.213 134.667 22.798.702a1.136 1.136 108.736 0 0 .697-2.057l-15.993-11.496z" transform="translate(-549.669 29.73) scale(.28846)" stroke="none"/>
    <path style="fill:#8dc788;fill-opacity:1;stroke:none;stroke-width:1.73334;paint-order:markers stroke fill" d="m2049.224 53.155 19.31 14.047a10.778 10.778 49.8 0 1 3.31 3.918l10.135 20.387a.55.55 139.784 0 1-.817.69l-19.283-14.01a10.767 10.767 49.78 0 1-3.312-3.917l-10.158-20.426a.55.55 139.796 0 1 .815-.689z" transform="translate(-553.428 41.806) scale(.28846)" stroke="none"/>
    <path style="fill:#c63f22;fill-opacity:1;stroke:none;stroke-width:1.73334;paint-order:markers stroke fill" d="m2036.332 90.497 10.108-35.174a2.529 2.529 161.017 0 1 3.916-1.347l17.554 12.754a4.875 4.875 71.017 0 1 1.82 5.29l-10.108 35.174a2.529 2.529 161.017 0 1-3.916 1.348l-17.554-12.754a4.875 4.875 71.017 0 1-1.82-5.291z" transform="translate(-553.428 41.806) scale(.28846)" stroke="none"/>
    <path style="fill:#8dc788;fill-opacity:1;stroke:none;stroke-width:1.73334;paint-order:markers stroke fill" d="m2049.224 53.155 19.31 14.047a10.778 10.778 49.8 0 1 3.31 3.918l10.135 20.387a.55.55 139.784 0 1-.817.69l-19.283-14.01a10.767 10.767 49.78 0 1-3.312-3.917l-10.158-20.426a.55.55 139.796 0 1 .815-.689z" transform="translate(-560.544 46.876) scale(.28846)" stroke="none"/>
    <path style="fill:#d84425;fill-opacity:1;stroke:none;stroke-width:1.73334;paint-order:markers stroke fill" d="m2036.332 90.497 10.108-35.174a2.529 2.529 161.017 0 1 3.916-1.347l17.554 12.754a4.875 4.875 71.017 0 1 1.82 5.29l-10.108 35.174a2.529 2.529 161.017 0 1-3.916 1.348l-17.554-12.754a4.875 4.875 71.017 0 1-1.82-5.291z" transform="translate(-560.544 46.876) scale(.28846)" stroke="none"/>
    <path style="fill:#df6048;fill-opacity:1;stroke:none;stroke-width:1.73334;paint-order:markers stroke fill" d="m2032.59 99.009 17.609 12.794a6.673 6.673.441 0 0 7.76.06l29.65-20.852a2.178 2.178 90.441 0 0 .026-3.544l-17.61-12.794a6.673 6.673.441 0 0-7.76-.06l-29.649 20.852a2.178 2.178 90.441 0 0-.027 3.544z" transform="translate(-557.008 34.667) scale(.28846)" stroke="none"/>
    <path style="fill:#652418;fill-opacity:.499982;stroke:none;stroke-width:1.73334;paint-order:markers stroke fill" d="m2044.213 134.667 22.798.702a1.136 1.136 108.736 0 0 .697-2.057l-15.993-11.496z" transform="translate(-553.226 22.573) scale(.28846)" stroke="none"/>
    <path style="fill:#d4aea2;fill-opacity:1;stroke:none;stroke-width:1.73334;paint-order:markers stroke fill" d="m2049.224 53.155 19.31 14.047a10.778 10.778 49.8 0 1 3.31 3.918l10.135 20.387a.55.55 139.784 0 1-.817.69l-19.283-14.01a10.767 10.767 49.78 0 1-3.312-3.917l-10.158-20.426a.55.55 139.796 0 1 .815-.689z" transform="translate(-557.008 34.667) scale(.28846)" stroke="none"/>
    <path style="fill:#d84425;fill-opacity:1;stroke:none;stroke-width:1.73334;paint-order:markers stroke fill" d="m2036.332 90.497 10.108-35.174a2.529 2.529 161.017 0 1 3.916-1.347l17.554 12.754a4.875 4.875 71.017 0 1 1.82 5.29l-10.108 35.174a2.529 2.529 161.017 0 1-3.916 1.348l-17.554-12.754a4.875 4.875 71.017 0 1-1.82-5.291z" transform="translate(-557.008 34.667) scale(.28846)" stroke="none"/>
    <path style="display:inline;fill:#54a0f5;fill-opacity:1;stroke:none;stroke-width:.989997;stroke-linecap:butt;stroke-linejoin:miter;stroke-miterlimit:4;stroke-dasharray:none;stroke-dashoffset:0;stroke-opacity:1;marker:none;marker-start:none;marker-mid:none;marker-end:none;paint-order:normal;enable-background:new" d="M2837 33.117 2730.729 108H2837Z" transform="translate(-2729)"/>
    <path style="display:inline;fill:#24ceba;fill-opacity:.500355;stroke:none;stroke-width:.989997;stroke-linecap:butt;stroke-linejoin:miter;stroke-miterlimit:4;stroke-dasharray:none;stroke-dashoffset:0;stroke-opacity:1;marker:none;marker-start:none;marker-mid:none;marker-end:none;paint-order:normal;enable-background:new" d="M2837 33.117 2730.729 108h7.814L2837 38.623Z" transform="translate(-2729)"/>
  </g>
</svg>
